<svg width="83" height="50" viewBox="0 0 83 50" fill="none" xmlns="http://www.w3.org/2000/svg">
<path d="M82.1888 24.6567C82.1888 38.1862 71.1882 49.3134 57.5322 49.3134C44.0026 49.3134 32.8755 38.1862 32.8755 24.6567C32.8755 11.1271 43.8762 0 57.4057 0C71.1882 0 82.1888 11.1271 82.1888 24.6567Z" fill="#F9B50B"/>
<path d="M49.1869 24.7831C49.1869 23.0129 48.934 21.2427 48.6811 19.5989H33.5078C33.6342 18.7138 33.8871 17.9551 34.14 16.9436H47.6696C47.4167 16.0585 47.0374 15.1733 46.658 14.2882H35.1516C35.5309 13.4031 36.0367 12.6445 36.5425 11.6329H45.2671C44.7613 10.7478 44.1291 9.86267 43.3705 8.97756H38.5656C39.3242 8.09245 40.0829 7.33378 41.0945 6.44867C36.7953 2.40245 30.9789 0 24.5302 0C11.1271 0.379334 0 11.1271 0 24.6567C0 38.1862 11.0007 49.3134 24.6567 49.3134C31.1053 49.3134 36.7953 46.7845 41.2209 42.8647C42.106 42.106 42.8647 41.2209 43.7498 40.2094H38.692C38.0598 39.4507 37.4276 38.5656 36.9218 37.6805H45.52C46.0258 36.9218 46.5316 36.0367 46.9109 35.0251H35.4045C35.0251 34.2665 34.6458 33.3814 34.3929 32.3698H47.9225C48.6811 30.0938 49.1869 27.5649 49.1869 24.7831Z" fill="#C8191C"/>
<path d="M33.3813 30.9791L33.7607 28.7031C33.6342 28.7031 33.3813 28.8295 33.1285 28.8295C32.2433 28.8295 32.1169 28.3238 32.2433 28.0709L33.002 23.5189H34.3929L34.7722 20.99H33.5078L33.7607 19.4727H31.1053C31.1053 19.4727 29.588 28.0709 29.588 29.0824C29.588 30.5998 30.4731 31.3584 31.7376 31.3584C32.4962 31.3584 33.1285 31.1056 33.3813 30.9791Z" fill="white"/>
<path d="M34.2665 26.8062C34.2665 30.4731 36.7954 31.3582 38.8185 31.3582C40.7151 31.3582 41.6003 30.9789 41.6003 30.9789L42.106 28.45C42.106 28.45 40.7151 29.0822 39.3243 29.0822C36.416 29.0822 36.9218 26.9327 36.9218 26.9327H42.2325C42.2325 26.9327 42.6118 25.2889 42.6118 24.5302C42.6118 22.8864 41.7267 20.7369 38.8185 20.7369C36.2896 20.6104 34.2665 23.5187 34.2665 26.8062ZM38.8185 23.0129C40.2094 23.0129 39.9565 24.6567 39.9565 24.7831H37.0483C37.1747 24.6567 37.4276 23.0129 38.8185 23.0129Z" fill="white"/>
<path d="M55.3826 30.9789L55.8884 28.0707C55.8884 28.0707 54.624 28.7029 53.6124 28.7029C51.8422 28.7029 50.9571 27.312 50.9571 25.6682C50.9571 22.5071 52.4744 20.8633 54.3711 20.8633C55.6355 20.8633 56.7735 21.622 56.7735 21.622L57.1529 18.8402C57.1529 18.8402 55.6355 18.208 54.1182 18.208C51.0835 18.208 48.1753 20.8633 48.1753 25.7947C48.1753 29.0822 49.6926 31.2318 52.8537 31.2318C53.9917 31.3582 55.3826 30.9789 55.3826 30.9789Z" fill="white"/>
<path d="M19.0932 20.6104C17.323 20.6104 15.9321 21.1161 15.9321 21.1161L15.5528 23.3921C15.5528 23.3921 16.6908 22.8864 18.461 22.8864C19.3461 22.8864 20.1048 23.0128 20.1048 23.7715C20.1048 24.2772 19.9783 24.4037 19.9783 24.4037H18.8403C16.5643 24.4037 14.1619 25.2888 14.1619 28.3235C14.1619 30.7259 15.6792 31.2317 16.6908 31.2317C18.461 31.2317 19.3461 30.0937 19.4725 30.0937L19.3461 31.1052H21.4956L22.5072 23.8979C22.5072 20.7368 19.9783 20.6104 19.0932 20.6104ZM19.599 26.4268C19.599 26.8061 19.3461 28.9557 17.8288 28.9557C17.0701 28.9557 16.8172 28.3235 16.8172 27.9441C16.8172 27.3119 17.1965 26.4268 19.2196 26.4268C19.4725 26.4268 19.599 26.4268 19.599 26.4268Z" fill="white"/>
<path d="M25.036 31.2317C25.6682 31.2317 28.9558 31.3581 28.9558 27.8177C28.9558 24.5301 25.7947 25.1623 25.7947 23.8979C25.7947 23.2657 26.3004 23.0128 27.1855 23.0128C27.5649 23.0128 28.9558 23.1392 28.9558 23.1392L29.3351 20.7368C29.3351 20.7368 28.45 20.4839 26.8062 20.4839C24.9095 20.4839 22.8864 21.2426 22.8864 23.8979C22.8864 26.9326 26.174 26.6797 26.174 27.8177C26.174 28.5763 25.2889 28.7028 24.6567 28.7028C23.5187 28.7028 22.2542 28.3234 22.2542 28.3234L21.8749 30.7259C22.1278 30.9788 22.8864 31.2317 25.036 31.2317Z" fill="white"/>
<path d="M77.1311 18.5869L76.6253 22.1274C76.6253 22.1274 75.6138 20.8629 74.0965 20.8629C71.694 20.8629 69.6709 23.7711 69.6709 27.1851C69.6709 29.3347 70.6825 31.4843 72.9585 31.4843C74.4758 31.4843 75.4873 30.4727 75.4873 30.4727L75.3609 31.3578H78.0162L79.9129 18.8398L77.1311 18.5869ZM75.8667 25.4149C75.8667 26.8058 75.2345 28.7025 73.7171 28.7025C72.832 28.7025 72.3262 27.9438 72.3262 26.5529C72.3262 24.4034 73.2113 23.1389 74.4758 23.1389C75.3609 23.2654 75.8667 23.8976 75.8667 25.4149Z" fill="white"/>
<path d="M4.80489 31.1049L6.32223 21.748L6.57511 31.1049H8.34534L11.7593 21.748L10.3684 31.1049H13.1502L15.2998 18.5869H11.0007L8.34534 26.3L8.21889 18.5869H4.42556L2.276 31.1049H4.80489Z" fill="white"/>
<path d="M45.2671 31.1053C46.0258 26.8062 46.1522 23.2657 48.0489 23.8979C48.3018 22.2542 48.6811 21.4955 48.934 20.8633H48.4282C47.2902 20.8633 46.2787 22.3806 46.2787 22.3806L46.5316 20.9897H44.0027L42.3589 31.1053H45.2671Z" fill="white"/>
<path d="M61.4521 20.6104C59.6819 20.6104 58.291 21.1161 58.291 21.1161L57.9116 23.3921C57.9116 23.3921 59.0496 22.8864 60.8199 22.8864C61.705 22.8864 62.4636 23.0128 62.4636 23.7715C62.4636 24.2772 62.3372 24.4037 62.3372 24.4037H61.1992C58.9232 24.4037 56.5208 25.2888 56.5208 28.3235C56.5208 30.7259 58.0381 31.2317 59.0496 31.2317C60.8199 31.2317 61.705 30.0937 61.8314 30.0937L61.705 31.1052H64.1074L65.119 23.8979C65.119 20.7368 62.3372 20.6104 61.4521 20.6104ZM62.0843 26.4268C62.0843 26.8061 61.8314 28.9557 60.3141 28.9557C59.5554 28.9557 59.3025 28.3235 59.3025 27.9441C59.3025 27.3119 59.6819 26.4268 61.705 26.4268C61.9579 26.4268 61.9579 26.4268 62.0843 26.4268Z" fill="white"/>
<path d="M67.1421 31.1053C67.9008 26.8062 68.0272 23.2657 69.9239 23.8979C70.1768 22.2542 70.5561 21.4955 70.809 20.8633H70.3032C69.1652 20.8633 68.1537 22.3806 68.1537 22.3806L68.4066 20.9897H65.8777L64.2339 31.1053H67.1421Z" fill="white"/>
</svg>
