<svg width="89" height="26" viewBox="0 0 89 26" fill="none" xmlns="http://www.w3.org/2000/svg">
<path d="M79.7751 0H62.6567C63.6539 5.65074 69.1385 10.9691 75.1216 10.9691H88.7499C88.9161 10.4705 88.916 9.6395 88.916 9.1409C88.916 4.15496 84.7611 0 79.7751 0Z" fill="url(#paint0_linear_255_61)"/>
<path d="M64.1526 11.9663V25.7607H72.4625V18.448H79.7752C83.764 18.448 87.2542 15.6227 88.4175 11.9663H64.1526Z" fill="#4FAD50"/>
<path d="M34.9016 0V25.5945H42.2144C42.2144 25.5945 44.0425 25.5945 45.0397 23.7663C50.0257 13.9607 51.5214 10.9691 51.5214 10.9691H52.5186V25.5945H60.8285V0H53.5158C53.5158 0 51.6876 0.166208 50.6904 1.82819C46.5355 10.3043 44.2087 14.6254 44.2087 14.6254H43.2115V0H34.9016Z" fill="#4FAD50"/>
<path d="M0 25.761V0.166504H8.30991C8.30991 0.166504 10.6367 0.166499 11.9663 3.82286C15.2903 13.4624 15.6227 14.792 15.6227 14.792C15.6227 14.792 16.2874 12.4652 19.279 3.82286C20.6086 0.166499 22.9354 0.166504 22.9354 0.166504H31.2453V25.761H22.9354V11.9666H21.9382L17.2847 25.761H13.6283L8.97474 11.9666H7.97754V25.761H0Z" fill="#4FAD50"/>
<defs>
<linearGradient id="paint0_linear_255_61" x1="62.6272" y1="5.56316" x2="88.8572" y2="5.56316" gradientUnits="userSpaceOnUse">
<stop stop-color="#27B1E6"/>
<stop offset="1" stop-color="#148ACA"/>
</linearGradient>
</defs>
</svg>
