<svg width="87" height="27" viewBox="0 0 87 27" fill="none" xmlns="http://www.w3.org/2000/svg">
<path d="M80.6715 0.379395H75.2344C73.5907 0.379395 72.3262 0.885173 71.5675 2.52895L61.1991 26.1741H68.5329C68.5329 26.1741 69.7973 23.013 70.0502 22.2543C70.8089 22.2543 78.0162 22.2543 79.0278 22.2543C79.2807 23.1394 79.9129 26.0476 79.9129 26.0476H86.488L80.6715 0.379395ZM72.0733 16.9436C72.7055 15.4263 74.8551 9.73629 74.8551 9.73629C74.8551 9.86273 75.4873 8.21895 75.7402 7.33384L76.246 9.60984C76.246 9.60984 77.6369 15.8056 77.8898 17.0701H72.0733V16.9436Z" fill="#3362AB"/>
<path d="M61.7049 17.7022C61.7049 23.0129 56.9 26.5533 49.4398 26.5533C46.2787 26.5533 43.244 25.9211 41.6002 25.1625L42.6118 19.346L43.4969 19.7253C45.7729 20.7369 47.2902 21.1162 50.072 21.1162C52.0951 21.1162 54.2447 20.3576 54.2447 18.5873C54.2447 17.4493 53.3596 16.6907 50.5778 15.4262C47.9224 14.1618 44.382 12.1387 44.382 8.47178C44.382 3.414 49.3133 0 56.2678 0C58.9231 0 61.1991 0.505778 62.59 1.138L61.5785 6.70156L61.0727 6.19578C59.8082 5.69 58.1644 5.18422 55.762 5.18422C53.1067 5.31067 51.8422 6.44867 51.8422 7.46023C51.8422 8.59823 53.3596 9.48334 55.762 10.6213C59.8082 12.518 61.7049 14.6676 61.7049 17.7022Z" fill="#3362AB"/>
<path d="M0 0.632243L0.126445 0.126465H11.0007C12.518 0.126465 13.656 0.632243 14.0353 2.27602L16.4378 13.656C14.0353 7.58669 8.47178 2.65535 0 0.632243Z" fill="#F9B50B"/>
<path d="M31.7376 0.379374L20.7369 26.0476H13.2767L6.95447 4.55204C11.5065 7.46027 15.2998 12.0123 16.6907 15.1734L17.4494 17.8287L24.2774 0.25293H31.7376V0.379374Z" fill="#3362AB"/>
<path d="M34.6458 0.25293H41.6002L37.1747 26.0476H30.2202L34.6458 0.25293Z" fill="#3362AB"/>
</svg>
