<svg width="358" height="112" viewBox="0 0 358 112" fill="none" xmlns="http://www.w3.org/2000/svg">
<path d="M189.197 100.752L186.429 99.1036L186.439 96.7549L187.226 96.7677L187.526 96.6572L188.066 96.0996L189.867 97.7258L189.197 100.752ZM183.064 100.629L182.466 97.6905L184.066 96.1188L184.627 96.6203L184.744 96.6956L184.888 96.7164L185.661 96.7261L185.658 98.9065L183.064 100.629ZM178.561 96.6956L180.303 94.0761L182.79 94.0874L182.77 94.8436L182.907 95.1191L183.483 95.6238L181.764 97.3252L178.561 96.6956ZM178.695 90.8975L181.795 90.3464L181.817 90.3368L183.471 91.8283L182.932 92.3731L182.831 92.6198L182.814 93.3632L180.514 93.3472L178.695 90.8975ZM182.853 86.6391L185.609 88.2797L185.607 90.654L184.819 90.6412L184.522 90.7469L183.985 91.2932L182.186 89.6671L182.853 86.6391ZM188.987 86.7672L189.587 89.7007L187.999 91.2788L187.426 90.7726L187.165 90.6748L186.378 90.6604L186.399 88.4863L188.987 86.7672ZM193.492 90.6973L191.75 93.3151L189.261 93.3039L189.275 92.5621L189.139 92.2882L188.561 91.7803L190.306 90.0708L193.492 90.6973ZM188.446 94.6177L188.026 95.0502L187.494 95.5918L187.073 96.0227L186.454 96.0099L185.668 95.9971L185.049 95.9843L184.593 95.5853L184.02 95.0823L183.566 94.6833L183.58 94.0986L183.593 93.3568L183.607 92.772L184.027 92.3442L184.559 91.7995L184.982 91.3701L185.599 91.383L186.385 91.3958L187.002 91.4086L187.458 91.8059L188.033 92.3106L188.487 92.7079L188.473 93.2943L188.458 94.0361L188.446 94.6177ZM191.531 94.0617L193.358 96.4938L190.251 97.0609L188.583 95.5645L189.121 95.0198L189.222 94.7731L189.239 94.0297L191.524 94.0425L191.531 94.0617ZM195.957 102.247L195.396 101.745L195.391 101.741L195.838 101.649C196.05 101.606 196.184 101.409 196.141 101.21C196.096 101.01 195.887 100.885 195.677 100.927L194.719 101.124L194.012 100.488L194.011 100.486L195.297 100.225C195.507 100.18 195.641 99.9864 195.596 99.7861C195.55 99.589 195.345 99.4609 195.133 99.5041L193.323 99.871L192.506 99.1036L194.733 98.647C194.945 98.6037 195.077 98.4083 195.033 98.2064C194.987 98.0094 194.78 97.8844 194.57 97.926L191.816 98.4868L190.929 97.6841L194.106 97.1122L194.389 96.8863L194.351 96.537L192.48 94.0553L193.699 94.0441L195.277 96.2678L195.455 96.4024L195.819 96.3672C195.997 96.2534 196.045 96.0243 195.924 95.8561L194.65 94.0585L194.653 94.0553H195.811L196.843 95.5004L197.019 95.6398L197.384 95.6014C197.562 95.4892 197.609 95.2601 197.489 95.0903L196.76 94.0633L197.731 94.0665L197.736 94.0697L198.279 94.8323L198.458 94.9685L198.821 94.9333C199.001 94.8195 199.048 94.5904 198.928 94.4206L198.674 94.0633H198.677L199.448 94.0697C199.665 94.0729 199.842 93.9015 199.847 93.6964C199.848 93.4914 199.665 93.3247 199.462 93.3263L198.536 93.3247H198.533L198.908 92.7496C199.02 92.5765 198.964 92.349 198.781 92.2417C198.603 92.1408 198.357 92.192 198.242 92.3635L197.616 93.3215H197.611L196.638 93.3167L197.45 92.0719C197.562 91.8956 197.506 91.6714 197.321 91.564C197.145 91.4599 196.897 91.5111 196.784 91.6842L195.719 93.3151L195.709 93.3119H194.753L195.867 91.5993C195.98 91.4278 195.921 91.1987 195.741 91.0914C195.563 90.9888 195.316 91.0385 195.202 91.2115L193.833 93.3151L192.677 93.3183L194.455 90.6508L194.484 90.3111L194.202 90.0949L190.924 89.4476L191.734 88.6578V88.6545L194.29 89.1848C194.502 89.2281 194.709 89.0999 194.757 88.9029C194.802 88.7026 194.663 88.504 194.458 88.4607L192.37 88.0297L192.375 88.0249L193.041 87.3745L193.043 87.3712L195.031 87.7814C195.24 87.8247 195.45 87.6981 195.494 87.4994C195.541 87.2992 195.404 87.1053 195.196 87.0588L193.675 86.7448L193.68 86.7416L194.35 86.0751L195.524 86.3187C195.736 86.3603 195.943 86.2337 195.989 86.0351C196.036 85.8364 195.901 85.6426 195.691 85.5945L194.984 85.4519L194.994 85.4423L195.63 84.8223C195.777 84.6749 195.777 84.4346 195.619 84.2952C195.475 84.1606 195.223 84.159 195.074 84.3112L194.531 84.8335L194.529 84.8351L194.435 84.4217C194.389 84.2231 194.179 84.0981 193.97 84.1382C193.758 84.1814 193.626 84.3769 193.67 84.5771L193.877 85.4936L193.211 86.1472L193.206 86.1601V86.1616L192.928 84.936C192.88 84.7374 192.675 84.6092 192.463 84.6524C192.25 84.6957 192.117 84.8912 192.16 85.0914L192.55 86.7961L192.543 86.8009L191.74 87.5779V87.5811L191.256 85.4679C191.214 85.2693 191.004 85.1443 190.795 85.1859C190.584 85.2292 190.448 85.4247 190.495 85.6233L191.09 88.2348L191.089 88.238L190.246 89.0615L189.636 86.0751C189.587 85.8332 189.239 85.6986 189.028 85.8428L186.392 87.5923V86.4436L188.739 84.952C188.917 84.8399 188.966 84.6124 188.844 84.4426C188.726 84.2743 188.483 84.2263 188.304 84.3432L186.407 85.5448L186.409 85.5416L186.399 84.4554V84.449L187.929 83.4765C188.109 83.3627 188.156 83.1336 188.036 82.9622C187.917 82.7956 187.673 82.7507 187.494 82.8629L186.392 83.563L186.399 83.5502V82.6402L186.4 82.6386L187.221 82.1163C187.402 82.0025 187.448 81.775 187.327 81.6052C187.209 81.4386 186.965 81.3923 186.788 81.5043L186.414 81.7398H186.415L186.409 81.0043C186.41 80.7977 186.229 80.6343 186.026 80.6343C185.809 80.6313 185.634 80.804 185.631 81.0111L185.632 81.8712V81.884L185.019 81.5235C184.839 81.4192 184.593 81.4706 184.48 81.6437C184.368 81.8183 184.424 82.0442 184.607 82.1531L185.631 82.7491L185.626 83.6671V83.6751L184.302 82.9013C184.119 82.8004 183.878 82.8484 183.761 83.0215C183.651 83.1961 183.707 83.4236 183.89 83.531L185.621 84.5403V84.5435V85.4503L185.622 85.4567L183.804 84.3961C183.62 84.292 183.378 84.3448 183.265 84.5179C183.153 84.6893 183.209 84.9184 183.392 85.0241L185.621 86.3218V86.3251V87.4241L182.785 85.7371L182.425 85.7114L182.195 85.9742L181.519 89.0615L180.686 88.3005L181.246 85.8861C181.291 85.689 181.156 85.4904 180.946 85.4471C180.736 85.4038 180.527 85.5288 180.481 85.7291L180.027 87.6933L179.337 87.0636L179.33 87.062L179.763 85.1892C179.805 84.9889 179.673 84.7918 179.463 84.7502C179.251 84.7053 179.044 84.8303 178.996 85.0321L178.669 86.4596L177.963 85.8236L177.961 85.8204L178.213 84.7213C178.257 84.5211 178.125 84.3272 177.915 84.2824C177.703 84.2391 177.496 84.3641 177.449 84.5611L177.296 85.2228L177.293 85.2196L176.625 84.6156C176.481 84.4794 176.229 84.4778 176.081 84.6268C175.932 84.7774 175.93 85.0161 176.091 85.1587L176.651 85.6586L176.654 85.6602L176.208 85.7515C175.996 85.7948 175.862 85.9918 175.908 86.1905L176.144 86.4564L176.373 86.4757L177.327 86.2818V86.285L178.034 86.9179L176.751 87.1774C176.542 87.2207 176.406 87.4161 176.452 87.6148L176.688 87.8823L176.915 87.8984L178.719 87.5331L179.554 88.2941L179.558 88.2973L177.315 88.7539C177.105 88.7955 176.971 88.9926 177.015 89.1929L177.252 89.4572L177.479 89.478L180.249 88.9125L181.12 89.72L177.947 90.2791L177.666 90.5066L177.701 90.8543L179.568 93.352L178.341 93.344L176.771 91.1346C176.651 90.968 176.408 90.9232 176.229 91.0337C176.051 91.1475 176.003 91.3766 176.123 91.5464L177.395 93.3376L176.24 93.352L175.206 91.8989C175.088 91.7306 174.845 91.6874 174.666 91.7995C174.486 91.9117 174.439 92.1408 174.559 92.3138L175.291 93.344H175.288L174.315 93.3376L173.771 92.5701C173.65 92.4003 173.406 92.357 173.227 92.4692C173.047 92.5829 173.001 92.8105 173.12 92.9803L173.376 93.344H173.369L172.596 93.3343C172.381 93.3311 172.205 93.5042 172.208 93.6964C172.205 93.9015 172.383 94.0793 172.591 94.0649L173.518 94.0729L173.14 94.6513C173.028 94.8259 173.086 95.0518 173.267 95.1608L173.328 95.188C173.503 95.2537 173.706 95.1944 173.808 95.0406L174.439 94.0697H174.44L175.417 94.0745L174.598 95.329C174.486 95.5036 174.544 95.7311 174.725 95.8401L174.784 95.8673C174.959 95.933 175.162 95.8737 175.266 95.7183L176.334 94.0793H176.34H177.301L176.181 95.8016C176.068 95.9747 176.127 96.2022 176.308 96.3095L176.366 96.3367C176.542 96.4024 176.744 96.3431 176.846 96.1909L178.222 94.0761L179.391 94.0793L177.593 96.7549L177.566 97.0929L177.844 97.3124L181.108 97.9533L180.313 98.7463L177.757 98.216C177.547 98.1728 177.339 98.3009 177.293 98.5028C177.247 98.6999 177.383 98.9033 177.591 98.9402L179.673 99.3712L179.008 100.031L177.02 99.6195C176.808 99.5794 176.6 99.7044 176.552 99.9015C176.507 100.103 176.644 100.304 176.852 100.344L178.368 100.654L177.7 101.318L177.693 101.324L176.525 101.085C176.313 101.041 176.105 101.167 176.057 101.366C176.013 101.566 176.149 101.766 176.356 101.806L177.057 101.951L176.417 102.582C176.269 102.732 176.274 102.957 176.432 103.096L176.551 103.175L176.974 103.096L177.52 102.561L177.613 102.979L177.851 103.243L178.079 103.263C178.29 103.221 178.424 103.024 178.38 102.824L178.173 101.911L178.849 101.266L179.122 102.465L179.359 102.731L179.586 102.748C179.798 102.705 179.932 102.508 179.885 102.309L179.502 100.608L179.503 100.606L180.308 99.8182L180.788 101.933L181.027 102.197L181.256 102.217C181.466 102.173 181.6 101.976 181.556 101.778L180.959 99.1693L181.8 98.3458L182.412 101.334L182.651 101.6L183.019 101.564L185.654 99.8133V100.96L183.312 102.446C183.132 102.561 183.083 102.79 183.203 102.958L183.381 103.096L183.746 103.059L185.644 101.854L185.648 102.949V102.955L184.119 103.924C183.941 104.04 183.893 104.269 184.014 104.439L184.19 104.575L184.554 104.54L185.632 103.854L185.648 104.762L184.826 105.283C184.648 105.398 184.6 105.629 184.72 105.797L184.9 105.933L185.263 105.898L185.639 105.658L185.641 106.404L185.883 106.736L186.026 106.757C186.243 106.76 186.412 106.605 186.417 106.396L186.419 105.523V105.52L187.031 105.877C187.214 105.99 187.455 105.93 187.568 105.759C187.682 105.583 187.624 105.357 187.441 105.249L186.422 104.657V104.647L186.429 103.729L187.749 104.5C187.926 104.61 188.173 104.552 188.285 104.379C188.4 104.205 188.341 103.979 188.158 103.872L186.424 102.862L186.432 101.951L188.246 103.006C188.426 103.115 188.672 103.059 188.785 102.886C188.899 102.71 188.839 102.482 188.656 102.375L186.427 101.079L186.439 99.9864L189.261 101.669L189.622 101.693L189.85 101.431L190.521 98.3266L191.367 99.0908L190.804 101.515C190.763 101.693 190.865 101.869 191.038 101.935L191.102 101.954C191.312 101.997 191.523 101.872 191.568 101.672L192.024 99.6948L192.718 100.328L192.723 100.332L192.287 102.212C192.246 102.39 192.348 102.567 192.523 102.635L192.587 102.651C192.797 102.696 193.006 102.571 193.053 102.37L193.384 100.93L193.385 100.933L194.089 101.566L194.09 101.568L193.835 102.68C193.792 102.859 193.897 103.035 194.07 103.103L194.136 103.122C194.346 103.162 194.555 103.037 194.601 102.837L194.753 102.175L195.428 102.777C195.572 102.913 195.824 102.915 195.972 102.764C196.114 102.627 196.114 102.388 195.957 102.247Z" fill="#FC979B"/>
<path d="M132.624 23.2338L129.425 21.3319L129.439 18.6145L130.346 18.632L130.693 18.5045L131.318 17.8617L133.395 19.7379L132.624 23.2338ZM125.542 23.0893L124.848 19.6979L126.694 17.8811L127.344 18.4606L127.481 18.5488L127.644 18.5764L128.536 18.5846L128.53 21.1028L125.542 23.0893ZM120.336 18.5475L122.351 15.5242L125.224 15.5373L125.201 16.4103L125.357 16.729L126.022 17.3121L124.036 19.278L120.336 18.5475ZM120.492 11.8537L124.074 11.2159L124.098 11.2066L126.009 12.9289L125.39 13.5566L125.267 13.842L125.251 14.7005L122.593 14.6799L120.492 11.8537ZM125.297 6.93648L128.477 8.83035L128.473 11.5701L127.567 11.554L127.222 11.6791L126.603 12.3087L124.524 10.4293L125.297 6.93648ZM132.377 7.08115L133.07 10.4712L131.241 12.2943L130.574 11.711L130.274 11.5958L129.368 11.5796L129.389 9.06746L132.377 7.08115ZM137.581 11.6227L135.57 14.6449L132.696 14.6336L132.713 13.775L132.555 13.4589L131.889 12.8725L133.901 10.9006L137.581 11.6227ZM131.755 16.1525L131.269 16.6457L130.652 17.2771L130.167 17.7721L129.453 17.759L128.547 17.7415L127.831 17.7271L127.307 17.2691L126.641 16.6838L126.118 16.2277L126.132 15.5498L126.149 14.6943L126.165 14.0185L126.649 13.5235L127.269 12.8951L127.752 12.4L128.465 12.4132L129.375 12.4289L130.088 12.4433L130.616 12.9013L131.277 13.4847L131.802 13.9427L131.788 14.6193L131.769 15.4747L131.755 16.1525ZM135.32 15.5067L137.43 18.3154L133.84 18.9707L131.913 17.2415L132.531 16.6119L132.653 16.3302L132.67 15.4697L135.31 15.4841L135.32 15.5067ZM140.43 24.9604L139.779 24.3822L139.772 24.3759L140.294 24.2702C140.539 24.2189 140.695 23.9948 140.642 23.7639C140.589 23.5329 140.349 23.3877 140.105 23.4372L138.998 23.6612L138.183 22.9278V22.9258L139.666 22.6248C139.908 22.5755 140.068 22.3495 140.013 22.1185C139.962 21.8894 139.721 21.7406 139.478 21.7918L137.387 22.2163L136.443 21.3287L139.016 20.8049C139.259 20.7518 139.413 20.5276 139.362 20.2967C139.309 20.0665 139.069 19.9219 138.825 19.9701L135.647 20.6172L134.622 19.6916L138.291 19.0314L138.618 18.7685L138.574 18.366L136.412 15.5005L137.82 15.4841L139.644 18.0538L139.849 18.2109L140.271 18.1696C140.476 18.0394 140.532 17.7753 140.393 17.5781L138.918 15.5005H138.922L140.261 15.4986L141.451 17.1696L141.655 17.3285L142.076 17.2846C142.286 17.1539 142.338 16.891 142.201 16.6939L141.357 15.5078L142.477 15.5147L142.482 15.516L143.11 16.3972L143.318 16.5561L143.737 16.513C143.945 16.3828 143.999 16.1168 143.86 15.9228L143.568 15.5067L143.57 15.5078L144.462 15.5192C144.714 15.521 144.916 15.322 144.919 15.0836C144.922 14.8482 144.714 14.6574 144.479 14.6574L143.409 14.6555H143.404L143.836 13.994C143.969 13.7907 143.903 13.531 143.691 13.4046C143.484 13.2894 143.199 13.345 143.067 13.5441L142.345 14.6512H142.34L141.214 14.6462L142.152 13.2093C142.284 13.0071 142.217 12.748 142.008 12.6229C141.8 12.5027 141.516 12.5635 141.383 12.7605L140.155 14.6449L140.145 14.6411H139.037L140.327 12.6641C140.457 12.4638 140.39 12.203 140.18 12.0764C139.976 11.9575 139.688 12.017 139.558 12.2161L137.977 14.6449L136.639 14.648L138.693 11.5684L138.726 11.1759L138.406 10.9243L134.618 10.1797L135.551 9.26468L135.553 9.26147L138.505 9.87173C138.749 9.92299 138.988 9.7772 139.043 9.54681C139.096 9.31787 138.935 9.09005 138.698 9.03879L136.287 8.54052L136.292 8.53556L137.061 7.78272L137.063 7.77951L139.357 8.2539C139.601 8.3034 139.842 8.15762 139.897 7.92851C139.948 7.69749 139.789 7.4703 139.551 7.42096L137.794 7.05855L137.8 7.0523L138.574 6.28313L139.932 6.5635C140.175 6.61301 140.413 6.46721 140.468 6.23811C140.52 6.00788 140.367 5.78182 140.124 5.73055L139.305 5.56217L139.317 5.55417L140.052 4.83946C140.221 4.66354 140.223 4.38941 140.039 4.226C139.872 4.07219 139.581 4.07092 139.409 4.24363L138.78 4.85067V4.85259L138.67 4.37692C138.618 4.14413 138.375 3.99834 138.133 4.0464C137.889 4.09463 137.735 4.32373 137.788 4.5546L138.026 5.61039V5.61168L137.257 6.36644L137.252 6.3839L136.928 4.96763C136.876 4.73548 136.637 4.59161 136.394 4.64095C136.148 4.68918 135.994 4.91828 136.045 5.14546L136.494 7.11624L136.487 7.1212L135.558 8.01791V8.02175L135.002 5.58284C134.949 5.35389 134.709 5.20794 134.466 5.25616C134.222 5.30567 134.067 5.5335 134.119 5.76068L134.808 8.7778L134.806 8.77892L133.835 9.73282L133.13 6.28313C133.072 6.00276 132.672 5.84767 132.426 6.01413L129.382 8.03425V6.71057V6.70929L132.092 4.98829C132.299 4.85884 132.354 4.59289 132.214 4.39759C132.075 4.20358 131.798 4.15102 131.589 4.28239L129.399 5.67112L129.401 5.66919L129.389 4.41313V4.40576L131.158 3.28235C131.364 3.15098 131.42 2.88486 131.281 2.68972C131.142 2.49442 130.864 2.44316 130.655 2.57453L129.382 3.38184V3.37992L129.389 3.3655L129.392 2.31787V2.31483L130.339 1.71211C130.548 1.58073 130.603 1.31654 130.462 1.1214C130.326 0.927386 130.045 0.874198 129.836 1.00237L129.409 1.27649V1.27473L129.401 0.426087C129.404 0.188812 129.195 -0.00200633 128.962 -8.37829e-05C128.709 -0.00328803 128.507 0.195061 128.502 0.432335L128.505 1.42741L128.504 1.44183L127.795 1.02688C127.589 0.909768 127.307 0.965523 127.176 1.16579C127.044 1.36605 127.109 1.62896 127.323 1.75409L128.504 2.44124L128.495 3.502V3.51018L126.967 2.61891C126.757 2.50067 126.476 2.55643 126.345 2.75846C126.214 2.95872 126.281 3.2197 126.492 3.34483L128.492 4.5115L128.491 4.51454L128.492 5.56041L128.493 5.5673L126.39 4.3444C126.181 4.226 125.9 4.28368 125.771 4.48395C125.639 4.68293 125.706 4.94519 125.916 5.06839L128.491 6.56863L128.489 6.57167L128.491 7.84344L125.218 5.8951L124.799 5.86321L124.534 6.1681L123.753 9.73282L122.791 8.85278L123.438 6.06668C123.492 5.83453 123.336 5.60848 123.094 5.55913C122.851 5.50899 122.609 5.65365 122.556 5.88452L122.031 8.15248L121.235 7.42721L121.225 7.424L121.725 5.26113C121.776 5.03026 121.622 4.80117 121.381 4.75182C121.134 4.70168 120.895 4.84747 120.841 5.07657L120.462 6.72884L119.648 5.99347L119.644 5.98962L119.935 4.72106C119.989 4.48891 119.834 4.26301 119.592 4.21174C119.347 4.16224 119.106 4.30611 119.054 4.53713L118.878 5.29942L118.875 5.2943L118.103 4.59465C117.936 4.44069 117.644 4.43892 117.473 4.61227C117.3 4.78674 117.3 5.06087 117.484 5.22557L118.133 5.80249L118.137 5.8057L117.62 5.90951C117.376 5.96094 117.221 6.18684 117.274 6.4177L117.547 6.72371L117.809 6.74438L118.909 6.52169L118.911 6.52537L119.728 7.25578L118.249 7.55682C118.004 7.60488 117.849 7.83206 117.901 8.06309L118.173 8.3691L118.438 8.38976L120.521 7.96857L121.483 8.84781L121.487 8.85165L118.898 9.37668C118.656 9.42794 118.501 9.65384 118.552 9.88487L118.825 10.1889L119.088 10.2115L122.288 9.55948L123.293 10.4919L119.629 11.139L119.302 11.4006L119.347 11.8024L121.501 14.6863L120.083 14.6799L118.271 12.1278C118.133 11.9338 117.854 11.8793 117.644 12.0107C117.438 12.1423 117.385 12.4063 117.523 12.6035L118.987 14.6686L117.657 14.6863L116.463 13.0103C116.327 12.815 116.046 12.7655 115.839 12.8951C115.632 13.0265 115.575 13.2907 115.716 13.4864L116.563 14.6768H116.561L115.434 14.6706L114.803 13.7825C114.665 13.5904 114.386 13.5379 114.177 13.6673C113.972 13.7987 113.917 14.0629 114.055 14.2588L114.353 14.6768H114.343L113.45 14.6667C113.198 14.6637 112.997 14.8639 113 15.0836C112.997 15.322 113.198 15.5291 113.441 15.5098L114.515 15.5192L114.078 16.1876C113.949 16.389 114.015 16.6489 114.227 16.7753L114.296 16.8091C114.495 16.8841 114.73 16.8153 114.848 16.6362L115.579 15.5179L115.581 15.516L116.705 15.5223H116.706L115.763 16.9723C115.632 17.1726 115.698 17.4342 115.91 17.5587L115.978 17.5906C116.178 17.6677 116.414 17.5988 116.533 17.4198L117.766 15.5261H117.776H118.883L117.59 17.5174C117.46 17.7176 117.525 17.9786 117.736 18.1039L117.806 18.1371C118.004 18.2127 118.239 18.142 118.357 17.9655L119.946 15.5242L121.298 15.5291L119.219 18.6164L119.186 19.0088L119.509 19.2616L123.28 20.0007L122.362 20.9189L119.41 20.308C119.166 20.2586 118.924 20.4025 118.873 20.6335C118.82 20.8637 118.974 21.0965 119.216 21.1411L121.622 21.6398L120.852 22.4021L118.557 21.9264C118.314 21.8763 118.074 22.024 118.021 22.2531C117.968 22.484 118.123 22.7131 118.365 22.7613L120.115 23.1199L119.343 23.8871L119.335 23.8953L117.986 23.6181C117.743 23.5686 117.501 23.7125 117.448 23.9448C117.395 24.1737 117.554 24.4048 117.792 24.4511L118.603 24.6182H118.601L117.864 25.3466C117.693 25.5211 117.698 25.7797 117.882 25.943L118.017 26.0312C118.184 26.095 118.377 26.0582 118.504 25.9412L119.135 25.3228L119.244 25.8066L119.518 26.1113L119.782 26.1333C120.025 26.0838 120.18 25.8579 120.128 25.6257L119.89 24.5699L120.67 23.8264L120.985 25.2121L121.258 25.52L121.523 25.5407C121.765 25.4912 121.922 25.2633 121.868 25.0342L121.424 23.0667L121.427 23.0636L122.355 22.1555L122.914 24.5969C122.945 24.7414 123.053 24.8534 123.187 24.9029L123.45 24.9242C123.693 24.874 123.847 24.65 123.796 24.4179L123.111 21.4038L124.079 20.4526L124.784 23.9035L125.062 24.2138L125.489 24.1724L128.53 22.1504V23.4741L125.822 25.1901C125.617 25.3208 125.561 25.5887 125.699 25.7827L125.906 25.9412L126.325 25.8979L128.518 24.5073L128.522 25.7715V25.7759L126.757 26.8993C126.549 27.0289 126.496 27.2948 126.635 27.4906L126.841 27.6491L127.262 27.6077L128.505 26.816L128.522 27.8655L127.575 28.4663C127.368 28.599 127.312 28.8638 127.452 29.0589L127.658 29.2191L128.076 29.1773L128.51 28.9019L128.514 29.7594C128.516 29.927 128.628 30.0798 128.796 30.1436L128.96 30.1711C129.212 30.1742 129.406 29.9928 129.411 29.7543L129.412 28.7417H129.414L130.117 29.1567C130.331 29.285 130.609 29.2174 130.741 29.0139C130.871 28.8136 130.804 28.5509 130.594 28.4275L129.416 27.7423L129.418 27.7309L129.425 26.6734L130.95 27.5608C131.155 27.6909 131.438 27.6234 131.569 27.4232C131.7 27.2216 131.634 26.96 131.422 26.8355L129.419 25.6701L129.427 24.6182L131.524 25.8372C131.732 25.9636 132.016 25.8979 132.145 25.6977C132.274 25.4974 132.208 25.2334 131.996 25.11L129.422 23.6117L129.439 22.3496L132.696 24.2908L133.113 24.3234L133.377 24.0186L134.15 20.4332L135.124 21.3155L134.477 24.1149C134.43 24.3195 134.548 24.5249 134.749 24.6018L134.823 24.6225C135.065 24.6726 135.307 24.5267 135.359 24.2977L135.888 22.016L136.685 22.7419L136.693 22.7482L136.192 24.9203C136.144 25.1257 136.262 25.3309 136.464 25.4061L136.537 25.4285C136.78 25.478 137.02 25.3322 137.073 25.1031L137.457 23.4403L137.458 23.4422L138.273 24.1757H138.275L137.977 25.4593C137.93 25.6688 138.051 25.8723 138.251 25.9492L138.326 25.9699C138.568 26.02 138.808 25.8742 138.862 25.6432L139.037 24.8772L139.815 25.5725C139.986 25.7296 140.277 25.7315 140.45 25.5568C140.612 25.3998 140.612 25.1225 140.43 24.9604Z" fill="#FC979B"/>
<path d="M312.268 80.9519L305.863 77.142L305.888 71.6964L307.707 71.73C307.969 71.7557 308.217 71.6275 308.402 71.4769L309.653 70.1872L313.817 73.9474L312.268 80.9519ZM298.081 80.6619L296.693 73.8673L300.394 70.2272L301.693 71.3872L301.966 71.565L302.293 71.6179L304.083 71.6339L304.073 76.6822L298.081 80.6619ZM287.651 71.5618L291.686 65.5026L297.445 65.5266L297.398 67.2777C297.418 67.5084 297.504 67.7616 297.71 67.9154L299.044 69.0865L295.062 73.0229L287.651 71.5618ZM287.96 58.1471L295.137 56.8703L295.184 56.8497L299.015 60.3024L297.774 61.5615C297.625 61.7249 297.532 61.9476 297.532 62.1298L297.494 63.8524L292.17 63.8091L287.96 58.1471ZM297.591 48.294L303.962 52.0877L303.959 57.5801L302.137 57.548C301.879 57.5237 301.64 57.6169 301.447 57.7997L300.21 59.062L296.045 55.297L297.591 48.294ZM311.78 48.5825L313.168 55.3802L309.5 59.03L308.168 57.8592C307.995 57.7209 307.797 57.6438 307.566 57.6294L305.746 57.5963L305.79 52.5653L311.78 48.5825ZM322.204 57.6858L318.173 63.7402L312.414 63.7194L312.448 61.9952C312.439 61.7374 312.343 61.5165 312.134 61.3645L310.8 60.1885L314.832 56.2344L322.204 57.6858ZM310.529 66.7602L309.559 67.7536L308.32 69.0112L307.349 70.0077L305.92 69.9789L304.101 69.9453L302.667 69.9164L301.618 68.9968L300.286 67.8289L299.233 66.9109L299.264 65.557L299.298 63.838L299.328 62.4859L300.301 61.4928L301.537 60.2329L302.51 59.2416L303.942 59.2686L305.761 59.2972L307.19 59.328L308.244 60.246L309.575 61.417L310.625 62.3369L310.595 63.6874L310.559 65.4065L310.529 66.7602ZM317.673 65.4657L321.901 71.0988L314.709 72.4093L310.848 68.9455L312.083 67.6847C312.219 67.5533 312.312 67.329 312.327 67.1175L312.363 65.3936L317.655 65.4225L317.673 65.4657ZM327.913 84.4124L326.613 83.2541L326.599 83.2413L327.642 83.0266C328.131 82.9305 328.443 82.4739 328.337 82.0157C328.233 81.5542 327.75 81.2611 327.264 81.3572L325.047 81.8106L323.413 80.3382L323.409 80.3366L326.386 79.7326C326.872 79.6317 327.186 79.1783 327.077 78.7169C326.975 78.2571 326.494 77.9591 326.008 78.0616L321.816 78.9092L319.921 77.1324L325.079 76.083C325.567 75.9821 325.879 75.5255 325.774 75.0672C325.669 74.6042 325.187 74.3159 324.702 74.4104L318.329 75.7081L316.273 73.8545L323.628 72.5327C323.916 72.4926 324.158 72.2908 324.282 72.0056C324.387 71.7525 324.365 71.4481 324.196 71.2013L319.862 65.4545L322.684 65.4257L326.34 70.5749C326.445 70.7191 326.591 70.8248 326.753 70.8873C327.021 70.9915 327.337 70.969 327.594 70.804C328.008 70.5413 328.118 70.0093 327.84 69.62L324.884 65.4577L324.891 65.4561L327.574 65.4545L329.96 68.8013C330.065 68.9487 330.21 69.0577 330.372 69.1186C330.64 69.2195 330.957 69.1987 331.215 69.0337C331.632 68.7709 331.74 68.2406 331.46 67.8481L329.771 65.4705L332.018 65.4834L332.028 65.4866L333.286 67.2553C333.394 67.3995 333.54 67.5084 333.702 67.5693C333.97 67.6719 334.284 67.6494 334.541 67.4876C334.955 67.2233 335.066 66.6946 334.784 66.302L334.202 65.4689L334.206 65.4705L335.994 65.4914C336.498 65.4978 336.902 65.0988 336.911 64.623C336.918 64.1488 336.498 63.7659 336.026 63.7691L333.886 63.7643H333.874L334.74 62.4345C335.002 62.0309 334.87 61.5083 334.445 61.2568C334.035 61.0214 333.464 61.1353 333.198 61.5359L331.752 63.7563L331.742 63.7531L329.486 63.7434L331.364 60.8644C331.628 60.4626 331.494 59.937 331.071 59.6885C330.659 59.4462 330.091 59.5664 329.825 59.9669L327.36 63.7434L327.342 63.7354H325.126L327.706 59.7735C327.97 59.3711 327.835 58.8454 327.411 58.5945C327.001 58.3573 326.428 58.4744 326.167 58.8762L322.996 63.7434L320.318 63.7482L324.438 57.5769C324.58 57.3365 324.586 57.0469 324.501 56.7902C324.377 56.5211 324.153 56.3271 323.855 56.287L316.265 54.7925L318.138 52.9615L318.143 52.9546L324.055 54.1786C324.545 54.28 325.026 53.9884 325.135 53.5285C325.238 53.0653 324.921 52.6072 324.443 52.5095L319.611 51.5114L319.621 51.5013L321.163 49.9924L321.167 49.9862L325.765 50.9313C326.253 51.0338 326.736 50.7422 326.842 50.279C326.948 49.8191 326.63 49.366 326.153 49.2622L322.633 48.5374L322.645 48.5268L324.196 46.9884L326.913 47.5474C327.403 47.6469 327.882 47.3571 327.989 46.8939C328.096 46.4339 327.787 45.9821 327.299 45.8764L325.662 45.5416L325.686 45.5209L327.155 44.0915C327.496 43.7411 327.498 43.1916 327.13 42.863C326.796 42.5539 326.213 42.552 325.867 42.9013L324.609 44.1128L324.606 44.116L324.387 43.161C324.28 42.6997 323.797 42.4062 323.313 42.5057C322.823 42.6033 322.516 43.0583 322.619 43.5214L323.101 45.638L321.553 47.1499L321.545 47.1857L320.899 44.3512C320.792 43.8882 320.314 43.5934 319.824 43.6948C319.338 43.7936 319.026 44.2474 319.129 44.7086L320.026 48.6545L320.012 48.6644L318.155 50.4618L318.151 50.4681L317.034 45.5816C316.933 45.1223 316.45 44.8307 315.963 44.9283C315.473 45.0271 315.166 45.4828 315.268 45.9408L316.648 51.9839L316.646 51.9901L314.697 53.8969L313.283 46.9835C313.171 46.4227 312.365 46.1135 311.875 46.4471L305.776 50.4956L305.778 47.8409V47.8358L311.209 44.3912C311.622 44.1285 311.732 43.6003 311.454 43.206C311.176 42.8199 310.615 42.7109 310.198 42.9769L305.808 45.7593L305.812 45.755L305.793 43.2398V43.2234L309.334 40.9725C309.749 40.7083 309.859 40.1764 309.581 39.7851C309.303 39.3928 308.742 39.292 308.327 39.553L305.779 41.1727V41.1695L305.793 41.1389L305.796 39.0372V39.0355L307.698 37.8276C308.112 37.5615 308.22 37.0315 307.942 36.6403C307.666 36.2524 307.1 36.1454 306.688 36.4064L305.829 36.9545V36.9514L305.812 35.2479C305.82 34.7705 305.401 34.3911 304.93 34.3924C304.425 34.388 304.023 34.7867 304.015 35.2623L304.02 37.2538V37.2824L302.598 36.4527C302.184 36.2174 301.618 36.3293 301.35 36.7318C301.089 37.1354 301.222 37.658 301.65 37.9089L304.017 39.2889L304.001 41.4118V41.4292L300.937 39.6413C300.515 39.4053 299.955 39.5192 299.689 39.9229C299.43 40.3234 299.562 40.8491 299.988 41.0989L303.993 43.4332L303.99 43.4381L303.993 45.5385L303.995 45.5528L299.784 43.0983C299.364 42.8612 298.801 42.9801 298.538 43.3806C298.277 43.7811 298.41 44.3062 298.83 44.5546L303.99 47.5554L303.986 47.5636L303.99 50.1076L297.428 46.205C297.186 46.0385 296.879 46.0323 296.596 46.1456C296.347 46.2726 296.138 46.4854 296.064 46.7532L294.496 53.8969L292.572 52.1359L293.864 46.5511C293.969 46.0898 293.66 45.6318 293.175 45.5321C292.687 45.4345 292.204 45.7261 292.096 46.1874L291.045 50.734L289.45 49.2777L289.43 49.2697L290.431 44.9364C290.535 44.4733 290.228 44.0165 289.74 43.9168C289.252 43.8193 288.772 44.1078 288.662 44.5708L287.901 47.8778L286.267 46.4053L286.262 46.4001L286.85 43.8531C286.951 43.3899 286.645 42.9381 286.156 42.8343C285.667 42.7348 285.189 43.0245 285.08 43.4863L284.731 45.0127L284.717 45.0052L283.175 43.6065C282.839 43.2923 282.256 43.2891 281.91 43.6365C281.568 43.9845 281.568 44.5372 281.934 44.8639L283.234 46.0222L283.241 46.0272L282.207 46.2399C281.717 46.3396 281.407 46.7944 281.512 47.2544C281.577 47.5429 281.788 47.7658 282.06 47.8666C282.219 47.9273 282.404 47.9467 282.585 47.9097L284.792 47.4641L284.799 47.4691L286.428 48.9336L283.466 49.5356C282.978 49.6351 282.663 50.0889 282.77 50.5501C282.838 50.8387 283.05 51.0626 283.316 51.1665C283.478 51.2261 283.661 51.2422 283.844 51.2065L288.019 50.3611L289.95 52.1247L289.953 52.1296L284.77 53.1854C284.28 53.2849 283.97 53.7399 284.075 54.2012C284.141 54.4897 284.353 54.7107 284.621 54.8132C284.784 54.8739 284.967 54.8933 285.15 54.8582L291.56 53.5509L293.572 55.4222L286.233 56.7151C285.931 56.784 285.685 56.9855 285.578 57.239C285.456 57.5237 285.484 57.8316 285.663 58.0482L289.982 63.8236L287.141 63.8091L283.511 58.6953C283.233 58.309 282.673 58.2003 282.256 58.463C281.843 58.7272 281.733 59.2561 282.009 59.6484L284.95 63.7899L282.278 63.8251L279.89 60.4657C279.614 60.0746 279.051 59.9738 278.636 60.2329C278.222 60.4958 278.11 61.0264 278.39 61.422L280.087 63.8059H280.083L277.827 63.7915L276.563 62.0135C276.285 61.6254 275.724 61.5197 275.308 61.7824C274.893 62.0453 274.785 62.5742 275.061 62.9666L275.656 63.8043H275.639L273.854 63.7883C273.347 63.7803 272.942 64.1792 272.947 64.623C272.942 65.1004 273.349 65.5122 273.834 65.4753L275.985 65.4946L275.108 66.8339C274.847 67.2361 274.98 67.7616 275.407 68.0115L275.544 68.0756C275.944 68.2294 276.415 68.0916 276.651 67.7311L278.114 65.4898L278.117 65.4882L280.373 65.501L280.377 65.4994L278.483 68.404C278.222 68.8062 278.354 69.3316 278.78 69.58L278.915 69.6441C279.317 69.7979 279.788 69.6601 280.026 69.2996L282.497 65.5074H282.517H284.739L282.143 69.4967C281.882 69.8972 282.014 70.4243 282.439 70.671L282.573 70.7367C282.978 70.8905 283.448 70.7495 283.683 70.3939L286.867 65.5026L289.574 65.5122L285.411 71.6996C285.268 71.9399 285.262 72.2347 285.346 72.4846C285.467 72.7538 285.709 72.9172 285.99 72.9925L293.548 74.4729L291.709 76.3121L285.792 75.0881C285.306 74.9871 284.824 75.2787 284.717 75.7418C284.611 76.2032 284.923 76.6694 285.407 76.7607L290.228 77.7556L288.689 79.284L284.085 78.3356C283.597 78.2363 283.117 78.5262 283.009 78.9861C282.904 79.4507 283.214 79.9105 283.7 80.0066L287.204 80.726L285.66 82.2624L285.643 82.2784L282.939 81.7209C282.449 81.6199 281.968 81.9131 281.86 82.373C281.756 82.836 282.07 83.299 282.551 83.3919L284.175 83.7235V83.7251L282.694 85.1863C282.348 85.5355 282.36 86.0546 282.727 86.3798L283.002 86.5577C283.338 86.6859 283.721 86.6122 283.977 86.3767L285.245 85.1398L285.462 86.1059C285.529 86.3959 285.741 86.6186 286.011 86.7195C286.17 86.782 286.351 86.798 286.536 86.7628C287.024 86.6634 287.336 86.21 287.233 85.7486L286.751 83.6338L288.319 82.1406L288.953 84.9187C289.016 85.2039 289.228 85.4298 289.496 85.5307C289.658 85.5916 289.84 85.6124 290.026 85.5756C290.514 85.4731 290.826 85.0196 290.719 84.5598L289.826 80.6202L289.831 80.6122L291.696 78.7922L292.813 83.6835C292.879 83.9735 293.091 84.1945 293.36 84.2971C293.521 84.358 293.704 84.3772 293.886 84.3436C294.374 84.241 294.686 83.7844 294.581 83.3246L293.206 77.2878L295.148 75.3781L296.564 82.296C296.633 82.5812 296.849 82.8119 297.116 82.9145C297.388 83.0154 297.71 82.9914 297.972 82.8328L304.071 78.781V81.4325L298.642 84.8755C298.232 85.1382 298.118 85.6701 298.396 86.0626C298.503 86.21 298.645 86.3158 298.808 86.3767C299.079 86.4792 299.389 86.4568 299.652 86.2917L304.045 83.5056L304.052 86.037V86.0498L300.515 88.296C300.101 88.5587 299.994 89.0907 300.271 89.4816C300.372 89.629 300.52 89.7379 300.683 89.7988C300.95 89.9013 301.267 89.8805 301.523 89.7139L304.02 88.1294L304.052 90.233L302.154 91.4394C301.74 91.7053 301.627 92.2356 301.91 92.6281C302.013 92.7739 302.157 92.8797 302.32 92.9422C302.588 93.0463 302.901 93.0239 303.162 92.862L304.032 92.3093L304.035 94.03C304.045 94.3648 304.264 94.6708 304.6 94.799L304.93 94.8503C305.435 94.8599 305.825 94.493 305.834 94.0156L305.839 91.9905L307.252 92.8156C307.678 93.0735 308.234 92.9389 308.498 92.5352C308.758 92.1347 308.625 91.6092 308.203 91.3593L305.846 89.9846V89.9638L305.861 87.8442L308.914 89.6257C309.331 89.8805 309.897 89.7507 310.159 89.3454C310.42 88.9432 310.288 88.4194 309.864 88.1694L305.852 85.8335L305.866 83.7219L310.07 86.1684C310.483 86.4231 311.054 86.2901 311.314 85.8896C311.575 85.4859 311.442 84.9588 311.019 84.712L305.859 81.7129L305.888 79.1815L312.415 83.0731C312.673 83.2061 312.966 83.2445 313.251 83.134C313.497 83.009 313.707 82.7927 313.78 82.5267L315.329 75.338L317.285 77.1068L315.983 82.7174C315.89 83.1275 316.126 83.5409 316.527 83.6915L316.677 83.7348C317.165 83.8357 317.648 83.5441 317.753 83.0827L318.812 78.5086L320.412 79.9682L320.428 79.9794L319.421 84.3307C319.324 84.7441 319.562 85.1526 319.963 85.308L320.112 85.3513C320.601 85.4506 321.08 85.1574 321.19 84.696L321.957 81.3652L321.96 81.3684L323.592 82.8376L323.594 82.8424L323.001 85.4138C322.906 85.8303 323.145 86.2373 323.546 86.3911L323.694 86.4343C324.182 86.5337 324.662 86.2421 324.772 85.7807L325.126 84.2442L326.687 85.6397C327.021 85.9553 327.604 85.9553 327.952 85.6076C328.277 85.292 328.277 84.7393 327.913 84.4124Z" fill="#FC979B"/>
<path d="M328.16 110.71C328.16 112.904 326.275 114.687 323.953 114.687C321.631 114.687 319.746 112.904 319.746 110.71C319.746 108.517 321.631 106.734 323.953 106.734C326.275 106.734 328.16 108.517 328.16 110.71Z" fill="#FC979B"/>
<path d="M55.7981 64.1153L47.6654 59.2751L47.696 52.3634L50.0079 52.4086C50.3385 52.436 50.6554 52.2757 50.891 52.083L52.4793 50.4447L57.7643 55.2203L55.7981 64.1153ZM37.7853 63.7466L36.0242 55.1177L40.721 50.4972L42.3703 51.971L42.7178 52.1956L43.1347 52.2615L45.4043 52.2871L45.3942 58.6937L37.7853 63.7466ZM24.5456 52.1907L29.6645 44.5005L36.9785 44.5312L36.9175 46.7529C36.9429 47.0445 37.0531 47.3681 37.3158 47.5621L39.0074 49.0503L33.9563 54.0456L24.5456 52.1907ZM24.9355 35.1599L34.0478 33.5371L34.1088 33.5134L38.9718 37.8949L37.3972 39.4958C37.2073 39.7035 37.0853 39.9857 37.0853 40.218L37.0429 42.4033L30.2849 42.3501L24.9355 35.1599ZM37.1615 22.6491L45.2552 27.4686L45.2484 34.439L42.9381 34.4021C42.6059 34.369 42.3059 34.4904 42.0601 34.7193L40.4854 36.3203L35.197 31.5409L37.1615 22.6491ZM55.1777 23.0176L56.9405 31.6466L52.2826 36.2814L50.5927 34.7951C50.3741 34.6186 50.1198 34.521 49.8283 34.5035L47.518 34.4616L47.5723 28.0705L55.1777 23.0176ZM68.4157 34.5735L63.2985 42.2637L55.9828 42.2319L56.0286 40.0483C56.015 39.718 55.893 39.4376 55.6286 39.2442L53.9352 37.7541L59.0525 32.7311L68.4157 34.5735ZM53.5929 46.0933L52.3589 47.3567L50.7843 48.9558L49.552 50.2188L47.7384 50.183L45.4297 50.1398L43.611 50.1029L42.2754 48.9382L40.5855 47.4532L39.2515 46.2854L39.2888 44.5694L39.3345 42.3858L39.3701 40.6679L40.6041 39.4075L42.1754 37.8097L43.4093 36.5493L45.2264 36.5844L47.535 36.6212L49.3503 36.6613L50.6927 37.826L52.3792 39.3112L53.7132 40.479L53.6743 42.195L53.6302 44.3784L53.5929 46.0933ZM62.6612 44.4542L68.0309 51.6024L58.8999 53.2671L53.9946 48.8725L55.5659 47.2704C55.7337 47.0989 55.8574 46.8173 55.8727 46.5481L55.9201 44.3629L62.6374 44.3967L62.6612 44.4542ZM75.6618 68.5099L74.0126 67.0379L73.9956 67.0215L75.3194 66.7506C75.9398 66.6261 76.3347 66.0471 76.2025 65.4646C76.0686 64.8793 75.4567 64.5076 74.8397 64.6278L72.0243 65.2049L69.9497 63.3349L69.9463 63.3317L73.7244 62.5663C74.3431 62.4393 74.7397 61.8629 74.6024 61.2778C74.4702 60.6931 73.8634 60.3165 73.243 60.4448L67.9224 61.5211L65.5172 59.2676L72.0667 57.9327C72.682 57.8043 73.0803 57.2281 72.9498 56.6415C72.8125 56.0564 72.2023 55.6897 71.5836 55.8099L63.4951 57.4583L60.8831 55.1033L70.2208 53.423C70.5886 53.3761 70.8938 53.1181 71.0514 52.7564C71.1887 52.4329 71.1565 52.0481 70.9429 51.7326L65.4392 44.438L69.0208 44.3997L73.6668 50.9397C73.7973 51.1217 73.9821 51.255 74.1889 51.3371C74.5279 51.4667 74.9346 51.4391 75.2584 51.2294C75.7838 50.8965 75.9245 50.2218 75.572 49.7268L71.8175 44.443L71.826 44.441L75.2347 44.438L78.2619 48.6886C78.3958 48.8757 78.5772 49.014 78.784 49.0891C79.1247 49.2205 79.5281 49.1916 79.8535 48.9834C80.3807 48.6498 80.5213 47.9769 80.1671 47.4788L78.0212 44.4585L80.8739 44.4748L80.8875 44.4798L82.4859 46.7228C82.6232 46.9086 82.8062 47.0445 83.0113 47.1246C83.3503 47.2529 83.752 47.2241 84.0775 47.0189C84.6063 46.6827 84.7453 46.0132 84.3911 45.5143L83.6452 44.4574L83.6537 44.4585L85.9216 44.4843C86.5641 44.4923 87.0759 43.986 87.0878 43.3822C87.0963 42.7782 86.5641 42.2945 85.9623 42.2975L83.2469 42.2913H83.23L84.3317 40.6041C84.6639 40.0897 84.4961 39.4262 83.9554 39.1109C83.4351 38.811 82.7096 38.9557 82.3757 39.4632L80.5366 42.2814L80.5231 42.2801L77.6619 42.2669L80.0467 38.6096C80.3807 38.0982 80.2112 37.4337 79.6722 37.1163C79.1501 36.8103 78.4263 36.9612 78.0907 37.4688L74.9634 42.2657L74.9397 42.2575H72.1226L75.4008 37.2252C75.733 36.714 75.5635 36.0462 75.0262 35.7269C74.5058 35.426 73.7803 35.5768 73.4464 36.0844L69.4208 42.2657L66.0223 42.2738L71.2497 34.4378C71.4311 34.1299 71.4395 33.7632 71.3294 33.4376C71.1751 33.0978 70.887 32.85 70.509 32.7987L60.8746 30.9L63.251 28.5757L63.2561 28.5675L70.7649 30.1233C71.387 30.2497 71.9972 29.8761 72.1328 29.2947C72.2684 28.7083 71.8616 28.1269 71.2599 28.0005L65.1206 26.7332L65.1341 26.7201L67.0936 24.8025L67.097 24.7963L72.9362 25.9991C73.5549 26.1273 74.1668 25.7588 74.3024 25.1724C74.4397 24.5859 74.0346 24.0109 73.4278 23.8794L68.9581 22.9601L68.9733 22.9426L70.9395 20.9912L74.3923 21.7021C75.0126 21.8274 75.6228 21.4587 75.7601 20.8723C75.894 20.2877 75.5008 19.7158 74.8838 19.5825L72.8057 19.1563L72.8329 19.1275L74.7007 17.3126C75.1363 16.8701 75.1363 16.1704 74.6668 15.7548C74.2448 15.3612 73.5024 15.3594 73.0684 15.8018L71.4684 17.3425L71.465 17.3464L71.187 16.1336C71.0514 15.547 70.4378 15.1766 69.8242 15.3018C69.2005 15.4238 68.8089 16.0003 68.9411 16.5884L69.553 19.2782L67.5919 21.199L67.575 21.2421L66.7546 17.6442C66.6224 17.0548 66.0138 16.6812 65.3952 16.8076C64.7731 16.9358 64.3799 17.5128 64.5087 18.0962L65.6494 23.1059L65.6325 23.1216L63.273 25.4014L63.2696 25.4096L61.8526 19.2076C61.7204 18.6199 61.1085 18.2513 60.4898 18.3746C59.8712 18.501 59.4745 19.078 59.6085 19.6613L61.3594 27.3353L61.356 27.3403L58.883 29.7659L57.0863 20.9863C56.9439 20.2746 55.9235 19.8841 55.2997 20.3021L47.5536 25.4446L47.557 22.0757V22.0688L54.4539 17.6937C54.9777 17.3621 55.1184 16.6874 54.7675 16.1911C54.4116 15.6992 53.6997 15.5615 53.1708 15.8963L47.5994 19.4322L47.6027 19.4242L47.5756 16.2312V16.2137L52.0724 13.3536C52.6013 13.0168 52.7403 12.3428 52.3877 11.8447C52.0335 11.349 51.3216 11.2195 50.7928 11.5512L47.5587 13.607V13.6033L47.5756 13.567L47.5807 10.8978V10.894L49.9961 9.35948C50.5215 9.02464 50.6605 8.35014 50.3029 7.8538C49.9554 7.36195 49.2384 7.22737 48.7147 7.55533L47.6197 8.25049L47.6231 8.24616L47.6027 6.0865C47.6112 5.47945 47.0807 4.9969 46.4823 4.99994C45.8399 4.99193 45.3281 5.4982 45.3196 6.10204L45.3281 8.63356L45.3247 8.67056L43.5178 7.61348C42.994 7.31501 42.2754 7.4608 41.9381 7.96899C41.6059 8.48023 41.7753 9.14608 42.3161 9.46346L45.3213 11.2144L45.3009 13.9111V13.9318L41.4109 11.6651C40.877 11.3641 40.1651 11.5079 39.8312 12.0193C39.4989 12.5299 39.6685 13.1966 40.2041 13.5119L45.2924 16.4796L45.2874 16.484L45.2924 19.1501L45.2941 19.1695L39.9464 16.0546C39.4159 15.7518 38.6989 15.9006 38.365 16.4107C38.0345 16.9183 38.2023 17.5867 38.7362 17.9022L45.2874 21.7122L45.284 21.7215L45.2874 24.9546L36.9564 19.9974C36.653 19.7858 36.2581 19.7784 35.9005 19.9204C35.5852 20.0844 35.3174 20.3534 35.2242 20.6927L33.2325 29.7641L30.7917 27.5274L32.4325 20.4367C32.5664 19.8516 32.1732 19.2702 31.5562 19.1438C30.9375 19.0185 30.3239 19.3872 30.1883 19.9718L28.8526 25.7474L26.8254 23.897L26.8017 23.8895L28.0747 18.3858C28.2035 17.8014 27.8153 17.2193 27.195 17.0929C26.5746 16.9678 25.9627 17.3352 25.8254 17.9228L24.8609 22.1202L22.7863 20.2509L22.7795 20.2427L23.5236 17.0115C23.6558 16.4232 23.2625 15.8481 22.6456 15.7167C22.0235 15.5916 21.415 15.9589 21.2777 16.5466L20.8353 18.4836L20.8217 18.4741L18.8606 16.6943C18.4318 16.3 17.6927 16.2949 17.2521 16.7374C16.8181 17.178 16.8164 17.8815 17.2842 18.2964L18.9335 19.7653L18.9437 19.7733L17.63 20.0392C17.0114 20.1676 16.613 20.744 16.7469 21.3291C16.8317 21.6941 17.0995 21.9781 17.4436 22.1058C17.6487 22.1859 17.8809 22.2072 18.1097 22.1621L20.9099 21.5951L20.9184 21.6026L22.9913 23.4633L19.2284 24.2273C18.6081 24.3518 18.2114 24.9289 18.3453 25.5134C18.4284 25.8807 18.7013 26.1656 19.0386 26.2957C19.2437 26.3728 19.4759 26.3945 19.7098 26.3471L25.0118 25.2731L27.461 27.5117L27.4678 27.518L20.8844 28.8623C20.2641 28.9874 19.8691 29.5639 20.0013 30.1502C20.0861 30.5157 20.3539 30.7961 20.698 30.9257C20.9031 31.0045 21.1336 31.0301 21.3675 30.9832L29.5086 29.3253L32.0613 31.6998L22.7422 33.342C22.3591 33.4296 22.0489 33.6842 21.9099 34.0085C21.7557 34.3702 21.7913 34.7564 22.0184 35.0318L27.5034 42.3664L23.8948 42.3488L19.286 35.8552C18.9318 35.3634 18.2233 35.2275 17.6928 35.5624C17.1673 35.8972 17.0283 36.5669 17.3792 37.0669L21.1133 42.3251L17.725 42.3695L14.6875 38.1045C14.3401 37.6064 13.6247 37.4787 13.0976 37.8097C12.5705 38.1432 12.4315 38.8161 12.7857 39.3162L14.9384 42.3458H14.935L12.0687 42.3283L10.4653 40.0709C10.111 39.5771 9.39912 39.4445 8.86858 39.7742C8.34483 40.109 8.20582 40.7805 8.55669 41.28L9.31435 42.3458H9.29063L7.02274 42.3201C6.38203 42.312 5.86675 42.8202 5.87353 43.3822C5.86675 43.9879 6.38371 44.513 6.99899 44.4654L9.73135 44.4912L8.61942 46.1877C8.2872 46.7003 8.455 47.3649 8.99401 47.6853L9.1703 47.7654C9.6805 47.9614 10.2771 47.7848 10.5772 47.3281L12.4349 44.483L12.4366 44.4811L15.3045 44.4974L15.3079 44.4955L12.9044 48.1834C12.5705 48.6936 12.7383 49.3594 13.2807 49.6768L13.4519 49.7586C13.9621 49.9527 14.5587 49.7793 14.8638 49.3213L18.0012 44.5067H18.0233H20.8438L17.5504 49.5698C17.2198 50.0773 17.3876 50.7488 17.9267 51.0642L18.0979 51.1474C18.6081 51.3403 19.2081 51.1605 19.5047 50.7106L23.5456 44.5005L26.9831 44.513L21.6963 52.3672C21.5184 52.6745 21.5082 53.0462 21.6167 53.3666C21.7675 53.7064 22.076 53.9149 22.4354 54.0075L32.0308 55.888L29.6967 58.2243L22.1811 56.6673C21.5658 56.542 20.9539 56.9139 20.8183 57.4983C20.6861 58.0866 21.0777 58.6762 21.6929 58.7932L27.8153 60.0574L25.8559 61.9974L20.0149 60.7928C19.3962 60.6657 18.786 61.0342 18.6504 61.6225C18.5097 62.2089 18.9098 62.7935 19.5284 62.9156L23.9745 63.8299L22.0133 65.7781L21.993 65.7994L18.5589 65.091C17.9402 64.9646 17.3267 65.333 17.1911 65.9196C17.0588 66.509 17.4572 67.0954 18.0674 67.2125L20.1319 67.635L20.1285 67.6367L18.247 69.4917C17.8114 69.9342 17.825 70.5944 18.2928 71.0075L18.6419 71.2335C19.0674 71.3968 19.5556 71.301 19.8793 71.0025L21.4862 69.4329L21.7625 70.6601C21.8472 71.0268 22.1184 71.3085 22.4608 71.4388C22.6642 71.5169 22.8947 71.5395 23.1286 71.4913C23.7456 71.3679 24.144 70.7897 24.0117 70.2034L23.3998 67.5198L25.3932 65.6229L26.1966 69.1507C26.2762 69.5143 26.5475 69.7996 26.8865 69.9292C27.0932 70.008 27.3221 70.0319 27.556 69.9855C28.178 69.856 28.5747 69.2802 28.4391 68.6975L27.3051 63.6941L27.3119 63.6829L29.6798 61.3723L31.0968 67.5823C31.1816 67.9492 31.4494 68.2313 31.7901 68.3628C31.9986 68.441 32.2291 68.4634 32.4613 68.4184C33.0783 68.289 33.4749 67.7138 33.341 67.1274L31.5952 59.4629L34.0648 57.0403L35.8615 65.8212C35.9496 66.1855 36.2225 66.4771 36.5632 66.6048C36.9039 66.7362 37.3158 66.7062 37.648 66.504L45.3908 61.3598V64.7242L38.4972 69.095C37.9751 69.4298 37.8328 70.1069 38.187 70.602C38.3209 70.7878 38.5006 70.9243 38.7091 71.0025C39.0515 71.1339 39.4498 71.1052 39.7803 70.8955L45.3603 67.3564L45.3671 70.5731V70.5863L40.877 73.4395C40.3499 73.7743 40.2125 74.4509 40.5634 74.9458C40.6939 75.1329 40.8821 75.2694 41.0906 75.3463C41.4279 75.4779 41.8313 75.4503 42.1584 75.2406L45.3281 73.2267L45.3671 75.9002L42.9585 77.4323C42.4313 77.7671 42.2889 78.4431 42.6466 78.9399C42.7788 79.127 42.9602 79.2616 43.1669 79.3385C43.5093 79.47 43.9059 79.4431 44.2365 79.236L45.3416 78.5344L45.3467 80.7197C45.3586 81.146 45.6382 81.5352 46.062 81.6986C46.1925 81.7449 46.3179 81.7931 46.4789 81.7643C47.123 81.7724 47.6163 81.3062 47.6282 80.7022L47.6332 78.1326L47.6366 78.1307L49.43 79.1802C49.969 79.5088 50.6792 79.3354 51.0131 78.8229C51.3419 78.3115 51.1758 77.6451 50.6402 77.3278L47.6417 75.5849L47.6434 75.558L47.6637 72.8662L51.5419 75.1286C52.0674 75.4533 52.7878 75.2869 53.12 74.7724C53.4522 74.2618 53.2844 73.5954 52.7471 73.2793L47.6519 70.3141L47.6705 67.6318L53.0064 70.7385C53.5352 71.0619 54.2573 70.8935 54.5878 70.3829C54.9167 69.8717 54.7489 69.202 54.2116 68.8898L47.6604 65.0785L47.6994 61.8661L55.9879 66.8081C56.3117 66.9784 56.6863 67.0247 57.0473 66.8839C57.3592 66.725 57.6287 66.4515 57.7185 66.113L59.683 56.9877L62.1696 59.2338L60.5203 66.357C60.3966 66.8777 60.6983 67.3996 61.2085 67.5949L61.395 67.6481C62.0136 67.7745 62.6272 67.4046 62.7628 66.8213L64.1087 61.0105L66.1393 62.8655L66.1579 62.8799L64.8799 68.4059C64.7578 68.9298 65.0579 69.4505 65.5698 69.6457L65.7579 69.7001C66.3783 69.8235 66.9868 69.4555 67.1241 68.8691L68.1004 64.6409L68.1038 64.6441L70.1751 66.5103L70.1802 66.5135L69.4276 69.7802C69.3072 70.3072 69.609 70.8266 70.1192 71.0206L70.3073 71.0783C70.9226 71.2015 71.5362 70.8317 71.6735 70.2464L72.1226 68.2952L74.1041 70.0656C74.5312 70.4661 75.272 70.4693 75.7127 70.0268C76.1262 69.625 76.1262 68.9216 75.6618 68.5099Z" fill="#FC979B"/>
<path d="M101.969 117.077L97.7437 114.563L97.7606 110.972L98.9624 110.995C99.1336 111.009 99.298 110.926 99.4183 110.825L100.244 109.974L102.991 112.458L101.969 117.077ZM92.6095 116.886L91.6959 112.402L94.1367 110.002L94.9927 110.767L95.1758 110.884L95.3893 110.92L96.569 110.932L96.5623 114.262L92.6095 116.886ZM85.7312 110.881L88.3924 106.886L92.1926 106.902L92.1603 108.057C92.1739 108.208 92.2315 108.375 92.3671 108.477L93.2468 109.25L90.6213 111.846L85.7312 110.881ZM85.9346 102.032L90.6687 101.19L90.7009 101.176L93.2248 103.454L92.4095 104.287L92.2485 104.662L92.2247 105.796L88.7127 105.769L85.9346 102.032ZM92.2875 95.5327L96.4911 98.0371L96.4894 101.658L95.2876 101.64C95.113 101.621 94.9588 101.685 94.8317 101.802L94.0147 102.635L91.2671 100.152L92.2875 95.5327ZM101.649 95.7235L102.564 100.208L100.144 102.618L99.2675 101.843L98.8692 101.693L97.6674 101.671L97.6962 98.3506L101.649 95.7235ZM108.527 101.726L105.866 105.724L102.066 105.708L102.09 104.572C102.085 104.403 102.02 104.255 101.881 104.155L101.003 103.382L103.661 100.772L108.527 101.726ZM100.825 107.714L100.183 108.369L99.3658 109.199L98.7251 109.857L97.7827 109.839L96.5826 109.817L95.6385 109.798L94.9435 109.191L94.0655 108.42L93.3723 107.813L93.3926 106.922L93.4146 105.788L93.435 104.894L94.0757 104.24L94.8927 103.409L95.5317 102.755L96.4758 102.773L97.6776 102.792L98.62 102.813L99.3166 103.419L100.193 104.191L100.888 104.796L100.868 105.689L100.844 106.823L100.825 107.714ZM105.536 106.861L108.326 110.577L103.581 111.442L101.034 109.156L101.849 108.326L102.01 107.951L102.032 106.813L105.524 106.833L105.536 106.861ZM112.292 119.36L111.433 118.596L111.424 118.588L112.114 118.447C112.438 118.382 112.639 118.081 112.572 117.778C112.502 117.476 112.185 117.282 111.863 117.346L110.4 117.644L109.322 116.673L109.321 116.671L111.283 116.273C111.605 116.207 111.81 115.908 111.741 115.604C111.671 115.301 111.356 115.104 111.034 115.172L108.27 115.731L107.02 114.558L110.424 113.868C110.744 113.799 110.949 113.499 110.88 113.196C110.81 112.892 110.495 112.7 110.173 112.762L105.97 113.619L104.615 112.395L109.465 111.522C109.654 111.498 109.812 111.365 109.895 111.176C109.965 111.006 109.948 110.806 109.839 110.644L106.98 106.855L108.843 106.835L111.255 110.231L111.526 110.437C111.702 110.506 111.912 110.492 112.082 110.385C112.355 110.21 112.427 109.857 112.244 109.601L110.293 106.856L110.299 106.855L112.07 106.853L113.643 109.063L113.912 109.271C114.092 109.338 114.3 109.324 114.468 109.215C114.743 109.042 114.816 108.693 114.633 108.432L113.517 106.864L114.999 106.873L115.006 106.876L115.838 108.04L116.109 108.248C116.289 108.316 116.495 108.3 116.665 108.194C116.936 108.022 117.009 107.672 116.826 107.411L116.44 106.863L116.443 106.864L117.624 106.878C117.955 106.882 118.221 106.62 118.229 106.306C118.233 105.991 117.955 105.739 117.643 105.743L116.231 105.739H116.224L116.794 104.862C116.968 104.596 116.88 104.25 116.601 104.086C116.331 103.929 115.953 104.005 115.78 104.269L114.823 105.732H114.816L113.329 105.727L114.57 103.825C114.743 103.559 114.655 103.213 114.377 103.048C114.106 102.89 113.728 102.968 113.553 103.234L111.927 105.726L111.916 105.72H110.453L112.156 103.104C112.329 102.84 112.241 102.492 111.96 102.329C111.692 102.172 111.312 102.249 111.139 102.513L109.048 105.726L107.281 105.729L110 101.656C110.092 101.499 110.099 101.307 110.041 101.139C109.958 100.961 109.809 100.831 109.614 100.807L104.608 99.8201L105.842 98.6105L105.846 98.6073L109.746 99.4165C110.07 99.4822 110.387 99.2863 110.46 98.9852C110.529 98.6812 110.317 98.3801 110.002 98.3144L106.815 97.6542L106.822 97.648L107.837 96.651L107.841 96.6479L110.875 97.2743C111.197 97.34 111.516 97.149 111.585 96.843C111.655 96.5377 111.444 96.241 111.131 96.1722L108.809 95.6929L108.815 95.6854L109.839 94.6709L111.633 95.0407C111.955 95.1063 112.27 94.913 112.341 94.6082C112.411 94.3053 112.209 94.0074 111.887 93.9386L110.807 93.7176L110.822 93.7034L111.79 92.7596C112.017 92.5287 112.019 92.165 111.775 91.9503C111.556 91.7457 111.168 91.7438 110.943 91.9748L110.112 92.7759H110.11L109.965 92.1463C109.893 91.8433 109.578 91.6493 109.256 91.715C108.936 91.7776 108.731 92.0767 108.8 92.3827L109.117 93.7816L108.097 94.7785L108.09 94.8003V94.8023L107.665 92.931C107.593 92.6269 107.278 92.431 106.958 92.4986C106.634 92.5642 106.429 92.8634 106.497 93.1683L107.09 95.7698L107.08 95.7767L105.853 96.9632L105.851 96.9671L105.115 93.7445C105.049 93.4405 104.73 93.2464 104.408 93.3108C104.085 93.3767 103.881 93.6776 103.947 93.9805L104.859 97.9684L104.858 97.9714L103.574 99.2307L102.641 94.6677C102.566 94.299 102.034 94.0938 101.712 94.3134L97.6861 96.9845L97.6894 95.2347V95.2316L101.271 92.9579C101.544 92.7852 101.615 92.4342 101.434 92.1762C101.251 91.9216 100.881 91.8495 100.607 92.0242L97.7098 93.8604L97.7132 93.8573L97.6996 92.1969V92.1876L100.035 90.7043C100.308 90.5278 100.381 90.1768 100.196 89.919C100.013 89.661 99.6438 89.5934 99.3692 89.7668L97.6894 90.8351V90.8338L97.6996 90.8133V89.427L97.7013 89.4257L98.9556 88.6259C99.2285 88.4532 99.3014 88.1039 99.1183 87.8425C98.9353 87.5895 98.5624 87.5176 98.2878 87.6903L97.7216 88.0507V88.0477L97.7132 86.9262C97.7166 86.612 97.4403 86.3623 97.1301 86.3623C96.7962 86.3592 96.5284 86.622 96.525 86.9355L96.5284 88.251L96.5267 88.2704L95.591 87.721C95.3181 87.5658 94.9435 87.639 94.7689 87.9037C94.5961 88.1709 94.6842 88.5171 94.9656 88.6804L96.525 89.5904L96.5165 90.9922V91.0035L94.4944 89.8245C94.2164 89.6692 93.8486 89.7443 93.674 90.009C93.5011 90.273 93.5892 90.6204 93.8689 90.7857L96.5114 92.3252L96.5097 92.3284L96.5114 93.7146L96.5131 93.724L93.7333 92.1062C93.4587 91.949 93.0858 92.0261 92.9129 92.2901C92.7383 92.5543 92.8282 92.9023 93.1045 93.0656L96.5097 95.0458L96.5063 95.0488L96.5097 96.7298L92.1824 94.1532C92.0213 94.0445 91.8179 94.0412 91.6332 94.1132C91.4671 94.1983 91.3315 94.3391 91.2823 94.5156L90.245 99.2275L88.9754 98.0659L89.8297 94.3823C89.8992 94.0781 89.6958 93.7772 89.3755 93.7114C89.0517 93.647 88.7347 93.8378 88.6635 94.142L87.9703 97.1428L86.916 96.1804L86.9042 96.1785L87.5635 93.3171C87.633 93.013 87.4296 92.71 87.1092 92.6444C86.7855 92.58 86.4702 92.7727 86.3973 93.0768L85.8956 95.2573L84.8176 94.2848L84.8125 94.2835L85.2007 92.6025C85.2702 92.2964 85.0651 92.0005 84.743 91.9316C84.4227 91.8659 84.1057 92.0561 84.0345 92.3609L83.804 93.3685L83.7955 93.3623L82.7785 92.4372C82.5565 92.2326 82.1717 92.2307 81.9446 92.4598C81.7158 92.6889 81.7141 93.0543 81.9581 93.2708L82.8158 94.0331L82.8209 94.038L82.1395 94.1758C81.8157 94.2415 81.6107 94.5426 81.6802 94.8455C81.7242 95.0376 81.8632 95.1834 82.0412 95.251L82.3887 95.2797L83.843 94.9831L83.8464 94.9862L84.9244 95.9543L82.9683 96.3531C82.6463 96.4175 82.4412 96.7154 82.5107 97.0215C82.5531 97.2117 82.6938 97.3575 82.87 97.4264L83.2192 97.4539L85.9736 96.8962L87.2465 98.0597L87.2482 98.0629L83.8294 98.7613C83.5074 98.825 83.3023 99.1248 83.3718 99.4277C83.4141 99.6198 83.5531 99.7669 83.7328 99.8326L84.082 99.8634L88.311 99.0016L89.6365 100.237L84.7939 101.087C84.5956 101.134 84.4362 101.267 84.3633 101.434C84.2837 101.623 84.3023 101.825 84.4193 101.967L87.2686 105.777L85.3939 105.767L82.9989 102.395C82.8158 102.138 82.448 102.068 82.1717 102.241C81.8971 102.417 81.8259 102.763 82.0073 103.023L83.9481 105.754L82.187 105.779L80.6106 103.563C80.4293 103.306 80.058 103.237 79.7818 103.409C79.5089 103.583 79.436 103.931 79.6207 104.192L80.7411 105.767H80.7377L79.2495 105.757L78.4156 104.583C78.2325 104.327 77.8613 104.258 77.5867 104.429C77.3138 104.604 77.2409 104.953 77.424 105.213L77.8172 105.766H77.8037L76.6274 105.753C76.2951 105.748 76.0273 106.012 76.029 106.306C76.0256 106.62 76.2951 106.892 76.6155 106.866L78.0325 106.881L77.4562 107.763C77.285 108.029 77.3715 108.375 77.6528 108.54L77.741 108.584C78.0071 108.684 78.319 108.593 78.4749 108.357L79.4377 106.876H79.4411L80.9293 106.884L80.931 106.882L79.6834 108.798C79.5089 109.064 79.597 109.412 79.8784 109.576L79.9682 109.619C80.2343 109.719 80.5428 109.63 80.7004 109.391L82.331 106.889H82.3446H83.8091L82.0971 109.519C81.9242 109.785 82.0141 110.131 82.292 110.297L82.3819 110.34C82.6463 110.44 82.9582 110.346 83.1124 110.111L85.2125 106.886L86.9991 106.892L84.2532 110.972C84.16 111.133 84.1549 111.327 84.2108 111.493C84.2905 111.668 84.4481 111.777 84.6345 111.827L89.6212 112.802L88.4076 114.017L84.5057 113.209C84.1837 113.143 83.8667 113.336 83.7955 113.64C83.726 113.944 83.9311 114.252 84.2498 114.311L87.4296 114.97L86.4143 115.978L83.3785 115.351C83.0548 115.286 82.7395 115.476 82.6683 115.782C82.5971 116.087 82.8039 116.391 83.1226 116.454L85.4346 116.929L84.4159 117.942L84.4057 117.951L82.6209 117.584C82.2988 117.519 81.9785 117.711 81.909 118.016C81.8395 118.32 82.0497 118.628 82.3666 118.686L83.4379 118.906L83.4362 118.908L82.4615 119.871C82.2327 120.103 82.2412 120.444 82.4836 120.657L82.6633 120.776C82.8853 120.859 83.1379 120.811 83.3074 120.656L84.143 119.84L84.2871 120.478C84.3294 120.668 84.4718 120.816 84.6481 120.882L84.9956 120.911C85.3159 120.846 85.521 120.547 85.4532 120.242L85.138 118.845L86.1719 117.862L86.5889 119.695C86.6312 119.882 86.7719 120.031 86.9465 120.099L87.2957 120.127C87.6211 120.061 87.8262 119.76 87.7567 119.458L87.1652 116.857L87.1686 116.852L88.3991 115.652L89.1365 118.88C89.1788 119.069 89.3178 119.215 89.4958 119.284L89.845 119.315C90.1653 119.248 90.3704 118.946 90.3026 118.643L89.3941 114.66L90.6772 113.401L91.6112 117.964C91.6552 118.151 91.7976 118.305 91.9773 118.373C92.1519 118.44 92.3671 118.424 92.54 118.318L96.5623 115.646V117.395L92.9807 119.666C92.7078 119.839 92.6349 120.19 92.818 120.447L93.0909 120.656C93.2706 120.725 93.4757 120.71 93.6469 120.6L96.5453 118.762L96.5504 120.433V120.441L94.2164 121.921C93.9452 122.098 93.8723 122.448 94.0537 122.705L94.3266 122.913C94.5045 122.98 94.713 122.968 94.8825 122.859L96.5284 121.812L96.5504 123.202L95.2995 123.996C95.0249 124.171 94.9503 124.522 95.1368 124.781L95.408 124.988C95.5859 125.057 95.791 125.04 95.9622 124.935L96.5351 124.57L96.5385 125.706C96.5453 125.927 96.6911 126.129 96.9114 126.213L97.1301 126.247C97.4623 126.253 97.72 126.01 97.725 125.696L97.7284 124.361V124.36L98.6607 124.905C98.9421 125.076 99.3099 124.986 99.4845 124.72C99.654 124.456 99.5675 124.109 99.2895 123.945L97.7318 123.036V123.022L97.742 121.623L99.759 122.801C100.032 122.968 100.405 122.883 100.578 122.615C100.752 122.351 100.664 122.003 100.383 121.841L97.7369 120.299L97.7471 118.906L100.518 120.518C100.795 120.688 101.169 120.6 101.34 120.334C101.513 120.068 101.425 119.72 101.146 119.557L97.742 117.578L97.7623 115.91L102.069 118.477C102.239 118.565 102.43 118.589 102.62 118.517C102.783 118.436 102.922 118.293 102.968 118.116L103.99 113.374L105.28 114.54L104.424 118.243C104.359 118.512 104.514 118.785 104.783 118.885L104.88 118.911C105.202 118.978 105.519 118.786 105.588 118.483L106.288 115.465L107.342 116.428L107.353 116.436L106.69 119.307C106.625 119.579 106.781 119.85 107.046 119.951L107.146 119.979C107.466 120.045 107.783 119.852 107.854 119.547L108.363 117.35L108.366 117.352L109.441 118.322L109.443 118.325L109.051 120.021C108.988 120.297 109.148 120.566 109.412 120.665L109.509 120.694C109.829 120.76 110.149 120.568 110.221 120.262L110.453 119.251L111.483 120.172C111.704 120.379 112.09 120.38 112.317 120.15C112.534 119.941 112.534 119.576 112.292 119.36Z" fill="#FC979B"/>
<path d="M235.064 107.411L234.113 107.582L233.166 106.64H234.54L235.064 107.411ZM233.615 108.616L232.901 108.154V106.927L233.796 107.816L233.615 108.616ZM231.686 108.685L231.501 107.787L232.499 106.892V108.193L231.686 108.685ZM230.413 107.315L230.899 106.64H232.199L231.257 107.488L230.413 107.315ZM230.337 105.493L231.286 105.32L232.233 106.261H230.86L230.337 105.493ZM231.788 104.288L232.499 104.747V105.977L231.605 105.085L231.788 104.288ZM233.716 104.216L233.898 105.113L232.901 106.009V104.71L233.716 104.216ZM234.988 105.586L234.501 106.261H233.201L234.144 105.416L234.988 105.586ZM237.273 105.927L236.969 105.677L236.43 106.261H235.903L236.417 105.546L236.084 105.335L235.418 106.261H234.988L235.488 105.568L235.51 105.392L235.364 105.277L234.496 105.099L234.81 104.819L235.966 105.059L236.052 104.687L235.161 104.503L235.542 104.159L236.361 104.231L236.396 103.854L235.93 103.814L236.4 103.391L236.122 103.116L235.647 103.543L235.522 103.007L235.13 103.084L235.306 103.849L234.888 104.226L234.696 103.382L234.305 103.462L234.547 104.532L234.244 104.806L234.054 103.87L233.935 103.732L233.749 103.745L232.901 104.259V103.864L233.889 103.293L233.679 102.97L232.901 103.418V102.875L233.608 102.467L233.398 102.143L232.901 102.43V101.808H232.499V102.42L232.145 102.129L231.882 102.414L232.499 102.925V103.423L231.742 102.941L231.518 103.253L232.499 103.881V104.29L231.767 103.817L231.455 103.933L231.271 104.753L230.972 104.457L231.227 103.362L230.835 103.281L230.64 104.125L230.277 103.764L230.354 102.992L229.952 102.955L229.91 103.398L229.46 102.955L229.17 103.215L229.623 103.667L229.054 103.782L229.138 104.152L229.948 103.989L230.347 104.383L229.452 104.565L229.537 104.936L230.667 104.705L230.959 104.993L229.969 105.173L229.821 105.282L229.84 105.461L230.382 106.261H229.962L229.359 105.328L229.018 105.525L229.491 106.261H228.915L228.484 105.592L228.143 105.79L228.448 106.261H227.787V106.64H228.438L228.126 106.973L228.43 107.225L228.967 106.64H229.498L228.984 107.356L229.315 107.569L229.982 106.64H230.413L229.911 107.334L229.891 107.512L230.035 107.626L230.903 107.802L230.591 108.084L229.433 107.845L229.347 108.215L230.24 108.399L229.855 108.744L229.04 108.672L229.004 109.05L229.47 109.09L229.001 109.511L229.277 109.787L229.752 109.357L229.876 109.896L230.271 109.819L230.094 109.051L230.511 108.677L230.704 109.519L231.094 109.441L230.854 108.371L231.157 108.097L231.347 109.031L231.464 109.172L231.65 109.157L232.499 108.643V109.039L231.511 109.607L231.72 109.934L232.499 109.482V110.027L231.791 110.434L232.001 110.759L232.499 110.473V111.093L232.901 111.094V110.482L233.255 110.774L233.516 110.487L232.901 109.977V109.479L233.657 109.961L233.883 109.649L232.901 109.021V108.612L233.633 109.087L233.823 109.106L233.944 108.97L234.13 108.149L234.428 108.444L234.174 109.538L234.564 109.62L234.759 108.777L235.123 109.138L235.047 109.91L235.449 109.947L235.493 109.505L235.939 109.949L236.228 109.686L235.776 109.236L236.347 109.119L236.261 108.75L235.452 108.914L235.054 108.518L235.947 108.338L235.864 107.967L234.732 108.197L234.442 107.909L235.432 107.728L235.579 107.619L235.562 107.441L235.018 106.64H235.439L236.042 107.576L236.383 107.379L235.908 106.64H236.484L236.917 107.31L237.257 107.111L236.952 106.64H237.613V106.261H236.962L237.273 105.927Z" fill="#FC979B"/>
<path d="M179.82 32.8727C179.82 34.9486 178.037 36.6338 175.84 36.6338C173.644 36.6338 171.864 34.9486 171.864 32.8727C171.864 30.7962 173.644 29.114 175.84 29.114C178.037 29.114 179.82 30.7962 179.82 32.8727Z" fill="#FC979B"/>
</svg>
