<svg width="149" height="478" viewBox="0 0 149 478" fill="none" xmlns="http://www.w3.org/2000/svg">
<path d="M114.588 170.415L114.791 171.54L113.676 172.661L113.678 171.033L114.588 170.415ZM116.012 172.13L115.468 172.976H114.014L115.067 171.915L116.012 172.13ZM116.097 174.413L115.033 174.629L113.976 173.449H115.512L116.097 174.413ZM114.474 175.918L113.676 175.342L113.678 173.806L114.679 174.92L114.474 175.918ZM112.319 176.01L112.116 174.884L113.228 173.764V175.39L112.319 176.01ZM110.895 174.293L111.44 173.449H112.891L111.837 174.508L110.895 174.293ZM110.81 172.011L111.872 171.795L112.931 172.976H111.395L110.81 172.011ZM112.433 170.506L113.228 171.079V172.618L112.23 171.503L112.433 170.506ZM112.834 167.803L112.539 168.16L113.228 168.799V169.423L112.383 168.816L112.132 169.21L113.228 169.998V170.506L112.409 169.913L112.199 169.889L112.063 170.061L111.855 171.086L111.521 170.718L111.807 169.347L111.368 169.245L111.15 170.301L110.741 169.849L110.828 168.882L110.382 168.838L110.331 169.391L109.833 168.837L109.508 169.164L110.015 169.728L109.376 169.871L109.472 170.335L110.376 170.13L110.82 170.623L109.822 170.852L109.918 171.315L111.182 171.027L111.505 171.388L110.4 171.61L110.237 171.75L110.253 171.972L110.86 172.976H110.39L109.717 171.805L109.335 172.054L109.866 172.976H109.222L108.74 172.137L108.359 172.386L108.697 172.976H107.96V173.449H108.686L108.34 173.867L108.678 174.179L109.282 173.449H109.871L109.299 174.344L109.671 174.608L110.413 173.449H110.895L110.336 174.318C110.253 174.447 110.328 174.649 110.475 174.681L111.445 174.903L111.095 175.254L109.802 174.954L109.705 175.417L110.703 175.651L110.275 176.081L109.36 175.991L109.32 176.461L109.842 176.513L109.317 177.041L109.626 177.385L110.158 176.849L110.297 177.525L110.735 177.425L110.539 176.468L111.007 175.998L111.22 177.052L111.659 176.952L111.388 175.613L111.728 175.271L111.941 176.44L112.073 176.617L112.282 176.596L113.228 175.954V176.451L112.124 177.163L112.358 177.568L113.228 177.007V177.69L112.439 178.198L112.67 178.603L113.228 178.244V179.022H113.676L113.678 178.256L114.074 178.622L114.368 178.264L113.678 177.627V177.002L114.524 177.608L114.775 177.213L113.676 176.429L113.678 175.918L114.497 176.51L114.707 176.534L114.843 176.364L115.051 175.335L115.384 175.708L115.101 177.074L115.54 177.176L115.757 176.124L116.163 176.574L116.078 177.541L116.527 177.585L116.573 177.03L117.074 177.588L117.396 177.259L116.893 176.696L117.529 176.551L117.435 176.086L116.53 176.295L116.084 175.801L117.084 175.573L116.99 175.108L115.725 175.396L115.4 175.035L116.507 174.813L116.671 174.673L116.653 174.451L116.046 173.449H116.514L117.188 174.617L117.573 174.371L117.039 173.449H117.685L118.167 174.284L118.55 174.039L118.21 173.449H118.944V172.976H118.222L118.566 172.556L118.228 172.245L117.626 172.976H117.033L117.606 172.081L117.235 171.813L116.493 172.976H116.009L116.57 172.108L116.594 171.884L116.432 171.742L115.461 171.52L115.812 171.169L117.105 171.469L117.203 171.005L116.203 170.776L116.632 170.345L117.544 170.435L117.589 169.959L117.065 169.91L117.59 169.381L117.281 169.038L116.748 169.574L116.611 168.899L116.172 168.999L116.366 169.955L115.9 170.428L115.684 169.371L115.245 169.471L115.517 170.808L115.178 171.15L114.966 169.979L114.835 169.806L114.625 169.825L113.678 170.471V169.972L114.782 169.259L114.548 168.854L113.676 169.416L113.678 168.737L114.468 168.223L114.234 167.82L113.678 168.179V167.401H113.228V168.167L112.834 167.803Z" fill="#FC979B"/>
<path d="M72.7522 184.484L71.1036 187.252L68.7549 187.242L68.7677 186.455L68.6572 186.155L68.0996 185.614L69.7258 183.814L72.7522 184.484ZM72.6288 190.616L69.6905 191.215L68.1188 189.615L68.6203 189.054L68.6956 188.937L68.7164 188.793L68.7261 188.02L70.9065 188.023L72.6288 190.616ZM68.6956 195.12L66.0761 193.377L66.0874 190.891L66.8436 190.911L67.1191 190.774L67.6238 190.198L69.3252 191.916L68.6956 195.12ZM62.8975 194.986L62.3464 191.886L62.3368 191.864L63.8283 190.21L64.3731 190.749L64.6198 190.85L65.3632 190.867L65.3472 193.167L62.8975 194.986ZM58.6391 190.828L60.2797 188.072L62.654 188.074L62.6412 188.862L62.7469 189.159L63.2932 189.696L61.6671 191.494L58.6391 190.828ZM58.7672 184.694L61.7007 184.094L63.2788 185.682L62.7726 186.255L62.6748 186.516L62.6604 187.303L60.4863 187.282L58.7672 184.694ZM62.6973 180.189L65.3151 181.931L65.3039 184.419L64.5621 184.406L64.2882 184.541L63.7803 185.119L62.0708 183.375L62.6973 180.189ZM66.6177 185.235L67.0502 185.655L67.5918 186.187L68.0227 186.608L68.0099 187.226L67.9971 188.013L67.9843 188.631L67.5853 189.087L67.0823 189.66L66.6833 190.115L66.0986 190.101L65.3568 190.087L64.772 190.074L64.3442 189.654L63.7995 189.121L63.3701 188.699L63.383 188.082L63.3958 187.296L63.4086 186.679L63.8059 186.223L64.3106 185.648L64.7079 185.194L65.2943 185.208L66.0361 185.223L66.6177 185.235ZM66.0617 182.15L68.4938 180.323L69.0609 183.43L67.5645 185.097L67.0198 184.56L66.7731 184.458L66.0297 184.441L66.0425 182.157L66.0617 182.15ZM74.247 177.724L73.7455 178.285L73.7407 178.29L73.6494 177.843C73.6061 177.631 73.4091 177.497 73.2104 177.539C73.0101 177.585 72.8852 177.794 72.9268 178.004L73.1239 178.962L72.4878 179.668L72.4862 179.67L72.2251 178.384C72.1802 178.173 71.9864 178.039 71.7861 178.085C71.589 178.131 71.4609 178.336 71.5041 178.548L71.871 180.358L71.1036 181.175L70.647 178.948C70.6037 178.736 70.4083 178.604 70.2064 178.648C70.0094 178.694 69.8844 178.9 69.926 179.111L70.4868 181.865L69.6841 182.752L69.1122 179.575L68.8863 179.292L68.537 179.329L66.0553 181.201L66.0441 179.982L68.2678 178.404L68.4024 178.226L68.3672 177.861C68.2534 177.683 68.0243 177.636 67.8561 177.756L66.0585 179.031L66.0553 179.028V177.87L67.5004 176.838L67.6398 176.661L67.6014 176.297C67.4892 176.119 67.2601 176.072 67.0903 176.192L66.0633 176.921L66.0665 175.95L66.0697 175.944L66.8323 175.402L66.9685 175.222L66.9333 174.86C66.8195 174.68 66.5904 174.632 66.4206 174.753L66.0633 175.007V175.004L66.0697 174.232C66.0729 174.015 65.9015 173.839 65.6964 173.834C65.4914 173.832 65.3247 174.016 65.3263 174.219L65.3247 175.144V175.148L64.7496 174.773C64.5765 174.661 64.349 174.717 64.2417 174.9C64.1408 175.078 64.192 175.324 64.3635 175.439L65.3215 176.065V176.07L65.3167 177.043L64.0719 176.231C63.8956 176.119 63.6714 176.175 63.564 176.36C63.4599 176.536 63.5111 176.783 63.6842 176.897L65.3151 177.961L65.3119 177.972V178.928L63.5993 177.814C63.4278 177.7 63.1987 177.76 63.0914 177.939C62.9888 178.117 63.0385 178.365 63.2115 178.478L65.3151 179.848L65.3183 181.004L62.6508 179.226L62.3111 179.197L62.0949 179.478L61.4476 182.757L60.6578 181.946H60.6545L61.1848 179.39C61.2281 179.178 61.0999 178.972 60.9029 178.924C60.7026 178.878 60.504 179.017 60.4607 179.223L60.0297 181.311L60.0249 181.306L59.3745 180.64L59.3712 180.638L59.7814 178.65C59.8247 178.441 59.6981 178.231 59.4994 178.187C59.2992 178.139 59.1053 178.277 59.0588 178.485L58.7448 180.006L58.7416 180.001L58.0751 179.331L58.3187 178.156C58.3603 177.945 58.2337 177.738 58.0351 177.692C57.8364 177.645 57.6426 177.78 57.5945 177.99L57.4519 178.697L57.4423 178.687L56.8223 178.051C56.6749 177.904 56.4346 177.904 56.2952 178.061C56.1606 178.206 56.159 178.458 56.3112 178.607L56.8335 179.15L56.8351 179.151L56.4217 179.246C56.2231 179.292 56.0981 179.502 56.1382 179.711C56.1814 179.923 56.3769 180.055 56.5771 180.011L57.4936 179.804L58.1472 180.47L58.1601 180.475H58.1616L56.936 180.753C56.7374 180.801 56.6092 181.006 56.6524 181.218C56.6957 181.431 56.8912 181.563 57.0914 181.521L58.7961 181.131L58.8009 181.138L59.5779 181.941H59.5811L57.4679 182.424C57.2693 182.467 57.1443 182.677 57.1859 182.885C57.2292 183.097 57.4247 183.233 57.6233 183.185L60.2348 182.591L60.238 182.592L61.0615 183.435L58.0751 184.045C57.8332 184.094 57.6986 184.441 57.8428 184.653L59.5923 187.289H58.4436L56.952 184.941C56.8399 184.763 56.6124 184.714 56.4426 184.836C56.2743 184.955 56.2263 185.197 56.3432 185.377L57.5448 187.274L57.5416 187.272L56.4554 187.282H56.449L55.4765 185.752C55.3627 185.572 55.1336 185.525 54.9622 185.645C54.7956 185.764 54.7507 186.008 54.8629 186.187L55.563 187.289L55.5502 187.282H54.6402L54.6386 187.281L54.1163 186.46C54.0025 186.279 53.775 186.233 53.6052 186.353C53.4386 186.472 53.3923 186.716 53.5043 186.892L53.7398 187.267V187.265L53.0043 187.272C52.7977 187.27 52.6343 187.452 52.6343 187.655C52.6313 187.872 52.804 188.047 53.0111 188.05L53.8712 188.048H53.884L53.5235 188.662C53.4192 188.842 53.4706 189.087 53.6437 189.201C53.8183 189.313 54.0442 189.257 54.1531 189.074L54.7491 188.05L55.6671 188.055H55.6751L54.9013 189.379C54.8004 189.562 54.8484 189.803 55.0215 189.92C55.1961 190.03 55.4236 189.974 55.531 189.791L56.5403 188.06H56.5435H57.4503L57.4567 188.059L56.3961 189.877C56.292 190.06 56.3448 190.303 56.5179 190.416C56.6893 190.528 56.9184 190.472 57.0241 190.289L58.3218 188.06H58.3251H59.4241L57.7371 190.896L57.7114 191.255L57.9742 191.486L61.0615 192.162L60.3005 192.994L57.8861 192.435C57.689 192.389 57.4904 192.525 57.4471 192.735C57.4038 192.945 57.5288 193.154 57.7291 193.2L59.6933 193.654L59.0636 194.344L59.062 194.35L57.1892 193.918C56.9889 193.876 56.7918 194.008 56.7502 194.218C56.7053 194.43 56.8303 194.637 57.0321 194.684L58.4596 195.011L57.8236 195.718L57.8204 195.72L56.7213 195.467C56.5211 195.423 56.3272 195.556 56.2824 195.766C56.2391 195.978 56.3641 196.184 56.5611 196.232L57.2228 196.384L57.2196 196.388L56.6156 197.056C56.4794 197.2 56.4778 197.452 56.6268 197.6C56.7774 197.749 57.0161 197.751 57.1587 197.59L57.6586 197.03L57.6602 197.027L57.7515 197.473C57.7948 197.684 57.9918 197.818 58.1905 197.773L58.4564 197.537L58.4757 197.308L58.2818 196.354H58.285L58.9179 195.647L59.1774 196.93C59.2207 197.139 59.4161 197.274 59.6148 197.229L59.8823 196.993L59.8984 196.766L59.5331 194.962L60.2941 194.127L60.2973 194.123L60.7539 196.366C60.7955 196.576 60.9926 196.71 61.1929 196.666L61.4572 196.428L61.478 196.201L60.9125 193.432L61.72 192.561L62.2791 195.734L62.5066 196.015L62.8543 195.979L65.352 194.113L65.344 195.34L63.1346 196.91C62.968 197.03 62.9232 197.273 63.0337 197.452C63.1475 197.63 63.3766 197.678 63.5464 197.557L65.3376 196.286L65.352 197.44L63.8989 198.474C63.7306 198.593 63.6874 198.835 63.7995 199.015C63.9117 199.195 64.1408 199.242 64.3138 199.122L65.344 198.39V198.393L65.3376 199.366L64.5701 199.91C64.4003 200.03 64.357 200.274 64.4692 200.454C64.5829 200.634 64.8105 200.68 64.9803 200.561L65.344 200.305V200.312L65.3343 201.085C65.3311 201.3 65.5042 201.476 65.6964 201.473C65.9015 201.476 66.0793 201.298 66.0649 201.09L66.0729 200.163L66.6513 200.541C66.8259 200.652 67.0518 200.595 67.1608 200.413L67.188 200.352C67.2537 200.178 67.1944 199.974 67.0406 199.873L66.0697 199.242V199.24L66.0745 198.264L67.329 199.083C67.5036 199.195 67.7311 199.137 67.8401 198.956L67.8673 198.896C67.933 198.722 67.8737 198.518 67.7183 198.415L66.0793 197.347V197.34V196.379L67.8016 197.5C67.9747 197.613 68.2022 197.554 68.3095 197.373L68.3367 197.315C68.4024 197.139 68.3431 196.937 68.1909 196.835L66.0761 195.459L66.0793 194.289L68.7549 196.088L69.0929 196.115L69.3124 195.837L69.9533 192.572L70.7463 193.367L70.216 195.923C70.1728 196.134 70.3009 196.342 70.5028 196.388C70.6999 196.434 70.9033 196.298 70.9402 196.089L71.3712 194.008L72.0312 194.672L71.6195 196.661C71.5794 196.873 71.7044 197.081 71.9015 197.129C72.1033 197.174 72.3036 197.037 72.3436 196.829L72.6545 195.313L73.3177 195.981L73.3241 195.988L73.0854 197.156C73.0406 197.368 73.1671 197.576 73.3658 197.623C73.5661 197.668 73.7663 197.532 73.8064 197.325L73.9506 196.623L74.5818 197.264C74.7324 197.412 74.9567 197.407 75.0961 197.249L75.1746 197.13L75.0961 196.706L74.561 196.161L74.9791 196.067L75.2435 195.83L75.2627 195.601C75.2211 195.391 75.024 195.257 74.8237 195.301L73.9105 195.508L73.2665 194.832L74.4649 194.559L74.7308 194.322L74.7484 194.094C74.7052 193.883 74.5081 193.749 74.3095 193.796L72.608 194.179L72.6064 194.178L71.8182 193.372L73.933 192.893L74.1973 192.654L74.2165 192.425C74.1733 192.215 73.9762 192.081 73.7776 192.125L71.1693 192.722L70.3458 191.881L73.3338 191.269L73.5997 191.03L73.5645 190.662L71.8133 188.026H72.9605L74.4456 190.369C74.561 190.549 74.7901 190.598 74.9583 190.477L75.0961 190.299L75.0593 189.935L73.8545 188.037L74.9487 188.033H74.9551L75.9244 189.562C76.0397 189.74 76.2689 189.787 76.4387 189.667L76.5749 189.491L76.5396 189.126L75.8539 188.048L76.7623 188.033L77.283 188.855C77.3984 189.033 77.6291 189.081 77.7973 188.96L77.9335 188.781L77.8982 188.418L77.6579 188.042L78.4045 188.04L78.7361 187.798L78.7569 187.655C78.7602 187.438 78.6047 187.269 78.3965 187.264L77.5233 187.262H77.5201L77.8774 186.65C77.9895 186.467 77.9303 186.226 77.7588 186.113C77.5826 185.999 77.3567 186.057 77.2493 186.24L76.6566 187.259H76.6469L75.7289 187.252L76.4996 185.931C76.6101 185.755 76.5524 185.508 76.3794 185.396C76.2048 185.28 75.9789 185.34 75.8715 185.523L74.8622 187.257L73.9506 187.248L75.0064 185.435C75.1153 185.255 75.0592 185.009 74.8862 184.896C74.71 184.782 74.4825 184.841 74.3751 185.025L73.079 187.253L71.9864 187.242L73.6686 184.419L73.6926 184.058L73.4315 183.831L70.3266 183.16L71.0908 182.314L73.5148 182.877C73.6926 182.918 73.8689 182.816 73.9346 182.643L73.9538 182.579C73.997 182.368 73.8721 182.158 73.6718 182.113L71.6948 181.657L72.3276 180.963L72.3324 180.958L74.2117 181.394C74.3896 181.435 74.5674 181.333 74.6347 181.158L74.6507 181.094C74.6956 180.884 74.5706 180.675 74.3703 180.628L72.93 180.297L72.9332 180.295L73.5661 179.592L73.5677 179.59L74.6796 179.846C74.859 179.889 75.0352 179.784 75.1025 179.611L75.1217 179.545C75.1618 179.334 75.0368 179.126 74.8366 179.08L74.1749 178.928L74.7773 178.253C74.9135 178.109 74.915 177.856 74.7644 177.709C74.6267 177.567 74.388 177.567 74.247 177.724Z" fill="#FC979B"/>
<path d="M26.6942 425.691C29.0031 425.691 30.8742 427.671 30.8742 430.114C30.8742 432.555 29.0031 434.535 26.6942 434.535C24.3856 434.535 22.5132 432.555 22.5132 430.114C22.5132 427.671 24.3856 425.691 26.6942 425.691Z" fill="#FC979B"/>
<path d="M-4.76612 241.057L-6.668 244.255L-9.38536 244.242L-9.3679 243.335L-9.49543 242.987L-10.1382 242.363L-8.26195 240.286L-4.76612 241.057ZM-4.91063 248.138L-8.302 248.832L-10.1188 246.986L-9.53932 246.336L-9.45104 246.2L-9.42348 246.036L-9.41532 245.144L-6.8971 245.151L-4.91063 248.138ZM-9.45233 253.345L-12.4757 251.33L-12.4626 248.456L-11.5896 248.479L-11.2709 248.324L-10.6877 247.658L-8.72192 249.644L-9.45233 253.345ZM-16.1462 253.189L-16.784 249.607L-16.7933 249.583L-15.071 247.672L-14.4433 248.291L-14.1579 248.413L-13.2993 248.43L-13.32 251.088L-16.1462 253.189ZM-21.0634 248.383L-19.1695 245.203L-16.4297 245.207L-16.4459 246.113L-16.3208 246.459L-15.6912 247.078L-17.5706 249.157L-21.0634 248.383ZM-20.9187 241.303L-17.5286 240.61L-15.7056 242.44L-16.2889 243.106L-16.4041 243.406L-16.4203 244.313L-18.9324 244.291L-20.9187 241.303ZM-16.3772 236.099L-13.3549 238.111L-13.3663 240.984L-14.2249 240.968L-14.541 241.125L-15.1274 241.792L-17.0993 239.779L-16.3772 236.099ZM-11.8473 241.926L-11.3542 242.411L-10.7228 243.028L-10.2278 243.514L-10.2409 244.227L-10.2584 245.134L-10.2728 245.849L-10.7308 246.374L-11.3161 247.039L-11.7722 247.562L-12.4501 247.549L-13.3056 247.531L-13.9814 247.516L-14.4764 247.031L-15.1048 246.411L-15.5998 245.929L-15.5867 245.215L-15.571 244.306L-15.5566 243.593L-15.0985 243.064L-14.5152 242.403L-14.0571 241.878L-13.3806 241.893L-12.5252 241.911L-11.8473 241.926ZM-12.4932 238.36L-9.68448 236.25L-9.0292 239.841L-10.7584 241.767L-11.388 241.15L-11.6697 241.027L-12.5302 241.011L-12.5157 238.371L-12.4932 238.36ZM-3.0395 233.251L-3.61771 233.902L-3.62396 233.908L-3.72969 233.387C-3.78096 233.141 -4.00511 232.986 -4.23597 233.039C-4.467 233.092 -4.61215 233.331 -4.56264 233.575L-4.33867 234.683L-5.07212 235.497H-5.07405L-5.37508 234.014C-5.42443 233.773 -5.65033 233.613 -5.88136 233.668C-6.11046 233.719 -6.2593 233.959 -6.20803 234.203L-5.78362 236.293L-6.6712 237.238L-7.19493 234.664C-7.24813 234.421 -7.47226 234.267 -7.70313 234.319C-7.93335 234.371 -8.07803 234.611 -8.0298 234.855L-7.3827 238.033L-8.30825 239.059L-8.96849 235.389L-9.2314 235.063L-9.63385 235.107L-12.4994 237.268L-12.5157 235.861L-9.9461 234.037L-9.78893 233.831L-9.83027 233.41C-9.96052 233.204 -10.2246 233.148 -10.4218 233.287L-12.4994 234.762V234.758L-12.5013 233.42L-10.8303 232.229L-10.6714 232.026L-10.7153 231.604C-10.846 231.395 -11.1089 231.343 -11.306 231.48L-12.492 232.324L-12.4852 231.204L-12.4839 231.198L-11.6027 230.57L-11.4438 230.363L-11.4869 229.944C-11.6171 229.735 -11.8831 229.682 -12.0771 229.821L-12.4932 230.112L-12.492 230.11L-12.4807 229.219C-12.4789 228.967 -12.6779 228.765 -12.9163 228.762C-13.1516 228.758 -13.3424 228.967 -13.3424 229.202L-13.3444 230.271V230.277L-14.0059 229.844C-14.2092 229.712 -14.4689 229.778 -14.5953 229.99C-14.7105 230.196 -14.6549 230.482 -14.4558 230.614L-13.3487 231.336V231.341L-13.3537 232.466L-14.7906 231.528C-14.9928 231.397 -15.2519 231.463 -15.377 231.673C-15.4971 231.88 -15.4364 232.165 -15.2394 232.297L-13.3549 233.526L-13.3588 233.535V234.643L-15.3358 233.353C-15.5361 233.223 -15.7969 233.29 -15.9235 233.5C-16.0423 233.704 -15.9829 233.992 -15.7838 234.123L-13.3549 235.704L-13.3519 237.041L-16.4315 234.987L-16.824 234.954L-17.0756 235.275L-17.8202 239.063L-18.7352 238.129L-18.7384 238.127L-18.1282 235.175C-18.0769 234.931 -18.2227 234.693 -18.4531 234.638C-18.682 234.585 -18.9098 234.745 -18.9611 234.982L-19.4594 237.394L-19.4643 237.389L-20.2172 236.62L-20.2204 236.618L-19.746 234.323C-19.6965 234.08 -19.8423 233.839 -20.0714 233.784C-20.3024 233.733 -20.5296 233.892 -20.5789 234.129L-20.9413 235.886L-20.9476 235.881L-21.7167 235.107L-21.4364 233.749C-21.3869 233.506 -21.5327 233.267 -21.7618 233.212C-21.992 233.16 -22.2181 233.314 -22.2693 233.557L-22.4377 234.375L-22.4457 234.363L-23.1604 233.628C-23.3363 233.459 -23.6105 233.457 -23.7739 233.641C-23.9277 233.809 -23.929 234.1 -23.7562 234.272L-23.1492 234.901H-23.1473L-23.623 235.011C-23.8557 235.063 -24.0015 235.305 -23.9535 235.547C-23.9052 235.792 -23.6761 235.946 -23.4453 235.893L-22.3895 235.654H-22.3882L-21.6334 236.423L-21.616 236.429L-23.0323 236.752C-23.2644 236.805 -23.4083 237.043 -23.3589 237.286C-23.3107 237.533 -23.0816 237.687 -22.8544 237.636L-20.8836 237.187L-20.8787 237.194L-19.982 238.123H-19.9781L-22.417 238.678C-22.646 238.732 -22.7919 238.971 -22.7437 239.214C-22.6942 239.458 -22.4664 239.614 -22.2392 239.562L-19.2221 238.872L-19.221 238.874L-18.2671 239.845L-21.7167 240.55C-21.9971 240.609 -22.1522 241.009 -21.9857 241.254L-19.9656 244.298H-21.2893H-21.2906L-23.0116 241.588C-23.141 241.381 -23.407 241.326 -23.6023 241.466C-23.7963 241.605 -23.8489 241.883 -23.7175 242.092L-22.3288 244.282L-22.3307 244.279L-23.5867 244.291H-23.5941L-24.7175 242.522C-24.8489 242.316 -25.115 242.261 -25.3102 242.399C-25.5055 242.539 -25.5567 242.816 -25.4253 243.026L-24.618 244.298H-24.62L-24.6344 244.291L-25.682 244.288H-25.685L-26.2878 243.341C-26.4191 243.133 -26.6833 243.078 -26.8785 243.219C-27.0725 243.355 -27.1257 243.636 -26.9975 243.845L-26.7234 244.272H-26.7251L-27.5738 244.279C-27.8111 244.277 -28.0019 244.485 -28 244.718C-28.0032 244.971 -27.8048 245.174 -27.5675 245.179L-26.5725 245.175L-26.558 245.177L-26.973 245.886C-27.0901 246.091 -27.0344 246.374 -26.8341 246.504C-26.6338 246.637 -26.3709 246.571 -26.2458 246.357L-25.5586 245.177L-24.4979 245.185H-24.4897L-25.381 246.713C-25.4992 246.923 -25.4434 247.205 -25.2414 247.335C-25.0412 247.466 -24.7802 247.4 -24.655 247.188L-23.4884 245.189L-23.4853 245.19L-22.4395 245.189L-22.4326 245.187L-23.6555 247.291C-23.7739 247.499 -23.7162 247.781 -23.5159 247.91C-23.3169 248.041 -23.0547 247.975 -22.9315 247.764L-21.4313 245.19L-21.4282 245.192L-20.1564 245.19L-22.1048 248.463L-22.1367 248.882L-21.8318 249.147L-18.2671 249.927L-19.1471 250.889L-21.9332 250.242C-22.1653 250.189 -22.3914 250.344 -22.4407 250.586C-22.4909 250.83 -22.3462 251.071 -22.1154 251.124L-19.8474 251.65L-20.5727 252.445L-20.5759 252.455L-22.7387 251.955C-22.9696 251.904 -23.1987 252.058 -23.2481 252.3C-23.2982 252.547 -23.1524 252.785 -22.9233 252.839L-21.271 253.218L-22.0064 254.032L-22.0103 254.036L-23.2788 253.745C-23.511 253.691 -23.7369 253.847 -23.7881 254.089C-23.8376 254.334 -23.6938 254.574 -23.4627 254.627L-22.7005 254.802L-22.7056 254.806L-23.4052 255.577C-23.5592 255.745 -23.561 256.036 -23.3876 256.207C-23.2131 256.38 -22.939 256.38 -22.7743 256.196L-22.1974 255.547L-22.1942 255.544L-22.0904 256.06C-22.0389 256.304 -21.813 256.46 -21.5822 256.406L-21.2762 256.133L-21.2555 255.872L-21.4782 254.771L-21.4745 254.769L-20.7441 253.953L-20.4431 255.431C-20.395 255.676 -20.1678 255.832 -19.9368 255.779L-19.6308 255.508L-19.6101 255.243L-20.0313 253.159L-19.1521 252.197L-19.1482 252.194L-18.6232 254.783C-18.5719 255.024 -18.346 255.18 -18.115 255.129L-17.8109 254.855L-17.7883 254.593L-18.4404 251.393L-17.508 250.387L-16.8609 254.051L-16.5992 254.379L-16.1974 254.334L-13.3136 252.179L-13.32 253.597L-15.872 255.41C-16.0661 255.547 -16.1205 255.827 -15.9892 256.036C-15.8576 256.242 -15.5936 256.296 -15.3964 256.158L-13.3312 254.693L-13.3136 256.024L-14.9896 257.217C-15.1849 257.354 -15.2344 257.634 -15.1048 257.842C-14.9734 258.049 -14.7092 258.105 -14.5134 257.964L-13.3231 257.118V257.12L-13.3293 258.247L-14.2174 258.878C-14.4095 259.015 -14.462 259.295 -14.3326 259.503C-14.2012 259.709 -13.937 259.764 -13.7411 259.626L-13.3231 259.328V259.338L-13.3332 260.23C-13.3362 260.482 -13.1359 260.683 -12.9163 260.681C-12.6779 260.683 -12.4707 260.482 -12.4901 260.24L-12.4807 259.166L-11.8123 259.603C-11.6109 259.732 -11.351 259.666 -11.2246 259.454L-11.1908 259.384C-11.1158 259.186 -11.1845 258.951 -11.3637 258.833L-12.4819 258.101L-12.4839 258.1L-12.4776 256.975V256.974L-11.0275 257.918C-10.8273 258.049 -10.5656 257.983 -10.4412 257.771L-10.4093 257.703C-10.3322 257.503 -10.4011 257.267 -10.5801 257.148L-12.4738 255.915V255.905V254.798L-10.4825 256.09C-10.2822 256.221 -10.0212 256.155 -9.89596 255.944L-9.86279 255.875C-9.78717 255.676 -9.85783 255.441 -10.0344 255.323L-12.4757 253.734L-12.4707 252.382L-9.38343 254.461L-8.99108 254.495L-8.73826 254.172L-7.9992 250.401L-7.08102 251.318L-7.69191 254.271C-7.74126 254.514 -7.59739 254.756 -7.36636 254.807C-7.13614 254.861 -6.90334 254.706 -6.8588 254.465L-6.36007 252.058L-5.59778 252.828L-6.07345 255.124C-6.12359 255.366 -5.97588 255.607 -5.74677 255.66C-5.51591 255.713 -5.2868 255.557 -5.23858 255.316L-4.88003 253.566L-4.11277 254.338L-4.1046 254.346L-4.38176 255.695C-4.43127 255.938 -4.2874 256.18 -4.05509 256.233C-3.82614 256.286 -3.59512 256.127 -3.54882 255.888L-3.38171 255.077V255.079L-2.65323 255.817C-2.47876 255.988 -2.22018 255.982 -2.05692 255.799L-1.96865 255.663C-1.90488 255.496 -1.94172 255.304 -2.05868 255.176L-2.67711 254.546L-2.19326 254.437L-1.88854 254.162L-1.86659 253.899C-1.9161 253.656 -2.14199 253.5 -2.37414 253.552L-3.42994 253.791L-4.17349 253.01L-2.78781 252.695L-2.47988 252.422L-2.45921 252.157C-2.50872 251.916 -2.73654 251.758 -2.96564 251.813L-4.93321 252.257L-4.93626 252.253L-5.84435 251.325L-3.40302 250.767C-3.25851 250.736 -3.14653 250.628 -3.09702 250.493L-3.07571 250.231C-3.12586 249.988 -3.34983 249.833 -3.58198 249.884L-6.59606 250.57L-7.54724 249.602L-4.09642 248.896L-3.7861 248.618L-3.82743 248.191L-5.84947 245.151H-4.5258L-2.80976 247.858C-2.67903 248.063 -2.41115 248.12 -2.21713 247.981L-2.05868 247.774L-2.10194 247.356L-3.49258 245.162L-2.22835 245.159H-2.22403L-1.10061 246.923C-0.971001 247.132 -0.705051 247.185 -0.509272 247.046L-0.350821 246.839L-0.392155 246.418L-1.18393 245.175L-0.134371 245.159L0.466425 246.106C0.599081 246.312 0.863909 246.368 1.05905 246.228L1.21926 246.023L1.17745 245.604L0.902042 245.171L1.7595 245.167C1.92708 245.164 2.07992 245.053 2.14369 244.884L2.17124 244.721C2.17429 244.468 1.99293 244.275 1.75437 244.27L0.741829 244.268V244.267L1.15678 243.563C1.28511 243.35 1.2175 243.071 1.01403 242.939C0.813761 242.81 0.551018 242.877 0.427654 243.086L-0.257572 244.265L-0.268953 244.263L-1.32651 244.255L-0.439091 242.73C-0.308998 242.525 -0.37645 242.242 -0.576715 242.111C-0.778263 241.981 -1.03989 242.047 -1.16438 242.259L-2.32976 244.262L-3.38171 244.254L-2.16267 242.156C-2.03626 241.949 -2.10194 241.664 -2.30221 241.536C-2.50247 241.407 -2.76651 241.473 -2.88987 241.685L-4.38818 244.258L-5.65033 244.242L-3.70903 240.984L-3.67651 240.567L-3.98123 240.304L-7.56663 239.531L-6.68434 238.556L-3.88495 239.203C-3.68036 239.251 -3.47497 239.132 -3.39806 238.932L-3.37739 238.858C-3.32725 238.615 -3.4732 238.373 -3.70214 238.321L-5.98388 237.793L-5.25796 236.995L-5.25171 236.987L-3.07956 237.488C-2.87416 237.537 -2.66893 237.419 -2.59379 237.217L-2.57136 237.144C-2.52186 236.901 -2.66765 236.661 -2.89676 236.608L-4.5596 236.224L-4.55768 236.222L-3.82422 235.407V235.406L-2.5406 235.704C-2.33104 235.75 -2.12757 235.63 -2.05067 235.429L-2.03001 235.355C-1.97986 235.113 -2.12566 234.873 -2.35668 234.819L-3.12265 234.643L-2.42733 233.865C-2.27032 233.694 -2.26841 233.403 -2.44304 233.231C-2.60005 233.069 -2.87737 233.069 -3.0395 233.251Z" fill="#FC979B"/>
<path d="M52.9521 61.4123L49.1423 67.8178L43.6966 67.7923L43.7303 65.9736C43.7559 65.7109 43.6277 65.4634 43.4771 65.2787L42.1874 64.0277L45.9476 59.8631L52.9521 61.4123ZM52.6621 75.5995L45.8675 76.9877L42.2275 73.2858L43.3874 71.9875L43.5653 71.7146L43.6181 71.3874L43.6342 69.5975L48.6824 69.6077L52.6621 75.5995ZM43.562 86.0288L37.5028 81.9948L37.5269 76.2351L39.278 76.2826C39.5087 76.2622 39.7618 76.1758 39.9156 75.9707L41.0868 74.6367L45.0232 78.6183L43.562 86.0288ZM30.1473 85.7204L28.8706 78.5437L28.8499 78.4963L32.3026 74.6656L33.5618 75.9063C33.7252 76.0555 33.9479 76.1487 34.13 76.1487L35.8526 76.186L35.8094 81.51L30.1473 85.7204ZM20.2942 76.0894L24.0879 69.7179L29.5803 69.7212L29.5483 71.5434C29.5239 71.801 29.6172 72.04 29.8 72.2332L31.0623 73.4706L27.2973 77.6352L20.2942 76.0894ZM20.5828 61.9005L27.3804 60.5123L31.0302 64.1803L29.8594 65.5126C29.7211 65.6855 29.6441 65.8838 29.6297 66.1143L29.5965 67.9347L24.5655 67.8906L20.5828 61.9005ZM29.6861 51.4763L35.7405 55.507L35.7197 61.2666L33.9954 61.2327C33.7377 61.2412 33.5167 61.3378 33.3647 61.5463L32.1887 62.8802L28.2347 58.8478L29.6861 51.4763ZM38.7605 63.1514L39.7538 64.121L41.0115 65.36L42.008 66.3312L41.9791 67.7601L41.9455 69.5789L41.9167 71.0128L40.997 72.062L39.8291 73.3943L38.9111 74.4469L37.5573 74.4164L35.8382 74.3825L34.4862 74.352L33.493 73.3791L32.2331 72.1434L31.2419 71.1705L31.2688 69.7382L31.2975 67.9195L31.3282 66.4906L32.2463 65.4363L33.4172 64.1057L34.3372 63.0548L35.6876 63.0853L37.4067 63.1209L38.7605 63.1514ZM37.466 56.007L43.099 51.7797L44.4096 58.9715L40.9458 62.8328L39.6849 61.5971C39.5535 61.4615 39.3292 61.3683 39.1178 61.353L37.3939 61.3174L37.4227 56.0256L37.466 56.007ZM56.4127 45.7675L55.2544 47.0676L55.2415 47.0811L55.0269 46.0387C54.9307 45.5488 54.4741 45.237 54.0159 45.3438C53.5545 45.4471 53.2613 45.9302 53.3574 46.4167L53.8108 48.6337L52.3385 50.2677L52.3369 50.2711L51.7329 47.2947C51.6319 46.8082 51.1785 46.4946 50.7171 46.6031C50.2573 46.7048 49.9593 47.1862 50.0619 47.6727L50.9094 51.8644L49.1326 53.7594L48.0833 48.6015C47.9823 48.1134 47.5257 47.8015 47.0675 47.9066C46.6045 48.0117 46.3161 48.4931 46.4106 48.9778L47.7083 55.351L45.8547 57.4071L44.5329 50.0524C44.4929 49.7643 44.291 49.5219 44.0058 49.3982C43.7527 49.2931 43.4483 49.3151 43.2016 49.4846L37.4548 53.8188L37.4259 50.9966L42.5751 47.3404C42.7193 47.2354 42.8251 47.0896 42.8876 46.9269C42.9917 46.6591 42.9693 46.3438 42.8042 46.0861C42.5415 45.6726 42.0096 45.5624 41.6203 45.8404L37.458 48.7965L37.4564 48.7897L37.4548 46.1065L40.8016 43.7199C40.949 43.6148 41.0579 43.4708 41.1188 43.308C41.2197 43.0402 41.1989 42.7233 41.0339 42.4656C40.7712 42.0487 40.2409 41.9402 39.8483 42.2199L37.4708 43.9098L37.4836 41.6622L37.4868 41.652L39.2555 40.3943C39.3997 40.2859 39.5087 40.1406 39.5696 39.9784C39.6721 39.7102 39.6497 39.3958 39.4879 39.1389C39.2235 38.7258 38.6948 38.6144 38.3023 38.896L37.4692 39.4785L37.4708 39.474L37.4916 37.6862C37.498 37.1823 37.0991 36.7784 36.6233 36.7692C36.149 36.7626 35.7661 37.1823 35.7693 37.6544L35.7645 39.7943V39.8063L34.4347 38.9402C34.0312 38.6787 33.5086 38.8099 33.257 39.235C33.0217 39.6453 33.1356 40.2164 33.5361 40.4825L35.7565 41.9283L35.7533 41.9385L35.7437 44.1945L32.8647 42.3165C32.4629 42.052 31.9372 42.186 31.6887 42.6097C31.4465 43.0216 31.5666 43.5894 31.9672 43.8555L35.7437 46.3201L35.7357 46.3387V48.5541L31.7738 45.9743C31.3713 45.7099 30.8457 45.8455 30.5948 46.2692C30.3575 46.6794 30.4746 47.2523 30.8764 47.5133L35.7437 50.6847L35.7485 53.3628L29.5771 49.2423C29.3368 49.0999 29.0471 49.0948 28.7905 49.1795C28.5213 49.3033 28.3273 49.527 28.2872 49.8253L26.7928 57.4155L24.9617 55.5426L24.9548 55.5375L26.1788 49.6253C26.2803 49.1354 25.9887 48.6541 25.5287 48.5456C25.0655 48.4422 24.6075 48.7592 24.5098 49.2372L23.5116 54.0696L23.5015 54.0594L21.9927 52.517L21.9864 52.5136L22.9315 47.9151C23.034 47.4269 22.7425 46.9438 22.2793 46.8387C21.8193 46.7319 21.3662 47.0506 21.2624 47.5269L20.5376 51.0474L20.527 51.0356L18.9887 49.4846L19.5477 46.7675C19.6472 46.2777 19.3573 45.798 18.8941 45.6912C18.4342 45.5844 17.9824 45.8929 17.8766 46.3811L17.5418 48.0184L17.5211 47.9947L16.0917 46.5252C15.7413 46.1845 15.1918 46.1828 14.8632 46.5506C14.5542 46.8845 14.5522 47.4676 14.9015 47.8134L16.113 49.0711L16.1162 49.0744L15.1612 49.2931C14.6999 49.3999 14.4064 49.8829 14.5059 50.3677C14.6035 50.8576 15.0585 51.1644 15.5217 51.061L17.6382 50.5796L19.1502 52.1271L19.1859 52.1356L16.3514 52.7814C15.8884 52.8882 15.5936 53.3662 15.695 53.856C15.7939 54.3425 16.2476 54.6544 16.7089 54.551L20.6547 53.6543L20.6647 53.6679L22.4621 55.5256L22.4683 55.529L17.5819 56.646C17.1225 56.7477 16.8309 57.2308 16.9285 57.7173C17.0274 58.2071 17.483 58.5139 17.941 58.4122L23.9841 57.0325L23.9903 57.0342L25.8972 58.9834L18.9837 60.397C18.423 60.5089 18.1138 61.3157 18.4473 61.8056L22.4959 67.9042L19.8412 67.9025H19.836L16.3915 62.4717C16.1287 62.0581 15.6005 61.948 15.2062 62.226C14.8201 62.5039 14.7112 63.065 14.9771 63.4819L17.7595 67.872L17.7552 67.8686L15.24 67.8873H15.2237L12.9727 64.3464C12.7085 63.9311 12.1766 63.8209 11.7854 64.0989C11.393 64.3769 11.2922 64.9379 11.5532 65.3532L13.173 67.9008H13.1698L13.1392 67.8873L11.0375 67.8839H11.0357L9.82789 65.9821C9.56178 65.5685 9.03179 65.46 8.64055 65.738C8.25268 66.0143 8.14566 66.5804 8.40665 66.9923L8.95473 67.8517H8.95169L7.24815 67.8686C6.77072 67.8601 6.39133 68.2788 6.39261 68.75C6.38829 69.2551 6.7869 69.6568 7.26257 69.6653L9.25401 69.6602H9.28268L8.45295 71.0823C8.2176 71.4959 8.32959 72.062 8.73204 72.3299C9.13562 72.5909 9.65823 72.4587 9.90912 72.0298L11.2892 69.6636L13.412 69.6789H13.4295L11.6415 72.7434C11.4055 73.1655 11.5194 73.7248 11.9231 73.9909C12.3237 74.2503 12.8493 74.1181 13.0991 73.6926L15.4334 69.6874L15.4384 69.6907L17.5388 69.6874L17.553 69.6857L15.0986 73.896C14.8614 74.3164 14.9803 74.8791 15.3809 75.1419C15.7814 75.4029 16.3064 75.2707 16.5549 74.8503L19.5557 69.6907L19.5638 69.6941L22.1079 69.6907L18.2052 76.2521C18.0388 76.4945 18.0325 76.8013 18.1458 77.0843C18.2729 77.3335 18.4856 77.542 18.7535 77.6166L25.8972 79.1844L24.1361 81.1083L18.5513 79.8167C18.09 79.7116 17.632 80.0201 17.5323 80.5048C17.4348 80.993 17.7264 81.4761 18.1876 81.5846L22.7343 82.6354L21.278 84.2304L21.2699 84.2508L16.9367 83.249C16.4735 83.1456 16.0167 83.4524 15.9171 83.9406C15.8195 84.4288 16.1081 84.9085 16.5711 85.0186L19.878 85.7797L18.4055 87.4137L18.4004 87.4188L15.8533 86.8306C15.3901 86.7289 14.9383 87.0357 14.8345 87.5238C14.735 88.0137 15.0247 88.4917 15.4866 88.6002L17.0129 88.9493L17.0054 88.9629L15.6068 90.5053C15.2926 90.841 15.2894 91.424 15.6367 91.7698C15.9847 92.1122 16.5374 92.1122 16.8641 91.7461L18.0224 90.446L18.0274 90.4392L18.2402 91.4732C18.3398 91.963 18.7947 92.2732 19.2546 92.1682C19.5432 92.1037 19.766 91.8918 19.8668 91.6207C19.9275 91.4613 19.9469 91.2766 19.9099 91.0952L19.4643 88.8883L19.4693 88.8815L20.9338 87.2527L21.5359 90.2138C21.6354 90.702 22.0891 91.0172 22.5504 90.9105C22.8389 90.8427 23.0629 90.6308 23.1667 90.3647C23.2263 90.202 23.2425 90.0189 23.2068 89.8358L22.3613 85.661L24.1249 83.7304L24.1299 83.727L25.1857 88.9103C25.2852 89.4002 25.7402 89.7104 26.2014 89.6053C26.49 89.5392 26.7109 89.3273 26.8134 89.0595C26.8742 88.8968 26.8936 88.7137 26.8585 88.5307L25.5511 82.1202L27.4224 80.1082L28.7153 87.4476C28.7842 87.7493 28.9858 87.995 29.2392 88.1018C29.5239 88.2239 29.8318 88.1967 30.0485 88.0171L35.8238 83.6982L35.8094 86.539L30.6956 90.1697C30.3093 90.4477 30.2005 91.0071 30.4632 91.424C30.7274 91.8376 31.2563 91.9478 31.6487 91.6715L35.7901 88.7307L35.8254 91.402L32.4659 93.7903C32.0748 94.0665 31.974 94.6293 32.2331 95.0446C32.496 95.4581 33.0266 95.57 33.4222 95.2903L35.8062 93.5936V93.597L35.7918 95.8531L34.0137 97.1175C33.6257 97.3955 33.5199 97.9566 33.7827 98.3719C34.0456 98.7871 34.5745 98.8956 34.9668 98.6193L35.8046 98.0244V98.0413L35.7885 99.8262C35.7805 100.333 36.1795 100.738 36.6233 100.733C37.1007 100.738 37.5124 100.331 37.4756 99.8465L37.4948 97.6955L38.8342 98.5718C39.2363 98.8329 39.7618 98.7007 40.0118 98.2735L40.0758 98.1362C40.2296 97.7362 40.0919 97.265 39.7314 97.0294L37.49 95.5666L37.4884 95.5632L37.5012 93.3072L37.4996 93.3038L40.4043 95.1971C40.8064 95.4581 41.3319 95.3259 41.5802 94.9005L41.6443 94.7649C41.7981 94.3632 41.6603 93.892 41.2998 93.6547L37.5076 91.1833V91.163V88.9409L41.4969 91.5376C41.8975 91.7986 42.4245 91.6664 42.6713 91.241L42.737 91.1071C42.8908 90.702 42.7498 90.2325 42.3941 89.9968L37.5028 86.8136L37.5124 84.1067L43.6998 88.2696C43.9402 88.412 44.2349 88.4188 44.4849 88.334C44.754 88.2137 44.9174 87.9713 44.9928 87.69L46.4731 80.132L48.3123 81.971L47.0883 87.8883C46.9874 88.3747 47.279 88.8561 47.742 88.9629C48.2034 89.0697 48.6696 88.7578 48.7609 88.273L49.7559 83.4524L51.2843 84.9915L50.3358 89.5951C50.2365 90.0833 50.5265 90.563 50.9863 90.6715C51.4509 90.7765 51.9107 90.4664 52.0069 89.9799L52.7262 86.4763L54.2626 88.0205L54.2787 88.0374L53.7211 90.741C53.6202 91.2308 53.9134 91.7122 54.3732 91.8207C54.8362 91.9241 55.2992 91.6105 55.3921 91.1291L55.7238 89.5053H55.7254L57.1865 90.9867C57.5358 91.3325 58.0549 91.3206 58.3801 90.9528L58.5579 90.6782C58.6861 90.3426 58.6124 89.9596 58.3769 89.7036L57.14 88.4358L58.1061 88.2188C58.3961 88.151 58.6188 87.9391 58.7198 87.6696C58.7822 87.5103 58.7982 87.3289 58.763 87.1442C58.6637 86.656 58.2103 86.3441 57.7489 86.4475L55.6341 86.9289L54.1409 85.361L56.919 84.7271C57.2041 84.6644 57.43 84.4525 57.531 84.1847C57.5919 84.022 57.6127 83.8406 57.5758 83.6541C57.4733 83.166 57.0199 82.8541 56.5601 82.9609L52.6205 83.8542L52.6124 83.8491L50.7924 81.9846L55.6837 80.8676C55.9737 80.8015 56.1948 80.5896 56.2973 80.3201C56.3582 80.1591 56.3774 79.976 56.3438 79.7946C56.2413 79.3065 55.7847 78.9946 55.3248 79.0997L49.288 80.4743L47.3783 78.5319L54.2963 77.1165C54.5815 77.047 54.8122 76.8318 54.9147 76.564C55.0156 76.2928 54.9916 75.9707 54.833 75.708L50.7812 69.6094H53.4327L56.8757 75.0385C57.1385 75.4487 57.6703 75.5622 58.0629 75.2842C58.2103 75.1774 58.316 75.0351 58.3769 74.8724C58.4794 74.6012 58.457 74.291 58.292 74.0282L55.5059 69.6348L58.0373 69.628H58.0501L60.2962 73.1655C60.559 73.5791 61.0909 73.6859 61.4818 73.4096C61.6292 73.3079 61.7382 73.1604 61.799 72.9977C61.9016 72.7299 61.8807 72.4129 61.7141 72.157L60.1296 69.6602L62.2332 69.628L63.4396 71.5264C63.7056 71.94 64.2359 72.0536 64.6284 71.7705C64.7742 71.6671 64.8799 71.523 64.9424 71.3603C65.0465 71.0925 65.0241 70.7789 64.8623 70.5179L64.3096 69.6483L66.0302 69.645C66.3651 69.6348 66.6711 69.4161 66.7993 69.0805L66.8505 68.75C66.8601 68.2449 66.4932 67.855 66.0158 67.8466L63.9907 67.8415L64.8158 66.4278C65.0738 66.0024 64.9392 65.4464 64.5355 65.182C64.1349 64.9227 63.6094 65.0549 63.3595 65.477L61.9849 67.8347H61.9641L59.8444 67.8195L61.626 64.7668C61.8807 64.3498 61.751 63.7837 61.3456 63.5209C60.9435 63.2599 60.4196 63.3921 60.1697 63.8159L57.8338 67.8279L55.7222 67.8144L58.1686 63.6108C58.4234 63.1972 58.2904 62.626 57.8898 62.3666C57.4861 62.1056 56.959 62.2378 56.7123 62.6616L53.7131 67.8212L51.1818 67.7923L55.0733 61.2649C55.2063 61.0072 55.2448 60.714 55.1342 60.4293C55.0092 60.1835 54.7929 59.9733 54.527 59.9004L47.3383 58.3512L49.107 56.3951L54.7176 57.6969C55.1278 57.7901 55.5411 57.5545 55.6917 57.1528L55.735 57.0036C55.8359 56.5155 55.5443 56.0324 55.0829 55.9273L50.5089 54.868L51.9684 53.2679L51.9796 53.2526L56.331 54.2595C56.7443 54.3561 57.1529 54.1188 57.3083 53.717L57.3515 53.5679C57.4509 53.0797 57.1577 52.6 56.6963 52.4899L53.3655 51.7237L53.3687 51.7203L54.8378 50.0881L54.8426 50.0864L57.414 50.6796C57.8306 50.7745 58.2375 50.5355 58.3913 50.1338L58.4346 49.9863C58.5339 49.4982 58.2423 49.0185 57.7809 48.9083L56.2445 48.5541L57.6399 46.993C57.9555 46.6591 57.9555 46.076 57.6079 45.7285C57.2923 45.4031 56.7395 45.4031 56.4127 45.7675Z" fill="#FC979B"/>
<path d="M58.679 466.428L59.7942 472.59L53.6868 478.727L53.6906 469.817L58.679 466.428ZM66.4817 475.83L63.4969 480.454H55.5393L61.3081 474.652L66.4817 475.83ZM66.9463 488.333L61.1222 489.511L55.3214 483.051H63.742L66.9463 488.333ZM58.0595 496.586L53.6868 493.43L53.6906 485.006L59.1728 491.113L58.0595 496.586ZM46.2419 497.079L45.1266 490.914L51.233 484.78L51.2291 493.689L46.2419 497.079ZM38.4416 487.675L41.423 483.051H49.3836L43.6128 488.855L38.4416 487.675ZM37.9754 475.176L43.7975 473.993L49.6001 480.454H41.1796L37.9754 475.176ZM46.8621 466.92L51.233 470.076V478.5L45.7487 472.391L46.8621 466.92ZM49.0682 452.112L47.4486 454.072L51.233 457.57V460.991L46.598 457.67L45.2212 459.825L51.233 464.128L51.2291 466.925L46.7389 463.682C46.401 463.44 45.9697 463.391 45.5917 463.552C45.2087 463.711 44.9302 464.062 44.8463 464.482L43.7011 470.11L41.878 468.081L43.437 460.575L41.0339 460.023L39.8353 465.805L37.608 463.326L38.071 458.031L35.6267 457.791L35.3588 460.82L32.6227 457.777L30.8421 459.57L33.6208 462.657L30.1231 463.457L30.6405 465.994L35.6009 464.866L38.0342 467.571L32.5682 468.817L33.082 471.359L40.0162 469.781L41.7897 471.756L35.7286 472.983C35.328 473.066 34.9902 473.351 34.83 473.747C34.6697 474.137 34.7023 474.583 34.9262 474.964L38.2571 480.454H35.6855L31.9931 474.049L29.894 475.4L32.8066 480.454L29.2738 480.451L26.6322 475.869L24.535 477.224L26.4001 480.454H22.3691L22.3672 483.051L26.3355 483.055L24.4437 485.345L26.2924 487.053L29.6005 483.051H32.8372L29.6988 487.957L31.7346 489.413L35.8012 483.051H38.4479L35.3812 487.809C34.9213 488.521 35.3412 489.629 36.1392 489.809L41.4549 491.019L39.5375 492.948L32.4461 491.301L31.9192 493.842L37.3858 495.108L35.0434 497.469L30.0367 496.974L29.8089 499.566L32.672 499.844L29.7977 502.737L31.4881 504.623L34.4107 501.686L35.1648 505.385L37.5648 504.839L36.4965 499.591L39.0568 497.015L40.2339 502.8L42.6341 502.252L41.1439 494.92L43.0107 493.043L44.1705 499.455C44.2568 499.888 44.5215 500.235 44.8932 500.403C45.2663 500.576 45.6975 500.54 46.0416 500.305L51.233 496.782L51.2291 499.499L45.1811 503.41L46.4598 505.625L51.233 502.547V506.281L46.9004 509.078L48.1808 511.295L51.233 509.324V513.59H53.6868L53.6906 509.388L55.8578 511.393L57.4712 509.434L53.6906 505.937V502.515L58.3224 505.835L59.7016 503.683L53.6868 499.377L53.6906 496.579L58.1809 499.822C58.5188 500.066 58.9488 500.116 59.3312 499.955C59.7111 499.794 59.9883 499.447 60.0746 499.023L61.2206 493.397L63.0467 495.426L61.4866 502.93L63.8878 503.484L65.0846 497.701L67.3148 500.183L66.8486 505.474L69.2966 505.717L69.5594 502.684L72.2974 505.729L74.0757 503.939L71.3009 500.849L74.7967 500.052L74.2808 497.511L69.319 498.64L66.8854 495.937L72.3551 494.687L71.8376 492.15L64.9068 493.726L63.13 491.75L69.1925 490.524C69.5946 490.443 69.9294 490.157 70.0929 489.762C70.2531 489.363 70.2178 488.902 69.9951 488.541L66.6643 483.055H69.2341L72.9302 489.455L75.029 488.106L72.1163 483.051H75.649L78.2893 487.636L80.3833 486.282L78.5232 483.055L82.5526 483.051L82.5542 480.454L78.5825 480.451L80.4794 478.159L78.6274 476.453L75.3206 480.454H72.0859L75.2229 475.551L73.1866 474.091L69.1188 480.454H66.4737L69.5417 475.698C69.7692 475.342 69.8189 474.888 69.6667 474.483C69.5145 474.081 69.1829 473.786 68.7839 473.698L63.4633 472.485L65.3826 470.556L72.4752 472.203L73.0007 469.666L67.5375 468.396L69.8798 466.037L74.8816 466.53L75.1123 463.94L72.2477 463.662L75.1251 460.769L73.4333 458.882L70.5094 461.823L69.758 458.121L67.358 458.667L68.425 463.915L65.8665 466.491L64.6873 460.706L62.2876 461.255L63.7757 468.586L61.9127 470.462L60.7474 464.05C60.6692 463.618 60.4 463.269 60.0302 463.101C59.6547 462.928 59.2242 462.965 58.8793 463.199L53.6906 466.725V464.006L59.7417 460.096L58.4632 457.877L53.6868 460.96L53.6906 457.223L58.0226 454.426L56.742 452.211L53.6906 454.182V449.916L51.233 449.912V454.118L49.0682 452.112Z" fill="#FC979B"/>
<path d="M82.7104 45.5209C84.9037 45.5209 86.6868 47.4058 86.6868 49.7279C86.6868 52.0501 84.9037 53.9349 82.7104 53.9349C80.5171 53.9349 78.7339 52.0501 78.7339 49.7279C78.7339 47.4058 80.5171 45.5209 82.7104 45.5209Z" fill="#FC979B"/>
<path d="M78.1486 378.633C80.5774 378.633 82.5482 380.718 82.5482 383.289C82.5482 385.859 80.5774 387.944 78.1486 387.944C75.7166 387.944 73.7471 385.859 73.7471 383.289C73.7471 380.718 75.7166 378.633 78.1486 378.633Z" fill="#FC979B"/>
<path d="M36.1154 317.882L31.2753 326.015L24.3635 325.984L24.4087 323.672C24.4361 323.342 24.2759 323.025 24.0832 322.789L22.4448 321.201L27.2204 315.916L36.1154 317.882ZM35.7468 335.895L27.1179 337.656L22.4974 332.959L23.9712 331.31L24.1958 330.963L24.2616 330.546L24.2873 328.276L30.6938 328.286L35.7468 335.895ZM24.1908 349.135L16.5006 344.016L16.5314 336.702L18.753 336.763C19.0446 336.738 19.3683 336.627 19.5623 336.365L21.0505 334.673L26.0458 339.724L24.1908 349.135ZM7.16008 348.745L5.53728 339.633L5.51357 339.572L9.89506 334.709L11.4959 336.283C11.7037 336.473 11.9858 336.595 12.2181 336.595L14.4034 336.638L14.3502 343.395L7.16008 348.745ZM-5.35074 336.519L-0.53124 328.425L6.43912 328.432L6.40228 330.742C6.36911 331.075 6.49055 331.375 6.7195 331.62L8.3205 333.195L3.54104 338.483L-5.35074 336.519ZM-4.98226 318.503L3.64678 316.74L8.28157 321.398L6.79527 323.088C6.61872 323.306 6.52116 323.561 6.50369 323.852L6.46171 326.162L0.0706806 326.108L-4.98226 318.503ZM6.5737 305.265L14.2639 310.382L14.232 317.698L12.0485 317.652C11.7181 317.665 11.4377 317.787 11.2444 318.052L9.75424 319.745L4.73125 314.628L6.5737 305.265ZM18.0935 320.088L19.3569 321.321L20.956 322.896L22.2189 324.128L22.1832 325.942L22.1399 328.251L22.1031 330.069L20.9383 331.405L19.4533 333.095L18.2856 334.429L16.5695 334.392L14.386 334.346L12.668 334.31L11.4076 333.076L9.80983 331.505L8.54944 330.271L8.58453 328.454L8.62137 326.145L8.66142 324.33L9.82617 322.988L11.3113 321.301L12.4791 319.967L14.1952 320.006L16.3785 320.05L18.0935 320.088ZM16.4543 311.019L23.6025 305.65L25.2673 314.781L20.8727 319.686L19.2705 318.115C19.0991 317.947 18.8175 317.823 18.5483 317.808L16.363 317.76L16.3968 311.043L16.4543 311.019ZM40.5101 298.019L39.038 299.668L39.0217 299.685L38.7508 298.361C38.6263 297.741 38.0473 297.346 37.4647 297.478C36.8795 297.612 36.5078 298.224 36.6279 298.841L37.205 301.656L35.335 303.731L35.3318 303.734L34.5665 299.956C34.4394 299.337 33.863 298.941 33.2779 299.078C32.6933 299.21 32.3166 299.817 32.445 300.437L33.5213 305.758L31.2677 308.163L29.9328 301.614C29.8045 300.998 29.2282 300.6 28.6417 300.731C28.0566 300.868 27.6899 301.478 27.81 302.097L29.4584 310.185L27.1035 312.797L25.4232 303.46C25.3762 303.092 25.1183 302.787 24.7565 302.629C24.4331 302.492 24.0482 302.524 23.7328 302.738L16.4381 308.241L16.3998 304.66L22.9399 300.014C23.1219 299.883 23.2552 299.698 23.3372 299.492C23.4668 299.153 23.4393 298.746 23.2295 298.422C22.8966 297.897 22.222 297.756 21.7269 298.108L16.4431 301.863L16.4412 301.854L16.4381 298.446L20.6887 295.419C20.8759 295.285 21.0141 295.103 21.0893 294.896C21.2206 294.556 21.1918 294.152 20.9835 293.827C20.65 293.3 19.9771 293.159 19.479 293.513L16.4586 295.659L16.475 292.806L16.48 292.793L18.7229 291.195C18.9088 291.057 19.0446 290.874 19.1247 290.669C19.2531 290.33 19.2242 289.928 19.019 289.603C18.6829 289.074 18.0133 288.935 17.5144 289.289L16.4575 290.035L16.4586 290.027L16.4844 287.759C16.4925 287.116 15.9862 286.604 15.3823 286.593C14.7783 286.584 14.2947 287.116 14.2977 287.718L14.2914 290.433V290.45L12.6043 289.349C12.0898 289.016 11.4264 289.184 11.1111 289.725C10.8112 290.245 10.9558 290.971 11.4634 291.305L14.2815 293.144L14.2802 293.157L14.2671 296.019L10.6098 293.634C10.0984 293.3 9.43381 293.469 9.11643 294.008C8.81043 294.53 8.96135 295.254 9.4689 295.59L14.2658 298.717L14.2576 298.741V301.558L9.22538 298.28C8.71414 297.947 8.04638 298.117 7.72707 298.654C7.42619 299.175 7.57695 299.9 8.08451 300.234L14.2658 304.26L14.274 307.658L6.438 302.431C6.13007 302.249 5.76335 302.241 5.4378 302.351C5.09798 302.505 4.85013 302.793 4.79886 303.171L2.90019 312.806L0.575832 310.429L0.567657 310.424L2.12348 302.915C2.24989 302.293 1.87627 301.683 1.29486 301.548C0.708485 301.412 0.127071 301.819 0.000663757 302.421L-1.26661 308.56L-1.27975 308.546L-3.19733 306.587L-3.20358 306.583L-2.00071 300.744C-1.87254 300.126 -2.24102 299.514 -2.8274 299.378C-3.41394 299.241 -3.98895 299.646 -4.12048 300.253L-5.03978 304.722L-5.05724 304.707L-7.00863 302.741L-6.29776 299.288C-6.17248 298.668 -6.54113 298.058 -7.1275 297.92C-7.71212 297.786 -8.28407 298.18 -8.41737 298.797L-8.84354 300.875L-8.87238 300.848L-10.6873 298.98C-11.1298 298.544 -11.8294 298.544 -12.245 299.014C-12.6386 299.436 -12.6404 300.178 -12.1981 300.612L-10.6573 302.212L-10.6535 302.215L-11.8663 302.493C-12.4528 302.629 -12.8232 303.243 -12.6981 303.856C-12.576 304.48 -11.9996 304.872 -11.4114 304.739L-8.72162 304.127L-6.80083 306.089L-6.75774 306.105L-10.3556 306.926C-10.945 307.058 -11.3187 307.667 -11.1923 308.285C-11.0641 308.907 -10.487 309.301 -9.90367 309.172L-4.89399 308.031L-4.87828 308.048L-2.59846 310.407L-2.59029 310.411L-8.79227 311.828C-9.37993 311.96 -9.74857 312.572 -9.62521 313.191C-9.4988 313.809 -8.92189 314.206 -8.33855 314.072L-0.664532 312.321L-0.659567 312.324L1.76604 314.797L-7.01359 316.594C-7.72526 316.737 -8.1157 317.757 -7.6977 318.381L-2.5552 326.127L-5.92415 326.123H-5.93104L-10.3061 319.226C-10.6378 318.703 -11.3124 318.562 -11.8088 318.913C-12.3006 319.269 -12.4384 319.981 -12.1035 320.51L-8.56766 326.081L-8.57567 326.078L-11.7687 326.105H-11.7862L-14.6463 321.608C-14.983 321.079 -15.6571 320.94 -16.1552 321.293C-16.6508 321.647 -16.7803 322.359 -16.4487 322.888L-14.3928 326.122H-14.3965L-14.4329 326.105L-17.102 326.1H-17.1059L-18.6404 323.684C-18.9752 323.159 -19.6497 323.02 -20.146 323.378C-20.6379 323.725 -20.7725 324.442 -20.4445 324.966L-19.7494 326.061L-19.7537 326.057L-21.9133 326.078C-22.5204 326.069 -23.003 326.6 -22.9999 327.198C-23.0079 327.84 -22.5016 328.352 -21.8978 328.361L-19.3663 328.352L-19.3293 328.356L-20.3864 330.163C-20.6848 330.686 -20.539 331.405 -20.0309 331.742C-19.5196 332.075 -18.8538 331.905 -18.5364 331.364L-16.7854 328.359L-14.0887 328.379H-14.0681L-16.3348 332.27C-16.6358 332.803 -16.4919 333.515 -15.9805 333.849C-15.4699 334.181 -14.8033 334.012 -14.488 333.476L-11.5202 328.388L-11.5159 328.393L-8.84979 328.388L-8.8304 328.386L-11.9452 333.734C-12.2481 334.265 -12.0992 334.982 -11.5891 335.315C-11.0815 335.646 -10.4131 335.478 -10.0977 334.944L-6.28767 328.393L-6.27838 328.396L-3.0453 328.393L-8.00243 336.724C-8.21407 337.027 -8.22144 337.422 -8.07949 337.78C-7.91543 338.095 -7.64643 338.363 -7.3071 338.456L1.76428 340.448L-0.472443 342.889L-7.56312 341.248C-8.14822 341.114 -8.72963 341.507 -8.85604 342.124C-8.98132 342.743 -8.61267 343.357 -8.02805 343.492L-2.2524 344.828L-4.10285 346.855L-4.11038 346.879L-9.614 345.606C-10.1985 345.477 -10.7805 345.865 -10.9069 346.485C-11.032 347.106 -10.6647 347.718 -10.077 347.855L-5.87961 348.819L-7.74896 350.894L-7.75714 350.901L-10.9883 350.157C-11.5766 350.025 -12.1518 350.418 -12.2831 351.035C-12.4083 351.657 -12.0409 352.265 -11.4532 352.403L-9.51627 352.845L-9.52572 352.859L-11.3055 354.82C-11.6998 355.249 -11.7049 355.988 -11.2624 356.428C-10.8218 356.862 -10.1184 356.864 -9.7034 356.396L-8.23457 354.747L-8.22656 354.737L-7.96061 356.05C-7.83228 356.669 -7.25583 357.067 -6.67074 356.933C-6.30577 356.849 -6.02171 356.581 -5.89402 356.237C-5.81392 356.032 -5.79262 355.8 -5.8378 355.571L-6.40479 352.771L-6.39726 352.762L-4.53655 350.689L-3.7725 354.452C-3.64801 355.072 -3.07092 355.469 -2.48647 355.335C-2.1191 355.252 -1.83425 354.979 -1.70415 354.642C-1.62709 354.437 -1.6053 354.205 -1.65273 353.971L-2.72679 348.669L-0.488146 346.219L-0.481897 346.213L0.862453 352.796C0.987579 353.416 1.56402 353.811 2.1504 353.679C2.51584 353.594 2.79621 353.326 2.92582 352.982C3.00465 352.777 3.03028 352.547 2.98334 352.313L1.32546 344.172L3.69997 341.619L5.34215 350.938C5.42979 351.321 5.68436 351.632 6.00863 351.771C6.37039 351.925 6.75651 351.889 7.03191 351.662L14.3666 346.177L14.349 349.786L7.8554 354.394C7.36354 354.749 7.22768 355.457 7.56253 355.988C7.89737 356.513 8.56707 356.652 9.06709 356.301L14.3253 352.567L14.3696 355.955L10.1046 358.993C9.60652 359.34 9.47883 360.056 9.80983 360.583C10.1434 361.11 10.8163 361.249 11.3163 360.895L14.3459 358.742V358.745L14.3285 361.612L12.0711 363.215C11.5773 363.569 11.4446 364.281 11.7743 364.812C12.1092 365.336 12.7807 365.475 13.2802 365.124L14.3459 364.366V364.39L14.3203 366.658C14.3121 367.298 14.8203 367.814 15.3823 367.807C15.9881 367.814 16.5131 367.297 16.4655 366.681L16.4913 363.949L18.1878 365.061C18.7005 365.393 19.3651 365.225 19.6855 364.686L19.7656 364.51C19.9615 364 19.785 363.403 19.3282 363.103L16.4832 361.246L16.4812 361.244L16.4976 358.376L16.4957 358.373L20.1836 360.776C20.6937 361.11 21.3595 360.942 21.6769 360.4L21.7588 360.229C21.9528 359.718 21.7795 359.122 21.3214 358.817L16.5069 355.679V355.657V352.837L21.5699 356.13C22.0775 356.461 22.7489 356.293 23.0644 355.754L23.1475 355.583C23.3404 355.072 23.1606 354.472 22.7108 354.176L16.5006 350.135L16.5131 346.697L24.3674 351.984C24.6747 352.162 25.0464 352.172 25.3668 352.064C25.7066 351.913 25.915 351.604 26.0076 351.245L27.8882 341.65L30.2244 343.984L28.6675 351.499C28.5422 352.115 28.914 352.726 29.4985 352.862C30.0868 352.994 30.6764 352.603 30.7933 351.987L32.0576 345.865L33.9976 347.825L32.7929 353.666C32.6659 354.284 33.0344 354.894 33.6227 355.03C34.2091 355.171 34.7937 354.771 34.9158 354.152L35.8301 349.706L37.7783 351.667L37.7996 351.687L37.0911 355.122C36.9647 355.74 37.3332 356.354 37.9197 356.489C38.5092 356.622 39.0955 356.223 39.2127 355.613L39.6351 353.549L39.6369 353.552L41.4918 355.433C41.9343 355.869 42.5946 355.855 43.0076 355.388L43.2337 355.038C43.3969 354.613 43.3011 354.125 43.0026 353.801L41.433 352.194L42.6603 351.918C43.027 351.833 43.3086 351.562 43.4389 351.22C43.5171 351.016 43.5397 350.786 43.4915 350.552C43.3681 349.935 42.7899 349.536 42.2035 349.669L39.5199 350.281L37.623 348.287L41.1509 347.484C41.5144 347.404 41.7998 347.133 41.9294 346.794C42.0082 346.587 42.0321 346.358 41.9856 346.124C41.8562 345.502 41.2803 345.106 40.6977 345.241L35.6942 346.375L35.683 346.369L33.3724 344.001L39.5824 342.584C39.9493 342.499 40.2314 342.231 40.363 341.89C40.4412 341.682 40.4636 341.451 40.4186 341.219C40.2891 340.602 39.714 340.206 39.1276 340.339L31.463 342.085L29.0404 339.616L37.8214 337.819C38.1857 337.731 38.4773 337.458 38.605 337.117C38.7363 336.777 38.7064 336.365 38.5042 336.032L33.3599 328.29H36.7244L41.0951 335.183C41.43 335.705 42.107 335.848 42.6021 335.493C42.788 335.36 42.9245 335.18 43.0026 334.971C43.134 334.629 43.1053 334.231 42.8956 333.9L39.3565 328.32L42.5733 328.313H42.5864L45.4396 332.803C45.7745 333.331 46.451 333.468 46.9459 333.117C47.1331 332.986 47.2696 332.798 47.3465 332.59C47.478 332.253 47.4505 331.849 47.2407 331.522L45.2269 328.352L47.9003 328.313L49.4324 330.722C49.7673 331.249 50.4432 331.391 50.94 331.034C51.1272 330.902 51.2617 330.72 51.3387 330.513C51.4702 330.171 51.4433 329.774 51.2361 329.444L50.5345 328.339L52.7198 328.334C53.1462 328.322 53.5353 328.042 53.6987 327.618C53.745 327.488 53.7933 327.363 53.7644 327.201C53.7726 326.557 53.3064 326.064 52.7024 326.052L50.1327 326.047L50.1308 326.044L51.1804 324.25C51.509 323.711 51.3356 323.001 50.8231 322.667C50.3117 322.339 49.6452 322.505 49.328 323.04L47.585 326.039L47.5581 326.037L44.8664 326.017L47.1287 322.138C47.4535 321.613 47.287 320.893 46.7726 320.56C46.262 320.228 45.5955 320.396 45.2794 320.933L42.3142 326.029L39.6319 326.01L42.7386 320.674C43.0621 320.145 42.8937 319.423 42.3831 319.093C41.8719 318.764 41.2022 318.932 40.8899 319.469L37.0786 326.02L33.8662 325.981L38.8083 317.693C38.9786 317.369 39.0249 316.994 38.8841 316.633C38.7251 316.321 38.4516 316.052 38.1131 315.962L28.9879 313.997L31.2339 311.511L38.3571 313.16C38.8778 313.284 39.3998 312.982 39.5951 312.472L39.6483 312.285C39.7747 311.667 39.4047 311.053 38.8214 310.918L33.0107 309.572L34.8656 307.541L34.88 307.522L40.4061 308.801C40.93 308.923 41.4507 308.623 41.6458 308.111L41.7003 307.923C41.8236 307.302 41.4556 306.694 40.8693 306.556L36.6411 305.58L36.6443 305.577L38.5104 303.505L38.5136 303.5L41.7804 304.253C42.3073 304.373 42.8267 304.071 43.0207 303.561L43.0784 303.373C43.2016 302.758 42.8318 302.144 42.2466 302.007L40.2954 301.558L42.0657 299.576C42.4662 299.149 42.4694 298.408 42.0269 297.968C41.6251 297.554 40.9218 297.554 40.5101 298.019Z" fill="#FC979B"/>
<path d="M89.0768 271.711L86.5629 275.937L82.9726 275.92L82.995 274.718C83.0094 274.547 82.9263 274.383 82.8255 274.262L81.9743 273.437L84.4576 270.689L89.0768 271.711ZM88.886 281.071L84.402 281.985L82.0018 279.544L82.7672 278.688L82.8843 278.505L82.92 278.291L82.9325 277.112L86.2619 277.118L88.886 281.071ZM82.8811 287.95L78.8859 285.288L78.9016 281.488L80.0567 281.52C80.2076 281.507 80.3754 281.449 80.4768 281.314L81.2503 280.434L83.8456 283.059L82.8811 287.95ZM74.0326 287.746L73.1901 283.012L73.1757 282.98L75.4538 280.456L76.2867 281.271L76.6616 281.432L77.7963 281.456L77.7687 284.968L74.0326 287.746ZM67.5327 281.393L70.0372 277.19L73.6576 277.191L73.6402 278.393C73.6208 278.568 73.6852 278.722 73.8022 278.849L74.6353 279.666L72.152 282.414L67.5327 281.393ZM67.7235 272.032L72.2076 271.117L74.6176 273.537L73.8435 274.413L73.6934 274.812L73.6708 276.013L70.3507 275.985L67.7235 272.032ZM73.7265 265.153L77.7243 267.815L77.708 271.615L76.5721 271.591C76.4026 271.596 76.2549 271.661 76.1554 271.8L75.3819 272.678L72.7722 270.02L73.7265 265.153ZM79.7138 272.856L80.3691 273.498L81.1989 274.315L81.8573 274.956L81.8386 275.898L81.8173 277.098L81.7985 278.042L81.1908 278.737L80.4204 279.615L79.8133 280.308L78.9221 280.288L77.7881 280.266L76.8938 280.246L76.2404 279.605L75.4088 278.788L74.7554 278.149L74.7729 277.205L74.7923 276.003L74.8129 275.061L75.4187 274.364L76.1911 273.488L76.7962 272.793L77.6886 272.813L78.8232 272.837L79.7138 272.856ZM78.8615 268.145L82.577 265.355L83.4418 270.1L81.1558 272.647L80.3258 271.832L79.951 271.671L78.8133 271.649L78.8327 268.157L78.8615 268.145ZM91.3598 261.389L90.5958 262.248L90.5876 262.257L90.4468 261.567C90.3824 261.243 90.0813 261.041 89.7784 261.109C89.4756 261.179 89.2816 261.496 89.346 261.818L89.6438 263.28L88.6732 264.359L88.6713 264.36L88.2727 262.397C88.207 262.075 87.9084 261.87 87.6043 261.94C87.3013 262.009 87.1043 262.325 87.1719 262.647L87.7307 265.411L86.558 266.66L85.8676 263.257C85.7987 262.936 85.499 262.731 85.1962 262.801C84.8919 262.87 84.6998 263.186 84.7625 263.508L85.6191 267.711L84.3951 269.066L83.5219 264.216C83.4982 264.026 83.3649 263.869 83.1759 263.786C83.0064 263.716 82.8061 263.733 82.644 263.842L78.8551 266.701L78.8346 264.838L82.2309 262.426L82.4375 262.155C82.5063 261.979 82.4919 261.769 82.3849 261.599C82.2103 261.326 81.8573 261.253 81.6013 261.436L78.8564 263.387L78.8551 263.382L78.8533 261.611L81.0632 260.038L81.2709 259.768C81.3384 259.589 81.3241 259.38 81.2152 259.212C81.0418 258.938 80.6926 258.865 80.4316 259.048L78.8646 260.163L78.8727 258.682L78.8758 258.675L80.0405 257.843L80.2477 257.572C80.3166 257.392 80.3002 257.185 80.1945 257.016C80.0218 256.745 79.6725 256.672 79.4109 256.855L78.8633 257.241L78.8646 257.238L78.8777 256.056C78.882 255.726 78.6199 255.46 78.3057 255.451C77.9916 255.448 77.7387 255.726 77.7431 256.038L77.7387 257.45V257.456L76.8619 256.887C76.5959 256.712 76.2499 256.801 76.0865 257.08C75.9295 257.35 76.0051 257.728 76.2693 257.901L77.7318 258.858V258.865L77.7274 260.352L75.8255 259.111C75.5595 258.938 75.2135 259.026 75.0483 259.304C74.8898 259.575 74.9682 259.953 75.2341 260.128L77.7256 261.753L77.7205 261.765V263.228L75.1045 261.524C74.8405 261.352 74.4925 261.44 74.3291 261.721C74.1721 261.989 74.249 262.369 74.5132 262.541L77.7256 264.633L77.7286 266.399L73.6564 263.681C73.4994 263.589 73.3073 263.582 73.1389 263.64C72.9611 263.723 72.8309 263.872 72.8071 264.067L71.8202 269.072L70.6106 267.838L70.6074 267.835L71.4166 263.935C71.4823 263.611 71.2863 263.294 70.9853 263.221C70.6812 263.152 70.3802 263.364 70.3145 263.679L69.6543 266.865L69.648 266.859L68.651 265.843L68.648 265.84L69.2744 262.806C69.3401 262.484 69.1491 262.165 68.8431 262.096C68.5377 262.026 68.241 262.236 68.1723 262.55L67.6929 264.872L67.6854 264.865L66.6709 263.842L67.0407 262.048C67.1064 261.726 66.913 261.411 66.6083 261.34C66.3053 261.27 66.0075 261.472 65.9386 261.794L65.7177 262.874L65.7034 262.858L64.7596 261.891C64.5287 261.663 64.1651 261.662 63.9504 261.906C63.7458 262.125 63.7439 262.513 63.9749 262.738L64.776 263.569V263.57L64.1463 263.716C63.8434 263.787 63.6493 264.103 63.715 264.425C63.7777 264.745 64.0768 264.95 64.3828 264.881L65.7816 264.564L66.7786 265.584L66.8004 265.591H66.8023L64.931 266.016C64.627 266.087 64.431 266.403 64.4986 266.723C64.5643 267.047 64.8634 267.252 65.1683 267.184L67.7698 266.591L67.7767 266.601L68.9633 267.828L68.9671 267.83L65.7446 268.566C65.4405 268.632 65.2465 268.95 65.3109 269.272C65.3767 269.596 65.6776 269.799 65.9806 269.733L69.9684 268.821L69.9715 268.823L71.2308 270.106L66.6677 271.04C66.2991 271.115 66.0939 271.647 66.3135 271.969L68.9846 275.995L67.2347 275.991H67.2317L64.958 272.41C64.7852 272.137 64.4342 272.066 64.1763 272.247C63.9217 272.43 63.8496 272.8 64.0242 273.074L65.8604 275.971L65.8574 275.968L64.1969 275.981H64.1877L62.7044 273.645C62.5279 273.373 62.1768 273.3 61.919 273.484C61.6611 273.667 61.5935 274.037 61.7668 274.312L62.8351 275.991H62.8339L62.8133 275.981H61.427L61.4257 275.979L60.626 274.725C60.4533 274.452 60.104 274.379 59.8425 274.562C59.5896 274.745 59.5176 275.118 59.6903 275.393L60.0508 275.959H60.0478L58.9263 275.968C58.6121 275.964 58.3623 276.24 58.3623 276.551C58.3593 276.885 58.622 277.152 58.9356 277.156L60.2511 277.152L60.2705 277.154L59.7211 278.09C59.5658 278.363 59.6391 278.737 59.9037 278.912C60.171 279.085 60.5172 278.997 60.6804 278.715L61.5904 277.156L62.9923 277.164H63.0035L61.8245 279.186C61.6693 279.464 61.7444 279.832 62.0091 280.007C62.2731 280.18 62.6205 280.092 62.7858 279.812L64.3253 277.169L64.3285 277.171L65.7146 277.169L65.7241 277.168L64.1063 279.947C63.9491 280.222 64.0262 280.595 64.2902 280.768C64.5544 280.942 64.9024 280.853 65.0656 280.576L67.0458 277.171L67.0489 277.174L68.7298 277.171L66.1533 281.498C66.0445 281.659 66.0413 281.863 66.1132 282.048C66.1983 282.214 66.3391 282.349 66.5157 282.398L71.2275 283.436L70.066 284.705L66.3824 283.851C66.0782 283.782 65.7773 283.985 65.7114 284.305C65.647 284.629 65.8378 284.946 66.1421 285.017L69.1429 285.71L68.1805 286.765L68.1785 286.777L65.3171 286.117C65.0131 286.048 64.7101 286.251 64.6444 286.572C64.58 286.895 64.7727 287.211 65.0768 287.283L67.2573 287.785L66.2848 288.863L66.2836 288.868L64.6026 288.48C64.2964 288.411 64.0005 288.616 63.9316 288.938C63.8659 289.258 64.0561 289.575 64.361 289.646L65.3686 289.877L65.3623 289.885L64.4373 290.902C64.2327 291.124 64.2308 291.509 64.4599 291.736C64.689 291.965 65.0544 291.967 65.2708 291.723L66.0331 290.865L66.0381 290.86L66.1759 291.541C66.2416 291.865 66.5426 292.07 66.8456 292.001C67.0377 291.957 67.1835 291.818 67.2511 291.64L67.2798 291.292L66.9832 289.838L66.9862 289.834L67.9544 288.756L68.3532 290.712C68.4176 291.034 68.7154 291.24 69.0216 291.17C69.2118 291.128 69.3576 290.987 69.4264 290.811L69.454 290.462L68.8963 287.707L70.0598 286.434L70.063 286.433L70.7613 289.851C70.8251 290.173 71.1248 290.378 71.4278 290.309C71.6199 290.267 71.767 290.128 71.8327 289.948L71.8634 289.599L71.0016 285.37L72.237 284.044L73.0875 288.887C73.1339 289.085 73.2672 289.245 73.4337 289.317C73.6226 289.397 73.8247 289.378 73.9669 289.261L77.7769 286.412L77.7674 288.287L74.3949 290.682C74.1383 290.865 74.0683 291.233 74.241 291.509C74.4174 291.784 74.7634 291.855 75.0227 291.673L77.7543 289.733L77.7788 291.494L75.5627 293.07C75.3061 293.252 75.2372 293.623 75.4088 293.899C75.5834 294.172 75.9312 294.245 76.1922 294.06L77.7674 292.94V292.943L77.7575 294.431L76.5835 295.265C76.3268 295.448 76.2581 295.819 76.4295 296.094C76.6041 296.367 76.9532 296.44 77.2129 296.257L77.7657 295.864V295.877L77.7532 297.053C77.748 297.386 78.0122 297.653 78.3057 297.652C78.6199 297.655 78.8921 297.386 78.8665 297.065L78.8809 295.648L79.7632 296.225C80.0293 296.396 80.3754 296.309 80.5405 296.028L80.5838 295.94C80.6844 295.674 80.5931 295.362 80.3566 295.206L78.8758 294.243V294.24L78.8839 292.751L78.882 292.75L80.7983 293.997C81.0644 294.172 81.4123 294.084 81.5757 293.802L81.6188 293.713C81.7195 293.446 81.6301 293.138 81.3911 292.98L78.8889 291.35V291.336V289.872L81.5193 291.584C81.7854 291.757 82.1314 291.667 82.2966 291.389L82.3397 291.299C82.4405 291.034 82.3461 290.723 82.1108 290.568L78.8859 288.468L78.8921 286.682L82.9726 289.428C83.1328 289.521 83.3268 289.526 83.4932 289.47C83.6679 289.39 83.7767 289.233 83.8268 289.046L84.8025 284.06L86.0166 285.273L85.2093 289.175C85.1434 289.497 85.3357 289.814 85.6404 289.885C85.9445 289.955 86.2518 289.75 86.3114 289.431L86.9697 286.251L87.9779 287.266L87.3515 290.302C87.2858 290.626 87.476 290.941 87.782 291.012C88.0869 291.084 88.3909 290.877 88.4536 290.558L88.9291 288.246L89.9418 289.265L89.9511 289.275L89.5844 291.06C89.5187 291.382 89.7108 291.702 90.0157 291.772C90.3197 291.841 90.6277 291.631 90.6865 291.314L90.9061 290.243L90.908 290.245L91.8706 291.219C92.1034 291.448 92.4445 291.44 92.6572 291.197L92.7761 291.017C92.8594 290.795 92.8112 290.543 92.656 290.373L91.8405 289.538L92.4783 289.394C92.6685 289.351 92.8162 289.209 92.8819 289.033L92.9107 288.685C92.8463 288.365 92.547 288.16 92.2423 288.228L90.8454 288.543L89.8617 287.509L91.6947 287.092C91.8818 287.05 92.0308 286.909 92.0995 286.734L92.1271 286.385C92.0614 286.06 91.7604 285.855 91.4576 285.924L88.8572 286.516L88.8522 286.512L87.6525 285.282L90.8805 284.544C91.0695 284.502 91.2153 284.363 91.2842 284.185L91.3148 283.836C91.2479 283.515 90.9462 283.31 90.6434 283.378L86.6605 284.287L85.4014 283.004L89.9642 282.07C90.1514 282.026 90.3053 281.883 90.3729 281.703C90.4399 281.529 90.4242 281.314 90.3185 281.141L87.6463 277.118H89.3955L91.6658 280.7C91.8387 280.973 92.1897 281.046 92.4475 280.863L92.656 280.59C92.7248 280.41 92.7104 280.205 92.5997 280.034L90.7623 277.135L92.4331 277.13H92.4413L93.9215 279.464C94.0979 279.736 94.4484 279.808 94.7049 279.627L94.9134 279.354C94.9803 279.176 94.9678 278.968 94.8589 278.798L93.8125 277.152L95.2019 277.13L95.9961 278.381C96.1707 278.656 96.5217 278.73 96.7814 278.544L96.9879 278.273C97.0568 278.095 97.0405 277.89 96.9348 277.719L96.57 277.146L97.7059 277.142C97.9268 277.135 98.1288 276.99 98.2134 276.769L98.2472 276.551C98.2535 276.218 98.0099 275.961 97.6958 275.956L96.3615 275.952H96.3596L96.9048 275.02C97.0762 274.739 96.986 274.371 96.7201 274.196C96.456 274.027 96.1087 274.113 95.9446 274.391L95.0366 275.949H95.0223L93.6235 275.939L94.8014 273.922C94.9678 273.649 94.8828 273.276 94.6155 273.103C94.3507 272.928 94.0033 273.017 93.8414 273.298L92.2987 275.944L90.9061 275.934L92.5183 273.162C92.6878 272.886 92.5997 272.511 92.3336 272.34C92.0677 272.167 91.7203 272.256 91.5571 272.535L89.5781 275.939L87.9103 275.918L90.4769 271.611C90.565 271.442 90.5889 271.25 90.517 271.061C90.4356 270.898 90.2928 270.759 90.1164 270.713L85.3745 269.691L86.5403 268.401L90.2428 269.257C90.5118 269.321 90.7847 269.167 90.8855 268.898L90.9111 268.801C90.9781 268.479 90.786 268.162 90.4832 268.093L87.4648 267.393L88.4278 266.338L88.436 266.328L91.3066 266.991C91.5788 267.055 91.8499 266.899 91.9507 266.635L91.9794 266.535C92.0452 266.215 91.8518 265.898 91.547 265.826L89.3503 265.318L89.3522 265.314L90.3217 264.24L90.3247 264.238L92.0214 264.63C92.2968 264.692 92.5659 264.533 92.6654 264.269L92.6941 264.172C92.7599 263.852 92.5677 263.531 92.2617 263.46L91.2511 263.228L92.1723 262.197C92.3788 261.977 92.3799 261.591 92.1497 261.363C91.9413 261.146 91.5758 261.147 91.3598 261.389Z" fill="#FC979B"/>
<path d="M79.4107 138.617L79.5822 139.568L78.6401 140.515V139.141L79.4107 138.617ZM80.6155 140.066L80.1541 140.78H78.9269L79.8161 139.885L80.6155 140.066ZM80.6844 141.995L79.7872 142.18L78.8916 141.181H80.1926L80.6844 141.995ZM79.3146 143.268L78.6401 142.782V141.481L79.4876 142.424L79.3146 143.268ZM77.493 143.344L77.32 142.395L78.2604 141.448V142.821L77.493 143.344ZM76.2882 141.893L76.7464 141.181H77.9768L77.0845 142.076L76.2882 141.893ZM76.2161 139.964L77.1133 139.783L78.0089 140.78H76.7095L76.2161 139.964ZM77.5859 138.693L78.2604 139.18V140.48L77.4161 139.537L77.5859 138.693ZM77.9272 136.408L77.6772 136.712L78.2604 137.251V137.778L77.5459 137.264L77.3344 137.597L78.2604 138.263V138.693L77.5683 138.193L77.3921 138.171L77.2767 138.317L77.0989 139.185L76.8185 138.871L77.0588 137.715L76.6871 137.629L76.5029 138.52L76.1584 138.139L76.2305 137.32L75.854 137.285L75.814 137.751L75.391 137.281L75.1154 137.559L75.5432 138.034L75.0065 138.159L75.0834 138.551L75.8492 138.375L76.2257 138.793L75.3814 138.985L75.4615 139.376L76.5317 139.134L76.8057 139.437L75.87 139.627L75.7323 139.746L75.7451 139.932L76.2594 140.78H75.8636L75.2933 139.792L74.9696 140.002L75.4182 140.78H74.8751L74.4666 140.073L74.1429 140.283L74.4297 140.78H73.8081V141.181H74.4201L74.1285 141.536L74.4137 141.798L74.9248 141.181H75.4231L74.9408 141.939L75.2532 142.163L75.8813 141.181H76.2898L75.8172 141.914L75.9325 142.226L76.7528 142.41L76.4564 142.709L75.3622 142.454L75.2805 142.846L76.1248 143.041L75.7643 143.404L74.9921 143.327L74.9552 143.729L75.3974 143.771L74.9552 144.221L75.2148 144.51L75.6666 144.058L75.7819 144.627L76.152 144.543L75.9886 143.732L76.3827 143.334L76.5654 144.229L76.9355 144.144L76.7048 143.014L76.9931 142.722L77.1726 143.712L77.2815 143.86L77.461 143.841L78.2604 143.299V143.719L77.328 144.322L77.525 144.663L78.2604 144.19V144.766L77.5923 145.197L77.7894 145.538L78.2604 145.233V145.894H78.6401V145.243L78.9734 145.555L79.2249 145.251L78.6401 144.714V144.183L79.3563 144.697L79.5693 144.366L78.6401 143.699V143.268L79.3338 143.77L79.5117 143.79L79.6254 143.646L79.8017 142.778L80.0836 143.09L79.8449 144.248L80.215 144.334L80.3992 143.441L80.7437 143.826L80.6716 144.641L81.0497 144.677L81.0898 144.21L81.5111 144.68L81.7867 144.404L81.3573 143.929L81.8956 143.805L81.8187 143.41L81.0513 143.587L80.6764 143.17L81.5191 142.976L81.4406 142.587L80.3704 142.827L80.0964 142.524L81.0305 142.334L81.1715 142.217L81.157 142.031L80.6428 141.181H81.0385L81.6073 142.17L81.9341 141.961L81.4823 141.181H82.027L82.4339 141.89L82.7592 141.68L82.4724 141.181H83.0924L83.094 140.78H82.482L82.7736 140.425L82.4868 140.164L81.9773 140.78H81.4791L81.9613 140.024L81.6489 139.798L81.0209 140.78H80.6123L81.0866 140.048L81.1058 139.858L80.9696 139.737L80.1493 139.551L80.4441 139.253L81.5384 139.507L81.6201 139.117L80.7773 138.922L81.1378 138.558L81.9101 138.634L81.9469 138.232L81.5047 138.188L81.9485 137.742L81.6858 137.452L81.2356 137.905L81.1186 137.334L80.7501 137.42L80.9135 138.229L80.5178 138.627L80.3384 137.734L79.9667 137.817L80.1974 138.949L79.909 139.239L79.728 138.249L79.619 138.102L79.4412 138.119L78.6401 138.663V138.242L79.5758 137.639L79.3787 137.298L78.6401 137.773V137.197L79.3098 136.764L79.1111 136.424L78.6401 136.729V136.068H78.2604V136.719L77.9272 136.408Z" fill="#FC979B"/>
<path d="M4.873 193.86C6.94887 193.86 8.63414 195.643 8.63414 197.84C8.63414 200.037 6.94887 201.817 4.873 201.817C2.79649 201.817 1.11426 200.037 1.11426 197.84C1.11426 195.643 2.79649 193.86 4.873 193.86Z" fill="#FC979B"/>
</svg>
