<svg width="69" height="584" viewBox="0 0 69 584" fill="none" xmlns="http://www.w3.org/2000/svg">
<path d="M10.2418 356.83L11.6808 354.414L13.731 354.422L13.7198 355.109L13.8163 355.371L14.303 355.843L12.8835 357.414L10.2418 356.83ZM10.3495 351.477L12.9143 350.954L14.2862 352.351L13.8485 352.841L13.7828 352.943L13.7646 353.069L13.7562 353.743L11.8528 353.74L10.3495 351.477ZM13.7828 347.545L16.0693 349.066L16.0595 351.237L15.3994 351.219L15.1589 351.339L14.7184 351.842L13.2332 350.342L13.7828 347.545ZM18.8439 347.662L19.325 350.368L19.3334 350.388L18.0314 351.832L17.5559 351.361L17.3405 351.272L16.6916 351.258L16.7056 349.25L18.8439 347.662ZM22.5611 351.292L21.1291 353.697L19.0565 353.696L19.0677 353.008L18.9754 352.749L18.4985 352.28L19.918 350.71L22.5611 351.292ZM22.4493 356.646L19.8886 357.17L18.5111 355.784L18.953 355.284L19.0383 355.056L19.0509 354.369L20.9487 354.387L22.4493 356.646ZM19.0187 360.579L16.7336 359.058L16.7434 356.886L17.3909 356.898L17.63 356.779L18.0734 356.275L19.5656 357.797L19.0187 360.579ZM15.5966 356.174L15.219 355.807L14.7463 355.343L14.3701 354.976L14.3813 354.436L14.3925 353.749L14.4037 353.209L14.7519 352.811L15.1911 352.311L15.5393 351.915L16.0497 351.926L16.6972 351.938L17.2077 351.95L17.5811 352.317L18.0566 352.782L18.4314 353.15L18.4202 353.689L18.409 354.375L18.3978 354.914L18.051 355.312L17.6105 355.813L17.2636 356.21L16.7518 356.198L16.1043 356.185L15.5966 356.174ZM16.0819 358.867L13.959 360.462L13.4639 357.75L14.7701 356.294L15.2456 356.763L15.461 356.852L16.1099 356.867L16.0987 358.861L16.0819 358.867ZM8.93697 362.73L9.3747 362.24L9.37889 362.236L9.45861 362.627C9.49637 362.812 9.66838 362.929 9.8418 362.892C10.0166 362.852 10.1257 362.67 10.0893 362.486L9.91732 361.65L10.4725 361.033L10.4739 361.032L10.7019 362.155C10.741 362.338 10.9103 362.455 11.0851 362.415C11.2571 362.375 11.369 362.196 11.3312 362.011L11.0109 360.431L11.6808 359.718L12.0794 361.662C12.1172 361.847 12.2878 361.962 12.464 361.924C12.636 361.884 12.7451 361.703 12.7087 361.52L12.2192 359.116L12.9199 358.342L13.4191 361.115L13.6163 361.362L13.9212 361.329L16.0875 359.696L16.0973 360.759L14.1562 362.137L14.0387 362.292L14.0695 362.61C14.1687 362.766 14.3687 362.807 14.5156 362.702L16.0847 361.589L16.0875 361.592V362.603L14.826 363.504L14.7044 363.658L14.7379 363.976C14.8358 364.131 15.0358 364.173 15.1841 364.068L16.0805 363.432L16.0777 364.279L16.0749 364.284L15.4092 364.757L15.2903 364.914L15.3211 365.231C15.4204 365.388 15.6204 365.429 15.7686 365.324L16.0805 365.102V365.105L16.0749 365.778C16.0721 365.968 16.2217 366.121 16.4008 366.126C16.5798 366.127 16.7252 365.968 16.7238 365.79L16.7252 364.982V364.979L17.2273 365.306C17.3783 365.404 17.5769 365.355 17.6706 365.195C17.7587 365.04 17.7139 364.825 17.5643 364.725L16.728 364.179V364.174L16.7322 363.325L17.8188 364.034C17.9727 364.131 18.1684 364.083 18.2621 363.921C18.353 363.767 18.3083 363.551 18.1573 363.452L16.7336 362.523L16.7364 362.514V361.68L18.2314 362.652C18.381 362.751 18.581 362.699 18.6747 362.542C18.7642 362.387 18.7209 362.171 18.5698 362.072L16.7336 360.876L16.7308 359.867L19.0593 361.419L19.3558 361.445L19.5446 361.199L20.1096 358.337L20.799 359.045H20.8018L20.3389 361.276C20.3012 361.461 20.413 361.641 20.585 361.683C20.7599 361.723 20.9333 361.601 20.971 361.422L21.3472 359.599L21.3514 359.604L21.9192 360.185L21.922 360.187L21.564 361.922C21.5262 362.104 21.6367 362.288 21.8101 362.326C21.9849 362.368 22.1542 362.248 22.1947 362.066L22.4688 360.739L22.4716 360.743L23.0534 361.328L22.8408 362.353C22.8045 362.538 22.9149 362.718 23.0884 362.758C23.2618 362.8 23.431 362.681 23.4729 362.498L23.5974 361.881L23.6058 361.89L24.147 362.445C24.2757 362.573 24.4855 362.573 24.6071 362.436C24.7246 362.31 24.726 362.09 24.5931 361.959L24.1372 361.486L24.1358 361.484L24.4966 361.402C24.6701 361.362 24.7791 361.178 24.7442 360.996C24.7064 360.811 24.5358 360.696 24.361 360.734L23.5611 360.915L22.9905 360.333L22.9793 360.329H22.9779L24.0477 360.086C24.2212 360.045 24.333 359.866 24.2953 359.681C24.2575 359.494 24.0869 359.379 23.9121 359.416L22.4241 359.756L22.4199 359.75L21.7416 359.049H21.7388L23.5834 358.627C23.7568 358.59 23.8659 358.407 23.8296 358.225C23.7918 358.04 23.6212 357.922 23.4478 357.963L21.1682 358.482L21.1654 358.481L20.4466 357.746L23.0534 357.213C23.2646 357.17 23.3821 356.867 23.2562 356.682L21.729 354.381H22.7318L24.0337 356.43C24.1316 356.586 24.3302 356.629 24.4785 356.522C24.6253 356.418 24.6673 356.207 24.5652 356.05L23.5163 354.394L23.5191 354.396L24.4673 354.387H24.4729L25.3218 355.723C25.4211 355.88 25.621 355.921 25.7707 355.816C25.9161 355.713 25.9553 355.5 25.8574 355.343L25.2463 354.381L25.2574 354.387H26.0518L26.0532 354.388L26.5091 355.105C26.6084 355.263 26.807 355.303 26.9552 355.198C27.1007 355.094 27.1411 354.881 27.0433 354.727L26.8377 354.4V354.402L27.4798 354.396C27.6601 354.397 27.8027 354.239 27.8027 354.061C27.8054 353.872 27.6546 353.72 27.4738 353.717L26.7231 353.718H26.7119L27.0265 353.183C27.1176 353.026 27.0727 352.811 26.9216 352.712C26.7692 352.614 26.572 352.663 26.4769 352.823L25.9567 353.717L25.1553 353.712H25.1484L25.8238 352.557C25.9119 352.397 25.87 352.187 25.7189 352.085C25.5665 351.989 25.3679 352.037 25.2742 352.197L24.3932 353.708H24.3904H23.5988L23.5932 353.709L24.519 352.122C24.6099 351.962 24.5638 351.75 24.4127 351.651C24.2631 351.554 24.0631 351.602 23.9708 351.762L22.838 353.708H22.8352H21.8759L23.3485 351.233L23.3709 350.919L23.1415 350.718L20.4466 350.127L21.1109 349.401L23.2184 349.889C23.3904 349.929 23.5639 349.811 23.6016 349.627C23.6394 349.444 23.5303 349.262 23.3555 349.222L21.6409 348.825L22.1905 348.223L22.1919 348.217L23.8268 348.594C24.0016 348.631 24.1736 348.516 24.21 348.333C24.2491 348.148 24.14 347.967 23.9638 347.926L22.7178 347.64L23.273 347.023L23.2758 347.022L24.2351 347.242C24.4099 347.281 24.5792 347.165 24.6183 346.982C24.6561 346.797 24.547 346.616 24.375 346.575L23.7974 346.442L23.8002 346.439L24.3274 345.856C24.4463 345.73 24.4477 345.51 24.3176 345.381C24.1862 345.251 23.9778 345.249 23.8533 345.39L23.417 345.878L23.4156 345.881L23.3359 345.492C23.2981 345.307 23.1261 345.19 22.9527 345.23L22.7206 345.436L22.7038 345.635L22.873 346.468H22.8702L22.3178 347.085L22.0912 345.965C22.0535 345.783 21.8829 345.665 21.7094 345.705L21.4759 345.911L21.4619 346.109L21.7808 347.683L21.1165 348.412L21.1137 348.415L20.7151 346.458C20.6788 346.274 20.5067 346.158 20.3319 346.196L20.1012 346.403L20.083 346.601L20.5767 349.019L19.8718 349.78L19.3837 347.01L19.1852 346.764L18.8817 346.795L16.7014 348.424L16.7084 347.353L18.637 345.983C18.7824 345.878 18.8216 345.666 18.7251 345.51C18.6258 345.354 18.4258 345.313 18.2775 345.418L16.714 346.527L16.7014 345.52L17.9699 344.617C18.1167 344.514 18.1545 344.302 18.0566 344.145C17.9587 343.989 17.7587 343.947 17.6077 344.052L16.7084 344.691V344.688L16.714 343.839L17.3839 343.364C17.5321 343.259 17.5699 343.046 17.472 342.889C17.3727 342.732 17.1741 342.692 17.0259 342.796L16.7084 343.019V343.013L16.7168 342.339C16.7196 342.151 16.5686 341.997 16.4008 342C16.2217 341.997 16.0665 342.152 16.0791 342.334L16.0721 343.144L15.5672 342.814C15.4148 342.716 15.2176 342.766 15.1225 342.925L15.0987 342.978C15.0414 343.13 15.0932 343.308 15.2274 343.397L16.0749 343.947V343.949L16.0707 344.801L14.9757 344.086C14.8232 343.989 14.6247 344.039 14.5296 344.197L14.5058 344.249C14.4484 344.401 14.5002 344.579 14.6359 344.669L16.0665 345.601V345.607V346.446L14.5631 345.468C14.4121 345.369 14.2135 345.421 14.1198 345.579L14.096 345.629C14.0387 345.783 14.0904 345.959 14.2233 346.048L16.0693 347.25L16.0665 348.27L13.731 346.701L13.4359 346.677L13.2443 346.92L12.6849 349.769L11.9927 349.075L12.4556 346.844C12.4933 346.661 12.3815 346.479 12.2053 346.439C12.0332 346.399 11.8556 346.517 11.8235 346.699L11.4473 348.516L10.8711 347.936L11.2305 346.2C11.2655 346.016 11.1564 345.834 10.9844 345.792C10.8082 345.752 10.6334 345.872 10.5984 346.054L10.3271 347.377L9.74809 346.794L9.74251 346.788L9.95088 345.768C9.99004 345.584 9.87956 345.402 9.70615 345.36C9.53134 345.322 9.35652 345.44 9.32156 345.621L9.19569 346.233L8.64468 345.674C8.51322 345.545 8.31743 345.549 8.19576 345.687L8.12724 345.791L8.19576 346.161L8.66286 346.637L8.29785 346.718L8.06711 346.925L8.05031 347.125C8.08667 347.309 8.25871 347.426 8.43352 347.387L9.23065 347.207L9.79285 347.797L8.74678 348.035L8.51462 348.242L8.49924 348.441C8.537 348.626 8.70902 348.742 8.88243 348.701L10.3676 348.367L10.369 348.368L11.0571 349.071L9.21107 349.49L8.98032 349.698L8.96354 349.898C9.0013 350.081 9.17331 350.198 9.34672 350.16L11.6235 349.639L12.3423 350.373L9.73411 350.907L9.50196 351.116L9.53274 351.437L11.0613 353.737H10.06L8.76356 351.693C8.66287 351.536 8.46287 351.493 8.31603 351.598L8.19576 351.753L8.22793 352.071L9.2796 353.729L8.32443 353.731H8.31883L7.47275 352.397C7.37206 352.242 7.17206 352.2 7.02382 352.305L6.90495 352.459L6.93572 352.777L7.53428 353.718L6.74132 353.731L6.28681 353.014C6.18612 352.859 5.98474 352.817 5.8379 352.922L5.71903 353.079L5.74979 353.396L5.95957 353.724L5.30786 353.726L5.01838 353.937L5.0002 354.061C4.9974 354.251 5.13306 354.399 5.31486 354.403L6.07704 354.405H6.07984L5.76797 354.939C5.67008 355.099 5.72182 355.309 5.87146 355.408C6.0253 355.507 6.22249 355.457 6.31619 355.297L6.83363 354.408H6.84203L7.64336 354.414L6.97068 355.566C6.87418 355.72 6.92453 355.936 7.07557 356.034C7.228 356.134 7.4252 356.083 7.5189 355.923L8.39994 354.409L9.19569 354.417L8.27409 356C8.17899 356.157 8.22794 356.371 8.37897 356.47C8.53281 356.569 8.73139 356.518 8.82509 356.358L9.95647 354.412L10.9103 354.422L9.44183 356.886L9.42085 357.201L9.6488 357.399L12.3591 357.985L11.692 358.724L9.57608 358.232C9.42085 358.197 9.26701 358.286 9.20967 358.437L9.19289 358.493C9.15513 358.676 9.26422 358.86 9.43903 358.9L11.1648 359.298L10.6124 359.903L10.6082 359.907L8.96774 359.527C8.8125 359.491 8.65727 359.58 8.59853 359.733L8.58455 359.789C8.54539 359.972 8.65447 360.154 8.82929 360.196L10.0865 360.484L10.0837 360.486L9.53134 361.1L9.52994 361.101L8.55937 360.878C8.40274 360.841 8.2489 360.933 8.19016 361.083L8.17338 361.141C8.13842 361.325 8.24751 361.507 8.42232 361.547L8.9999 361.68L8.47406 362.269C8.35519 362.394 8.3538 362.615 8.48526 362.744C8.60553 362.868 8.81391 362.868 8.93697 362.73Z" fill="#FC979B"/>
<path d="M-20.7506 -7.61713L-18.8724 -10.775L-16.1887 -10.7622L-16.2041 -9.86652L-16.0796 -9.52148L-15.4433 -8.90583L-17.2977 -6.85352L-20.7506 -7.61713ZM-20.6079 -14.6115L-17.2557 -15.2946L-15.4629 -13.4718L-16.0362 -12.8302L-16.123 -12.6956L-16.1495 -12.532L-16.1579 -11.6524L-18.6444 -11.6564L-20.6079 -14.6115ZM-16.1216 -19.7506L-13.1358 -17.7631L-13.147 -14.9247L-14.0112 -14.9478L-14.3259 -14.7935L-14.9021 -14.1346L-16.8418 -16.0986L-16.1216 -19.7506ZM-9.50807 -19.5993L-8.88014 -16.061L-8.86895 -16.038L-10.5723 -14.1491L-11.1932 -14.7618L-11.4743 -14.8814L-12.3204 -14.8987L-12.3023 -17.5215L-9.50807 -19.5993ZM-4.65109 -14.8531L-6.52226 -11.7102L-9.22977 -11.713L-9.21437 -12.6089L-9.33606 -12.951L-9.95978 -13.5625L-8.10397 -15.6154L-4.65109 -14.8531ZM-4.79512 -7.85697L-8.14453 -7.17326L-9.9444 -8.98218L-9.36682 -9.63941L-9.25493 -9.93576L-9.23815 -10.8316L-6.75862 -10.8103L-4.79512 -7.85697ZM-9.28151 -2.71709L-12.2673 -4.70533L-12.2547 -7.54315L-11.4072 -7.52688C-11.2786 -7.53146 -11.1695 -7.58058 -11.094 -7.68356L-10.5178 -8.34241L-8.56688 -6.35358L-9.28151 -2.71709ZM-13.7539 -8.47365L-14.2448 -8.95155L-14.8657 -9.56306L-15.3566 -10.041L-15.3412 -10.7449L-15.3258 -11.6426L-15.3104 -12.3488L-14.8573 -12.869L-14.2811 -13.5221L-13.828 -14.0411L-13.1609 -14.0266L-12.3134 -14.0093L-11.6464 -13.9942L-11.1583 -13.5163L-10.5402 -12.9066L-10.0479 -12.4268L-10.0619 -11.7218L-10.0772 -10.8241L-10.0926 -10.1207L-10.5443 -9.60064L-11.1219 -8.9446L-11.5723 -8.42556L-12.2393 -8.44347L-13.0868 -8.45915L-13.7539 -8.47365ZM-13.1176 -4.9539L-15.8922 -2.86919L-16.5397 -6.4132L-14.8321 -8.31578L-14.2112 -7.70605L-13.9301 -7.5865L-13.0812 -7.56904L-13.0952 -4.96071L-13.1176 -4.9539ZM-22.4568 0.0935L-21.8848 -0.545822L-21.8792 -0.552626L-21.7729 -0.0383283C-21.7253 0.203285 -21.5016 0.355828 -21.2736 0.305522C-21.0471 0.253589 -20.903 0.0137513 -20.9492 -0.225051L-21.1743 -1.31683L-20.4499 -2.12364L-20.4471 -2.12467L-20.1492 -0.657824C-20.0989 -0.417985 -19.8765 -0.263668 -19.6486 -0.317524C-19.4234 -0.367682 -19.2766 -0.602933 -19.3255 -0.844547L-19.7451 -2.90899L-18.8696 -3.84423L-18.3508 -1.30292C-18.3004 -1.0613 -18.0766 -0.908167 -17.8501 -0.9601C-17.6221 -1.0104 -17.4795 -1.24803 -17.527 -1.48905L-18.1648 -4.62736L-17.2515 -5.64161L-16.5984 -2.01607C-16.5803 -1.87507 -16.4824 -1.75596 -16.3411 -1.6953L-15.9426 -1.73747L-13.112 -3.87308L-13.098 -2.48199L-15.6349 -0.67987L-15.7887 -0.477614L-15.7482 -0.0614105C-15.6181 0.140847 -15.3566 0.195739 -15.165 0.0581386L-13.1134 -1.39761L-13.112 -1.39539L-13.1092 -0.0729515L-14.7636 1.10493L-14.9174 1.30719L-14.8769 1.72265C-14.7468 1.92565 -14.4839 1.98158 -14.2909 1.84294L-13.1204 1.01069L-13.126 2.11859L-13.1274 2.12436L-13.9972 2.74341L-14.1553 2.94863L-14.1119 3.36291C-13.9832 3.56635 -13.7217 3.62124 -13.5301 3.48142L-13.1204 3.19423V3.19645L-13.1288 4.07783C-13.1316 4.3264 -12.9372 4.52644 -12.7008 4.53221C-12.4659 4.53443 -12.2785 4.3264 -12.2813 4.09411L-12.2785 3.03755V3.03355L-11.6212 3.46011C-11.4226 3.5912 -11.1653 3.52477 -11.0422 3.31378C-10.9275 3.1133 -10.9821 2.8313 -11.1807 2.70124L-12.2743 1.98853V1.98276L-12.2701 0.870868L-10.8478 1.79663C-10.6492 1.92565 -10.3919 1.86321 -10.2688 1.65045C-10.15 1.44879 -10.2087 1.16782 -10.4045 1.03835L-12.2673 -0.176963L-12.2645 -0.185694V-1.27984L-10.3094 -0.00829261C-10.1122 0.121762 -9.85349 0.055919 -9.73043 -0.151073C-9.61155 -0.35333 -9.67029 -0.636518 -9.86888 -0.766572L-12.2673 -2.32811L-12.2701 -3.64759L-9.22697 -1.62014L-8.84098 -1.58833C-8.70813 -1.64795 -8.61163 -1.75951 -8.59205 -1.90688L-7.85504 -5.64738L-6.95441 -4.72442L-6.95021 -4.71984L-7.55435 -1.80686C-7.6033 -1.56524 -7.45787 -1.32718 -7.23271 -1.27347C-7.00476 -1.22317 -6.7782 -1.3803 -6.72925 -1.61614L-6.23698 -3.99736L-6.23278 -3.99159L-5.49019 -3.23154L-5.48599 -3.22976L-5.95168 -0.963059C-6.00343 -0.723221 -5.85938 -0.484566 -5.63142 -0.433077C-5.40486 -0.379369 -5.18111 -0.536499 -5.13076 -0.772343L-4.77276 -2.50729L-4.76856 -2.50152L-4.00777 -1.73865L-4.28467 -0.398307C-4.33361 -0.157877 -4.18818 0.0784087 -3.96162 0.132117C-3.73507 0.184198 -3.51411 0.032838 -3.46097 -0.207148L-3.29734 -1.01396L-3.28615 -1.00242L-2.57991 -0.278167C-2.40929 -0.110532 -2.13518 -0.110531 -1.97715 -0.291482C-1.82331 -0.454383 -1.82053 -0.743493 -1.99394 -0.91098L-2.59109 -1.53343L-2.59249 -1.53521L-2.12259 -1.64337C-1.89464 -1.6953 -1.7492 -1.93292 -1.79955 -2.17276C-1.8457 -2.4126 -2.06945 -2.56573 -2.29881 -2.51306L-3.34348 -2.27677L-4.08889 -3.04082L-4.10427 -3.04481H-4.10567L-2.70857 -3.36337C-2.47922 -3.41648 -2.33517 -3.65055 -2.38551 -3.89335C-2.43306 -4.13319 -2.65683 -4.28455 -2.88479 -4.23424L-4.83008 -3.79392L-4.83288 -3.79969L-5.72093 -4.71688H-5.72513L-3.31692 -5.26772C-3.08756 -5.31788 -2.94491 -5.55668 -2.99246 -5.79474C-3.0414 -6.03636 -3.26378 -6.1889 -3.49313 -6.13756L-6.47052 -5.45844L-6.47332 -5.45962L-7.4159 -6.42075L-4.00497 -7.11718C-3.73086 -7.17208 -3.57984 -7.56904 -3.74207 -7.81007L-5.73771 -10.8171H-4.42872H-4.42732L-2.72954 -8.14016C-2.59948 -7.93435 -2.33797 -7.88005 -2.14358 -8.01809C-1.95198 -8.15569 -1.90023 -8.43134 -2.03169 -8.63655L-3.40362 -10.7998L-3.39942 -10.7982L-2.16036 -10.8103H-2.15336L-1.04296 -9.06134C-0.912899 -8.8579 -0.651371 -8.803 -0.45698 -8.9406C-0.265385 -9.07865 -0.215047 -9.35503 -0.34231 -9.56128L-1.14085 -10.8171H-1.13945L-1.12687 -10.8103L-0.0891741 -10.8086L-0.0877913 -10.8056L0.50797 -9.87111C0.636632 -9.6653 0.899555 -9.61218 1.09115 -9.75082C1.28274 -9.88664 1.33728 -10.1641 1.20862 -10.3675L0.937318 -10.7913L0.940118 -10.7901L1.77642 -10.7982C2.01416 -10.7941 2.20017 -11.0021 2.20017 -11.2351C2.20296 -11.4829 2.00716 -11.6824 1.77082 -11.6859L0.790469 -11.6824H0.776488L1.18626 -12.3834C1.30093 -12.5869 1.24499 -12.869 1.04641 -12.9979C0.849217 -13.1262 0.590493 -13.0625 0.467425 -12.8516L-0.213642 -11.6859L-1.26112 -11.6917H-1.26951L-0.387055 -13.2025C-0.270979 -13.4093 -0.326935 -13.6868 -0.525522 -13.8168C-0.724108 -13.9439 -0.981417 -13.8804 -1.10448 -13.6723L-2.25685 -11.6975H-2.25825H-3.29314L-3.30154 -11.6939L-2.09183 -13.7705C-1.97436 -13.9787 -2.0331 -14.2561 -2.23168 -14.3832C-2.42747 -14.515 -2.68759 -14.4496 -2.80926 -14.2416L-4.28887 -11.6975L-4.29307 -11.6985L-5.54751 -11.6975L-3.62318 -14.9305C-3.54067 -15.0508 -3.53788 -15.2021 -3.59242 -15.3415C-3.65535 -15.464 -3.75884 -15.5663 -3.8917 -15.6044L-7.41451 -16.3772L-6.54604 -17.3268L-3.79381 -16.6893C-3.56585 -16.6361 -3.34068 -16.7875 -3.29034 -17.0291C-3.24279 -17.269 -3.38544 -17.507 -3.6134 -17.5591L-5.85379 -18.0792L-5.13776 -18.8653L-5.13496 -18.874L-2.99666 -18.381C-2.7701 -18.3307 -2.54215 -18.4821 -2.4946 -18.7219C-2.44705 -18.9617 -2.58829 -19.1993 -2.81624 -19.2542L-4.4455 -19.6281L-3.72108 -20.4333L-3.71829 -20.4373L-2.46384 -20.1466C-2.23588 -20.0963 -2.01211 -20.2484 -1.96036 -20.4882C-1.91282 -20.7292 -2.05547 -20.9661 -2.28203 -21.021L-3.03442 -21.1926L-3.03022 -21.1974L-2.34077 -21.9573C-2.18554 -22.1233 -2.18413 -22.4111 -2.35615 -22.5797C-2.52817 -22.7509 -2.79947 -22.7521 -2.96169 -22.5682L-3.53229 -21.9302L-3.53507 -21.9266L-3.63856 -22.4341C-3.68891 -22.6757 -3.91268 -22.8301 -4.13923 -22.778C-4.28188 -22.7462 -4.39097 -22.6393 -4.44131 -22.5075L-4.46368 -22.2474L-4.24272 -21.1616L-4.24692 -21.1598L-4.96713 -20.3536L-5.26641 -21.8157C-5.31396 -22.0555 -5.53773 -22.2088 -5.76429 -22.1567C-5.90833 -22.1249 -6.01742 -22.0209 -6.06637 -21.888L-6.08733 -21.6279L-5.67058 -19.5704L-6.54044 -18.6179L-6.54184 -18.6155L-7.0635 -21.1731C-7.11105 -21.4129 -7.3376 -21.5661 -7.56555 -21.5134C-7.7068 -21.4822 -7.81449 -21.3776 -7.86483 -21.2453L-7.8886 -20.9846L-7.24389 -17.8238L-8.1669 -16.8338L-8.80322 -20.4518C-8.83818 -20.5992 -8.93607 -20.7187 -9.06194 -20.7726C-9.20179 -20.8321 -9.35282 -20.8187 -9.45911 -20.7303L-12.3079 -18.6023L-12.2995 -20.0026L-9.78077 -21.7908C-9.58917 -21.9302 -9.53604 -22.2041 -9.6647 -22.411C-9.79476 -22.6151 -10.0549 -22.67 -10.2493 -22.5324L-12.2911 -21.0828L-12.3079 -22.3983L-10.6534 -23.5784C-10.459 -23.7114 -10.4115 -23.9906 -10.5402 -24.1941C-10.6674 -24.4003 -10.9275 -24.454 -11.1219 -24.3172L-12.2981 -23.4802V-23.4814L-12.2911 -24.5946L-11.4156 -25.2171C-11.224 -25.3539 -11.1737 -25.6303 -11.3023 -25.8354C-11.431 -26.0406 -11.6897 -26.0937 -11.8841 -25.9579L-12.2981 -25.6631V-25.6736L-12.2897 -26.555C-12.2869 -26.8024 -12.4827 -27.0011 -12.7008 -26.9999C-12.9372 -27.0029 -13.1386 -26.8006 -13.1232 -26.562L-13.1316 -25.5014L-13.7917 -25.9336C-13.9889 -26.0626 -14.249 -25.9972 -14.372 -25.7874L-14.4042 -25.718C-14.4783 -25.5216 -14.4112 -25.2893 -14.2336 -25.1737L-13.1288 -24.454V-24.453L-13.1344 -23.3386L-14.565 -24.2691C-14.7636 -24.4003 -15.0223 -24.3345 -15.1454 -24.1247L-15.1776 -24.0571C-15.2531 -23.8588 -15.1846 -23.6276 -15.0056 -23.5104L-13.1372 -22.2908V-22.2828V-21.1869L-15.1035 -22.4659C-15.302 -22.593 -15.5608 -22.5284 -15.6824 -22.3204L-15.716 -22.2532C-15.7901 -22.0555 -15.723 -21.8226 -15.5482 -21.7077L-13.1358 -20.138L-13.1386 -18.8028L-16.1901 -20.8545L-16.5775 -20.8864C-16.7103 -20.8275 -16.79 -20.709 -16.8278 -20.5691L-17.5578 -16.8454L-18.4626 -17.7516L-17.8599 -20.6674C-17.8095 -20.9072 -17.9536 -21.1471 -18.1829 -21.1974C-18.4095 -21.2505 -18.6403 -21.0979 -18.6836 -20.8563L-19.1759 -18.4821L-19.9283 -19.2391L-19.4598 -21.5094C-19.4122 -21.751 -19.5535 -21.9874 -19.7828 -22.0394C-20.0094 -22.0931 -20.2373 -21.9383 -20.2835 -21.6983L-20.6401 -19.972L-21.3953 -20.732L-21.4037 -20.7408L-21.1296 -22.074C-21.0792 -22.3156 -21.2233 -22.5509 -21.4498 -22.6046C-21.6792 -22.6584 -21.9071 -22.5017 -21.9533 -22.2649L-22.1169 -21.4643L-22.1183 -21.466L-22.8385 -22.1961C-23.0092 -22.3647 -23.2651 -22.3573 -23.4259 -22.1788L-23.514 -22.0429C-23.5769 -21.8775 -23.5392 -21.6868 -23.4231 -21.5615L-22.8134 -20.9373L-23.2917 -20.8303C-23.4329 -20.7974 -23.5434 -20.6916 -23.5937 -20.5598L-23.6161 -20.3015C-23.5658 -20.0599 -23.342 -19.9073 -23.1154 -19.9576L-22.0736 -20.1945L-21.3366 -19.4219L-22.7043 -19.1091C-22.8469 -19.0779 -22.9574 -18.9733 -23.0092 -18.841L-23.0301 -18.5803C-22.9798 -18.3405 -22.7546 -18.1879 -22.5281 -18.2394L-20.587 -18.6785L-20.5842 -18.6774L-19.6863 -17.7585L-22.0987 -17.2065C-22.2386 -17.1747 -22.3477 -17.0689 -22.4008 -16.9378L-22.4218 -16.6777C-22.3714 -16.4379 -22.1477 -16.2847 -21.9197 -16.3367L-18.9437 -17.0128L-18.0039 -16.0553L-21.4135 -15.3588C-21.5547 -15.3235 -21.668 -15.2172 -21.7183 -15.0854L-21.6778 -14.6646L-19.6807 -11.6599H-20.9883L-22.6833 -14.3311C-22.8134 -14.5381 -23.0763 -14.5924 -23.2693 -14.4566L-23.4231 -14.2503L-23.3826 -13.8359L-22.0078 -11.6714L-23.2581 -11.6669H-23.2623L-24.3699 -13.4093C-24.5014 -13.6134 -24.7629 -13.6677 -24.9559 -13.5307L-25.1097 -13.3284L-25.0692 -12.9134L-24.2874 -11.6824L-25.3251 -11.6669L-25.9208 -12.6019C-26.0509 -12.8082 -26.3138 -12.8621 -26.5068 -12.7227L-26.6606 -12.5192L-26.6201 -12.106L-26.3488 -11.6772L-27.1963 -11.6754C-27.3627 -11.6714 -27.5137 -11.5628 -27.5766 -11.3964L-27.6032 -11.2351C-27.6074 -10.9848 -27.4256 -10.7923 -27.1879 -10.7883L-26.1935 -10.7865L-26.1921 -10.7855L-26.5977 -10.089C-26.7264 -9.87984 -26.6606 -9.60641 -26.4607 -9.4734C-26.2621 -9.3463 -26.0047 -9.41111 -25.8817 -9.61973L-25.2034 -10.7825H-25.1936L-24.1489 -10.775L-25.0258 -9.26833C-25.1517 -9.06489 -25.0873 -8.78569 -24.8887 -8.65564C-24.6902 -8.52736 -24.4314 -8.5932 -24.3098 -8.80123L-23.156 -10.7797L-22.1169 -10.771L-23.3224 -8.70077C-23.4483 -8.49496 -23.3826 -8.21532 -23.1854 -8.08749C-22.9868 -7.95921 -22.7267 -8.02564 -22.6036 -8.23381L-21.124 -10.7768L-19.8779 -10.7622L-21.7953 -7.54315C-21.861 -7.41591 -21.8792 -7.27254 -21.8246 -7.13094C-21.7645 -7.01139 -21.6582 -6.90738 -21.5267 -6.87261L-17.983 -6.10693L-18.8556 -5.14344L-21.6219 -5.78498C-21.8246 -5.83055 -22.0246 -5.71499 -22.1001 -5.51555L-22.1211 -5.44335C-22.1715 -5.2041 -22.026 -4.96648 -21.7995 -4.91336L-19.5451 -4.39033L-20.2667 -3.6032L-20.2723 -3.59566L-22.4148 -4.09102C-22.6204 -4.13777 -22.8218 -4.02222 -22.8987 -3.82218L-22.9183 -3.75057C-22.9672 -3.51073 -22.8246 -3.27311 -22.5952 -3.21999L-20.9548 -2.8396V-2.83856L-21.6792 -2.03516L-21.682 -2.03338L-22.9504 -2.32708C-23.1546 -2.37324 -23.356 -2.25591 -23.4315 -2.05661L-23.4525 -1.98426C-23.5 -1.74442 -23.3588 -1.50799 -23.1294 -1.45428L-22.3742 -1.27984L-23.0609 -0.509275C-23.2161 -0.342824 -23.2175 -0.0574158 -23.0455 0.113622C-22.8917 0.274896 -22.6176 0.274895 -22.4568 0.0935Z" fill="#FC979B"/>
<path d="M52.6642 581.286L53.9757 579.083L55.8501 579.092L55.8386 579.716L55.9255 579.956L56.3717 580.387L55.0755 581.819L52.6642 581.286ZM52.7646 576.404L55.1044 575.927L56.3559 577.198L55.9561 577.648L55.896 577.741L55.8779 577.854L55.8708 578.469L54.1352 578.466L52.7646 576.404ZM55.8986 572.814L57.9811 574.203L57.9729 576.186L57.3715 576.17L57.1518 576.276L56.7476 576.736L55.3939 575.365L55.8986 572.814ZM60.5137 572.922L60.9529 575.391L60.9617 575.405L59.773 576.725L59.3375 576.298L59.1437 576.214L58.5493 576.202L58.5629 574.371L60.5137 572.922ZM63.905 576.235L62.599 578.428L60.7099 578.426L60.7196 577.802L60.6328 577.562L60.199 577.134L61.4943 575.702L63.905 576.235ZM63.8061 581.119L61.4665 581.597L60.2105 580.333L60.6131 579.875L60.6918 579.669L60.7044 579.042L62.4339 579.056L63.8061 581.119ZM60.6732 584.707L58.5881 583.319L58.5967 581.336L59.1896 581.35L59.4074 581.24L59.8106 580.782L61.1715 582.168L60.6732 584.707ZM57.549 580.69L57.2082 580.354L56.7743 579.928L56.4319 579.593L56.4428 579.102L56.4526 578.476L56.4625 577.984L56.7787 577.621L57.1813 577.163L57.4971 576.8L57.9642 576.812L58.5558 576.822L59.0202 576.833L59.3616 577.167L59.7965 577.595L60.1362 577.927L60.1281 578.419L60.1182 579.048L60.1067 579.539L59.7909 579.901L59.3894 580.36L59.0721 580.722L58.6078 580.711L58.0161 580.7L57.549 580.69ZM57.9954 583.147L56.0571 584.603L55.6065 582.127L56.7978 580.798L57.2317 581.224L57.4261 581.307L58.0204 581.319L58.0106 583.14L57.9954 583.147ZM51.4726 586.672L51.8725 586.223L51.877 586.22L51.9512 586.579C51.9828 586.746 52.1397 586.854 52.2992 586.817C52.4587 586.781 52.5582 586.616 52.5243 586.448L52.3691 585.686L52.8755 585.123L52.8766 585.121L53.0853 586.145C53.1202 586.312 53.2755 586.422 53.4333 586.385C53.5928 586.348 53.695 586.183 53.6584 586.015L53.3661 584.574L53.9785 583.92L54.3396 585.697C54.3762 585.865 54.5313 585.972 54.6892 585.936C54.8488 585.899 54.9492 585.735 54.917 585.568L54.4696 583.374L55.1087 582.667L55.5633 585.197L55.7452 585.422L56.0206 585.392L57.9992 583.902L58.0089 584.873L56.2373 586.13L56.1281 586.272L56.1576 586.561C56.2482 586.703 56.4319 586.741 56.5657 586.647L57.998 585.63V585.632L57.9992 586.556L56.8471 587.377L56.7377 587.518L56.7672 587.808C56.8585 587.95 57.0388 587.989 57.1759 587.892L57.9926 587.311L57.9899 588.085L57.9866 588.088L57.3796 588.521L57.271 588.663L57.2988 588.955C57.3911 589.095 57.5714 589.134 57.7069 589.038L57.9937 588.836L57.9926 588.838L57.9866 589.453C57.9839 589.628 58.121 589.766 58.2849 589.768C58.4482 589.77 58.5798 589.628 58.5798 589.464V588.727V588.721L59.0388 589.023C59.177 589.112 59.3561 589.067 59.4441 588.919C59.5238 588.777 59.4845 588.582 59.349 588.49L58.5826 587.993L58.5843 587.989L58.5881 587.215L59.5785 587.86C59.7166 587.95 59.8969 587.904 59.9838 587.759C60.0663 587.617 60.0259 587.42 59.8871 587.33L58.5881 586.482L58.5907 586.475V585.711L59.9543 586.601C60.0914 586.691 60.2734 586.645 60.3602 586.499C60.4428 586.36 60.4007 586.161 60.2651 586.07L58.5881 584.979L58.5853 584.059L60.7099 585.475L60.9807 585.497L61.1544 585.274L61.6691 582.664L62.2984 583.307H62.3012L61.88 585.343C61.8439 585.512 61.9461 585.679 62.104 585.714C62.2618 585.753 62.4213 585.642 62.4537 585.476L62.7988 583.813L62.8022 583.816L63.3206 584.349H63.3232L62.9977 585.933C62.9627 586.101 63.0633 586.266 63.2217 586.303C63.3806 586.339 63.5364 586.231 63.5725 586.065L63.8215 584.855L63.8253 584.858L64.3541 585.39L64.1623 586.327C64.1274 586.494 64.2285 586.66 64.3864 586.697C64.5458 586.735 64.701 586.627 64.7377 586.46L64.8518 585.896L64.8605 585.905L65.3511 586.411L65.7751 586.402L65.7625 585.969L65.3429 585.535V585.534L65.6717 585.457C65.8307 585.422 65.9319 585.256 65.8979 585.089C65.8646 584.918 65.7078 584.815 65.5482 584.849L64.8185 585.015L64.2995 584.483L64.2869 584.479L65.2631 584.257C65.4227 584.222 65.5247 584.057 65.4882 583.889C65.4548 583.72 65.2971 583.612 65.1402 583.649L63.7811 583.958L63.7766 583.954L63.1584 583.313L63.1572 583.312L64.8381 582.927C64.996 582.891 65.0982 582.727 65.0648 582.559C65.0298 582.391 64.873 582.285 64.7152 582.319L62.6339 582.795V582.794L61.9756 582.122L64.3569 581.635C64.5503 581.597 64.6552 581.32 64.5415 581.151L63.1484 579.053H64.0619L65.2478 580.922C65.3385 581.064 65.5204 581.103 65.6576 581.008C65.7892 580.91 65.8279 580.718 65.7356 580.576L64.7781 579.065H64.7807L65.645 579.058H65.6505L66.4268 580.276C66.5163 580.419 66.6994 580.456 66.8337 580.361C66.9681 580.265 67.0031 580.074 66.9118 579.929L66.3569 579.053H66.3584L66.3694 579.058L67.0894 579.059H67.0926L67.5095 579.713C67.5986 579.855 67.7821 579.895 67.9159 579.798C68.0503 579.704 68.0853 579.509 67.9973 579.366L67.8084 579.071H67.8099L68.3945 579.065C68.5584 579.068 68.6894 578.922 68.6894 578.76C68.6922 578.587 68.554 578.448 68.3917 578.445L67.705 578.448L67.6952 578.447L67.9821 577.959C68.0629 577.815 68.0225 577.621 67.8853 577.529C67.7471 577.439 67.5663 577.487 67.48 577.633L67.0058 578.445L66.2727 578.441H66.2672L66.8828 577.386C66.9653 577.242 66.9244 577.049 66.7879 576.957C66.6491 576.868 66.4672 576.912 66.3819 577.06L65.5778 578.438L65.5768 578.436L64.855 578.438L64.849 578.439L65.6941 576.989C65.7751 576.846 65.7345 576.651 65.5975 576.562C65.4576 576.47 65.2785 576.516 65.1932 576.661L64.1597 578.436H64.1569H63.2817L64.624 576.18L64.6452 575.892L64.4355 575.708L61.9766 575.168L62.5824 574.507L64.5038 574.952C64.6644 574.989 64.8212 574.883 64.8561 574.715C64.89 574.547 64.789 574.382 64.6294 574.345L63.0659 573.981L63.5669 573.433L63.5697 573.425L65.0621 573.771C65.2211 573.805 65.3762 573.7 65.4118 573.532C65.445 573.363 65.3456 573.199 65.1877 573.162L64.0493 572.9L64.5557 572.336L64.5569 572.335L65.4336 572.537C65.5931 572.574 65.7482 572.468 65.7832 572.299C65.8198 572.131 65.7176 571.966 65.5597 571.929L65.0353 571.808L65.0381 571.805L65.5193 571.272L65.5078 570.839L65.0856 570.845L64.6868 571.293L64.6841 571.296L64.6114 570.941C64.5781 570.772 64.423 570.664 64.2634 570.7L64.0537 570.889L64.0368 571.071L64.1918 571.829L64.1907 571.83L63.6843 572.391L63.4774 571.374C63.4441 571.206 63.2883 571.098 63.1294 571.135L62.9163 571.323L62.9026 571.505L63.1949 572.941L62.5879 573.604L62.5852 573.607L62.2214 571.823C62.1881 571.654 62.0296 571.548 61.8717 571.582L61.661 571.771L61.6467 571.951L62.0958 574.161L61.4522 574.851L61.0059 572.324L60.8273 572.099L60.5486 572.129L58.5618 573.616L58.5657 572.638L60.3253 571.389C60.458 571.293 60.4973 571.101 60.405 570.959C60.3153 570.815 60.1335 570.777 59.998 570.873L58.5728 571.883L58.5602 570.966L59.7155 570.142C59.851 570.047 59.886 569.853 59.7965 569.711C59.7057 569.569 59.5238 569.532 59.3867 569.627L58.5672 570.21V570.209L58.5728 569.433L59.1824 568.997C59.3168 568.901 59.3518 568.708 59.2638 568.565C59.1726 568.424 58.9896 568.386 58.8569 568.482L58.5672 568.685V568.679L58.5728 568.065C58.5744 567.892 58.4373 567.752 58.2849 567.754C58.121 567.752 57.9785 567.892 57.9926 568.06L57.9839 568.799L57.5255 568.495C57.3856 568.406 57.2048 568.452 57.1196 568.599L57.0961 568.646C57.0443 568.785 57.0918 568.946 57.2163 569.028L57.9866 569.532V569.534L57.9828 570.309H57.9839L56.9824 569.66C56.846 569.569 56.664 569.614 56.5788 569.76L56.5574 569.806C56.5044 569.945 56.552 570.106 56.6749 570.189L57.9811 571.04V571.047V571.811L56.6078 570.919C56.4695 570.83 56.2892 570.874 56.2024 571.021L56.18 571.068C56.1281 571.206 56.1773 571.369 56.2991 571.45L57.9811 572.545L57.9785 573.477L55.8484 572.042L55.5785 572.02L55.4037 572.242L54.8946 574.843L54.2625 574.212L54.6837 572.175C54.717 572.008 54.6165 571.839 54.457 571.805C54.2992 571.767 54.1396 571.875 54.1074 572.042L53.7649 573.7L53.2388 573.171L53.5661 571.586C53.5982 571.417 53.5005 571.253 53.3409 571.216C53.1815 571.181 53.0219 571.287 52.9886 571.454L52.7422 572.662L52.2123 572.129L52.2069 572.123L52.4014 571.192C52.4347 571.024 52.3341 570.858 52.1747 570.821C52.0168 570.784 51.8572 570.895 51.8251 571.059L51.7102 571.617L51.2072 571.108L50.7969 571.12L50.7356 571.215L50.7969 571.551L51.2236 571.984L50.8892 572.06L50.6794 572.249L50.6657 572.431C50.698 572.598 50.8542 572.706 51.0138 572.671L51.7426 572.505L52.2561 573.045L51.2995 573.262L51.0897 573.449L51.0728 573.631C51.1088 573.798 51.2645 573.907 51.4224 573.869L52.7788 573.563H52.7815L53.4082 574.206L51.7245 574.591L51.5131 574.779L51.4978 574.961C51.5311 575.128 51.6896 575.235 51.849 575.199L53.9255 574.726L54.5826 575.394L52.2014 575.883L51.9888 576.074L52.0178 576.367L53.4125 578.466H52.5008L51.3148 576.597C51.2236 576.455 51.0405 576.415 50.9061 576.512L50.7969 576.655L50.8281 576.944L51.7873 578.457L50.9149 578.46H50.9104L50.1369 577.242C50.0463 577.099 49.8627 577.062 49.7273 577.157L49.6196 577.3L49.6491 577.59L50.196 578.448L49.4715 578.46L49.0548 577.806C48.9636 577.663 48.7805 577.624 48.645 577.722L48.5375 577.864L48.5653 578.154L48.7565 578.451L48.1638 578.453L47.8993 578.648L47.8798 578.76C47.877 578.935 48.0042 579.07 48.1681 579.073L48.8657 579.074L48.5817 579.561C48.4926 579.707 48.5386 579.898 48.6785 579.99C48.8172 580.079 48.9974 580.033 49.0826 579.888L49.5552 579.077H49.564L50.2922 579.083L49.6787 580.132C49.5918 580.276 49.6366 580.469 49.7764 580.56C49.9136 580.65 50.0939 580.607 50.1807 580.458L50.986 579.08L51.7119 579.085L50.8685 580.529C50.7816 580.674 50.8281 580.87 50.9663 580.959C51.105 581.049 51.2864 581.004 51.3706 580.857L52.404 579.082L53.2738 579.092L51.9343 581.338L51.9146 581.625L52.1227 581.807L54.5969 582.341L53.9871 583.013L52.0572 582.567C51.9146 582.533 51.7747 582.615 51.7217 582.752L51.7076 582.804C51.6742 582.973 51.773 583.137 51.9315 583.174L53.5059 583.538L53.0027 584.09L53.0001 584.094L51.5022 583.747C51.3595 583.716 51.2181 583.795 51.1662 583.936L51.1508 583.988C51.1176 584.155 51.2181 584.321 51.376 584.358L52.5215 584.621V584.623L52.0168 585.185H52.014L51.1285 584.981C50.986 584.948 50.8461 585.031 50.7931 585.169L50.7777 585.219C50.7428 585.386 50.8433 585.553 51.0039 585.59L51.5311 585.711L51.0514 586.249L51.0614 586.684L51.4726 586.672Z" fill="#FC979B"/>
<path d="M39.4236 128.368C37.4082 128.368 35.7749 126.64 35.7749 124.507C35.7749 122.376 37.4082 120.648 39.4236 120.648C41.4388 120.648 43.0732 122.376 43.0732 124.507C43.0732 126.64 41.4388 128.368 39.4236 128.368Z" fill="#FC979B"/>
<path d="M41.055 294.13L42.7152 291.338L45.0872 291.35L45.0719 292.141L45.1833 292.445L45.7443 292.99L44.1066 294.803L41.055 294.13ZM41.1812 287.948L44.1415 287.343L45.7274 288.954L45.2216 289.521L45.1445 289.641L45.1205 289.783L45.1133 290.562L42.9152 290.556L41.1812 287.948ZM45.1456 283.404L47.7847 285.163L47.7733 287.671L47.0112 287.651L46.7331 287.786L46.224 288.367L44.5081 286.634L45.1456 283.404ZM50.9887 283.54L51.5454 286.666L51.5536 286.687L50.0502 288.356L49.5022 287.815L49.2532 287.708L48.5037 287.694L48.5218 285.374L50.9887 283.54ZM55.281 287.734L53.6278 290.51L51.2362 290.507L51.2504 289.716L51.1411 289.415L50.5915 288.874L52.2321 287.059L55.281 287.734ZM55.1547 293.914L52.1955 294.52L50.6041 292.923L51.1133 292.341L51.2139 292.079L51.228 291.288L53.4208 291.306L55.1547 293.914ZM51.1904 298.457L48.5522 296.701L48.5622 294.193L49.3116 294.208L49.5875 294.07L50.0994 293.488L51.8207 295.245L51.1904 298.457ZM47.2363 293.371L46.8058 292.948L46.2547 292.409L45.8225 291.985L45.834 291.362L45.8492 290.571L45.8618 289.946L46.2616 289.489L46.7725 288.908L47.1707 288.451L47.7624 288.463L48.5092 288.478L49.0991 288.492L49.5312 288.915L50.0797 289.456L50.5118 289.877L50.5003 290.5L50.4866 291.294L50.4741 291.916L50.0742 292.377L49.565 292.955L49.1652 293.413L48.5746 293.4L47.828 293.384L47.2363 293.371ZM47.8 296.484L45.3483 298.326L44.7763 295.191L46.2857 293.509L46.8353 294.049L47.0812 294.156L47.8323 294.17L47.8197 296.474L47.8 296.484ZM39.5479 300.944L40.0526 300.375L40.058 300.37L40.1503 300.825C40.1951 301.039 40.3907 301.175 40.5923 301.129C40.7939 301.082 40.9206 300.873 40.8774 300.66L40.6819 299.694L41.3221 298.983H41.3238L41.5866 300.277C41.6297 300.488 41.8269 300.628 42.0285 300.58C42.2285 300.535 42.3584 300.325 42.3137 300.113L41.9432 298.288L42.718 297.463L43.1752 299.71C43.2216 299.922 43.4172 300.056 43.6188 300.011C43.8197 299.966 43.946 299.756 43.9039 299.543L43.3391 296.769L44.147 295.874L44.7233 299.077L44.9528 299.362L45.3041 299.324L47.8054 297.437L47.8197 298.665L45.5767 300.258L45.4395 300.437L45.4755 300.805C45.5892 300.984 45.8197 301.033 45.9919 300.912L47.8054 299.624V299.628L47.8071 300.796L46.3485 301.836L46.2098 302.013L46.2481 302.381C46.3622 302.564 46.5917 302.609 46.7637 302.49L47.799 301.753L47.793 302.731L47.7919 302.735L47.0227 303.283L46.884 303.465L46.9216 303.831C47.0353 304.013 47.2674 304.059 47.4368 303.938L47.8 303.683L47.799 303.685L47.7891 304.463C47.7875 304.683 47.9612 304.859 48.1693 304.862C48.3748 304.865 48.5413 304.683 48.5413 304.478L48.543 303.544V303.54L49.1205 303.917C49.2979 304.033 49.5246 303.975 49.635 303.79C49.7355 303.61 49.687 303.361 49.5131 303.246L48.5468 302.615V302.611L48.5511 301.629L49.8054 302.447C49.9819 302.562 50.2081 302.504 50.3173 302.321C50.4222 302.14 50.3692 301.892 50.1972 301.776L48.5522 300.704L48.5556 300.695V299.728L50.2813 300.854C50.4562 300.968 50.6838 300.909 50.7943 300.726C50.8981 300.548 50.8462 300.296 50.6724 300.183L48.5522 298.802L48.5496 297.635L51.2378 299.428L51.5804 299.457L51.8 299.177L52.45 295.87L53.2487 296.685L53.2515 296.687L52.7188 299.264C52.674 299.477 52.8013 299.685 53.0024 299.733C53.2022 299.779 53.4011 299.639 53.4459 299.432L53.8808 297.327L53.8851 297.331L54.5423 298.003L54.5451 298.005L54.131 300.007C54.0878 300.22 54.215 300.431 54.415 300.478C54.6167 300.523 54.815 300.384 54.8581 300.177L55.1744 298.643L55.1799 298.648L55.8513 299.324L55.6065 300.509C55.5633 300.721 55.6906 300.929 55.8906 300.977C56.0915 301.023 56.2889 300.889 56.3336 300.677L56.4806 299.962L56.4876 299.973L57.1115 300.614C57.265 300.762 57.5043 300.763 57.6469 300.603C57.7812 300.456 57.7823 300.203 57.6316 300.052L57.1017 299.503H57.1L57.5152 299.407C57.7184 299.362 57.8457 299.15 57.8037 298.939C57.7616 298.725 57.5616 298.591 57.3601 298.638L56.4385 298.846H56.4374L55.7785 298.174L55.7633 298.169L56.9996 297.887C57.2022 297.841 57.3278 297.633 57.2847 297.421C57.2426 297.206 57.0427 297.071 56.8443 297.116L55.1241 297.508L55.1197 297.502L54.337 296.691H54.3336L56.4626 296.206C56.6624 296.159 56.7898 295.95 56.7477 295.738C56.7045 295.525 56.5056 295.389 56.3073 295.435L53.6737 296.037L53.6727 296.035L52.84 295.187L55.8513 294.572C56.096 294.521 56.2314 294.172 56.0861 293.957L54.3227 291.3H55.4782H55.4793L56.9815 293.666C57.0945 293.846 57.3267 293.894 57.4972 293.772C57.6665 293.651 57.7124 293.409 57.5977 293.226L56.3855 291.315L56.3872 291.317L57.4836 291.306H57.49L58.4707 292.851C58.5853 293.03 58.8176 293.079 58.988 292.958C59.1584 292.836 59.2032 292.594 59.0885 292.411L58.3838 291.3H58.3855L58.3981 291.306L59.3126 291.309H59.3152L59.8413 292.136C59.956 292.318 60.1866 292.366 60.357 292.243C60.5263 292.124 60.5727 291.878 60.4609 291.696L60.2216 291.324H60.2231L60.9639 291.317C61.171 291.319 61.3376 291.137 61.3359 290.933C61.3387 290.713 61.1656 290.536 60.9584 290.532L60.0898 290.535L60.0773 290.534L60.4395 289.914C60.5417 289.735 60.493 289.489 60.3182 289.375C60.1434 289.259 59.9139 289.316 59.8047 289.503L59.2049 290.534L58.2789 290.526H58.2718L59.0498 289.192C59.153 289.009 59.1043 288.763 58.928 288.649C58.7532 288.535 58.5253 288.593 58.4161 288.778L57.3977 290.523L57.3951 290.522L56.4821 290.523L56.4761 290.524L57.5436 288.688C57.6469 288.506 57.5966 288.26 57.4218 288.148C57.2481 288.033 57.0192 288.091 56.9116 288.275L55.6021 290.522L55.5994 290.52L54.4893 290.522L56.19 287.665L56.2178 287.299L55.9517 287.068L52.84 286.387L53.6082 285.547L56.0402 286.112C56.2429 286.158 56.4402 286.023 56.4833 285.812C56.527 285.599 56.4007 285.388 56.1992 285.342L54.2195 284.883L54.8526 284.189L54.8554 284.18L56.7434 284.616C56.9449 284.661 57.1449 284.527 57.188 284.316C57.2317 284.1 57.1045 283.892 56.9045 283.845L55.4622 283.514L56.1041 282.803L56.1075 282.8L57.2148 283.054C57.4175 283.101 57.6146 282.965 57.6594 282.754C57.7026 282.54 57.577 282.33 57.3754 282.284L56.71 282.131L56.7144 282.128L57.3252 281.455C57.4595 281.309 57.4611 281.054 57.3098 280.905C57.1575 280.754 56.9182 280.754 56.7744 280.915L56.2708 281.481L56.268 281.484L56.1774 281.033C56.1325 280.82 55.9353 280.684 55.7338 280.731L55.4667 280.969L55.4487 281.198L55.643 282.158L55.6398 282.16L55.0022 282.873L54.7395 281.582C54.6975 281.368 54.4992 281.233 54.2975 281.279L54.0304 281.516L54.0124 281.747L54.3801 283.566L53.6126 284.405L53.6092 284.408L53.1509 282.149C53.1062 281.938 52.909 281.802 52.7073 281.846L52.4419 282.085L52.4222 282.314L52.9913 285.108L52.1774 285.985L51.6126 282.787L51.3842 282.501L51.0334 282.54L48.5162 284.421L48.5218 283.183L50.7494 281.601C50.9188 281.481 50.9663 281.237 50.8516 281.054C50.7368 280.874 50.5064 280.828 50.3342 280.948L48.5315 282.226L48.5162 281.065L49.9791 280.023C50.1496 279.904 50.1928 279.659 50.0797 279.478C49.965 279.297 49.7344 279.248 49.5635 279.371L48.5244 280.11V280.108L48.5299 279.125L49.305 278.574C49.4727 278.454 49.5186 278.21 49.4056 278.028C49.2909 277.849 49.0603 277.8 48.8893 277.921L48.5244 278.181V278.172L48.5332 277.393C48.5359 277.173 48.3611 276.998 48.1693 277C47.9612 276.998 47.7804 277.173 47.7973 277.385L47.7891 278.322L47.2056 277.941C47.0298 277.828 46.803 277.886 46.6927 278.071L46.6631 278.132C46.5977 278.305 46.6577 278.51 46.814 278.613L47.7902 279.252L47.7919 279.253L47.7864 280.234V280.235L46.5206 279.412C46.3458 279.297 46.1175 279.355 46.0088 279.54L45.981 279.6C45.9137 279.774 45.9738 279.98 46.13 280.084L47.7831 281.16V281.169V282.135L46.0449 281.007C45.8701 280.893 45.6422 280.95 45.5329 281.134L45.5039 281.195C45.4379 281.368 45.4996 281.573 45.6537 281.676L47.7847 283.063L47.7804 284.244L45.0855 282.429L44.743 282.4L44.5223 282.682L43.8772 285.973L43.0757 285.172L43.609 282.595C43.652 282.383 43.5265 282.172 43.3248 282.127C43.1238 282.08 42.9206 282.215 42.8817 282.426L42.4464 284.527L41.781 283.855L42.1962 281.851C42.24 281.639 42.111 281.429 41.9111 281.383C41.7095 281.337 41.5095 281.472 41.4675 281.683L41.1545 283.211L40.4847 282.537L40.4776 282.53L40.7195 281.352C40.7627 281.14 40.6372 280.929 40.4344 280.883C40.2345 280.837 40.0329 280.975 39.9925 281.183L39.8466 281.891V281.89L39.2107 281.246C39.0584 281.097 38.8327 281.101 38.6902 281.261L38.6131 281.38C38.5575 281.525 38.5896 281.694 38.6917 281.805L39.2315 282.355L38.8092 282.45L38.5432 282.69L38.524 282.92C38.5672 283.132 38.7644 283.268 38.9671 283.222L39.8887 283.014L40.5377 283.696L39.3282 283.97L39.0594 284.209L39.0413 284.44C39.0845 284.651 39.2834 284.789 39.4834 284.741L41.2009 284.353L41.2036 284.356L41.9962 285.167L39.8652 285.654C39.739 285.681 39.6413 285.775 39.5981 285.893L39.5795 286.122C39.6233 286.334 39.8188 286.469 40.0214 286.424L42.6524 285.826L43.4827 286.671L40.4705 287.287L40.1996 287.529L40.2357 287.902L42.0007 290.556H40.8453L39.3473 288.193C39.2332 288.014 38.9994 287.965 38.83 288.085L38.6917 288.266L38.7295 288.631L39.9434 290.546L38.8398 290.549H38.836L37.8554 289.009C37.7423 288.827 37.5101 288.781 37.3392 288.902L37.2009 289.082L37.237 289.45L37.9281 290.535L37.012 290.549L36.4875 289.723C36.3717 289.542 36.1406 289.493 35.9702 289.616L35.8304 289.795L35.8669 290.16L36.1073 290.539L35.3588 290.542C35.2125 290.544 35.0791 290.642 35.0235 290.789L34.9994 290.932C34.9967 291.152 35.1551 291.321 35.3633 291.325L36.2471 291.326V291.328L35.8849 291.942C35.7729 292.128 35.8319 292.371 36.0095 292.486C36.1843 292.6 36.4137 292.541 36.5214 292.358L37.1195 291.329L37.1295 291.331L38.0526 291.338L37.278 292.669C37.1644 292.848 37.2233 293.095 37.3981 293.209C37.574 293.323 37.8024 293.266 37.9111 293.081L38.9283 291.332L39.8466 291.339L38.7825 293.17C38.6721 293.351 38.7295 293.6 38.9043 293.712C39.0791 293.824 39.3096 293.767 39.4173 293.582L40.7251 291.335L41.8269 291.35L40.1323 294.193L40.1039 294.557L40.3699 294.787L43.4996 295.462L42.7295 296.312L40.2859 295.748C40.1073 295.706 39.928 295.81 39.8609 295.985L39.8428 296.05C39.799 296.261 39.9264 296.472 40.1263 296.518L42.118 296.979L41.4844 297.675L41.4789 297.682L39.5828 297.245C39.4035 297.203 39.2244 297.305 39.1588 297.482L39.1392 297.545C39.096 297.757 39.2233 297.967 39.4233 298.013L40.8748 298.349L40.8731 298.35L40.2329 299.061V299.062L39.1124 298.802C38.9295 298.762 38.7518 298.867 38.6847 299.042L38.6667 299.107C38.6229 299.318 38.7502 299.528 38.9518 299.575L39.6205 299.728L39.0135 300.407C38.8765 300.556 38.8748 300.811 39.0272 300.961C39.1643 301.103 39.4063 301.103 39.5479 300.944Z" fill="#FC979B"/>
<path d="M16.5036 446.348L19.8292 440.756L24.5827 440.778L24.5534 442.366C24.531 442.595 24.6429 442.811 24.7743 442.973L25.9001 444.065L22.6178 447.7L16.5036 446.348ZM16.7567 433.964L22.6878 432.752L25.8651 435.983L24.8526 437.117L24.6974 437.355L24.6512 437.64L24.6373 439.203L20.2306 439.194L16.7567 433.964ZM24.7002 424.86L29.9893 428.381L29.9683 433.409L28.4398 433.367C28.2384 433.385 28.0174 433.461 27.8832 433.64L26.8609 434.804L23.4248 431.328L24.7002 424.86ZM36.41 425.129L37.5244 431.394L37.5425 431.435L34.5286 434.779L33.4295 433.696C33.2868 433.566 33.0924 433.484 32.9334 433.484L31.4298 433.452L31.4675 428.804L36.41 425.129ZM45.0107 433.536L41.6992 439.098L36.9049 439.095L36.9329 437.504C36.9541 437.279 36.8727 437.071 36.7131 436.902L35.6113 435.822L38.8977 432.187L45.0107 433.536ZM44.7588 445.921L38.8252 447.133L35.6392 443.931L36.6613 442.768C36.782 442.618 36.8492 442.444 36.8618 442.243L36.8908 440.654L41.2823 440.693L44.7588 445.921ZM36.8126 455.021L31.5277 451.502L31.5458 446.475L33.0509 446.504C33.2759 446.497 33.4688 446.413 33.6015 446.231L34.628 445.066L38.0795 448.586L36.8126 455.021ZM28.8915 444.83L28.0244 443.983L26.9266 442.902L26.0567 442.054L26.0819 440.807L26.1113 439.219L26.1364 437.967L26.9392 437.051L27.9587 435.888L28.76 434.97L29.9418 434.996L31.4424 435.026L32.6225 435.053L33.4895 435.902L34.5893 436.98L35.4545 437.83L35.431 439.08L35.406 440.667L35.3791 441.915L34.5778 442.835L33.5556 443.997L32.7526 444.914L31.5738 444.887L30.0732 444.856L28.8915 444.83ZM30.0215 451.066L25.1044 454.756L23.9604 448.478L26.9839 445.108L28.0846 446.186C28.1992 446.305 28.395 446.386 28.5796 446.399L30.0844 446.43L30.0592 451.05L30.0215 451.066ZM13.4828 460.004L14.494 458.869L14.5052 458.857L14.6926 459.767C14.7765 460.195 15.175 460.467 15.575 460.374C15.9778 460.284 16.2337 459.862 16.1498 459.437L15.754 457.502L17.0392 456.076L17.0406 456.073L17.5679 458.671C17.656 459.096 18.0517 459.369 18.4545 459.275C18.8559 459.186 19.116 458.766 19.0265 458.341L18.2867 454.682L19.8376 453.028L20.7536 457.53C20.8417 457.956 21.2403 458.228 21.6403 458.137C22.0445 458.045 22.2962 457.625 22.2137 457.202L21.0809 451.639L22.6989 449.844L23.8527 456.264C23.8877 456.515 24.0639 456.727 24.3128 456.835C24.5338 456.926 24.7995 456.907 25.0149 456.759L30.0313 452.976L30.0564 455.44L25.5617 458.631C25.4358 458.723 25.3435 458.85 25.289 458.992C25.1981 459.226 25.2176 459.501 25.3617 459.726C25.591 460.087 26.0553 460.183 26.3952 459.94L30.0285 457.36L30.0299 457.366L30.0313 459.708L27.1098 461.791C26.9812 461.883 26.8861 462.009 26.8329 462.151C26.7448 462.385 26.763 462.661 26.907 462.886C27.1364 463.25 27.5993 463.345 27.9419 463.101L30.0173 461.626L30.0061 463.588L30.0033 463.596L28.4594 464.694C28.3335 464.789 28.2384 464.916 28.1852 465.057C28.0957 465.291 28.1153 465.566 28.2566 465.79C28.4873 466.151 28.9488 466.248 29.2915 466.002L30.0187 465.494L30.0173 465.498L29.9991 467.058C29.9935 467.498 30.3417 467.851 30.7571 467.859C31.171 467.864 31.5053 467.498 31.5025 467.086L31.5067 465.218V465.207L32.6674 465.964C33.0197 466.192 33.4759 466.077 33.6955 465.706C33.9009 465.348 33.8015 464.85 33.4519 464.617L31.5137 463.355L31.5165 463.346L31.5249 461.377L34.038 463.016C34.3887 463.247 34.8476 463.13 35.0645 462.76C35.2759 462.401 35.171 461.905 34.8214 461.673L31.5249 459.522L31.5319 459.505V457.572L34.9902 459.823C35.3415 460.054 35.8003 459.936 36.0194 459.566C36.2265 459.208 36.1242 458.708 35.7735 458.48L31.5249 455.712L31.5207 453.374L36.9077 456.971C37.1175 457.095 37.3703 457.1 37.5943 457.026C37.8293 456.918 37.9986 456.722 38.0336 456.462L39.3381 449.836L40.9365 451.471L40.9425 451.476L39.874 456.636C39.7855 457.064 40.04 457.484 40.4415 457.579C40.8458 457.669 41.2457 457.393 41.331 456.975L42.2022 452.757L42.2111 452.766L43.5282 454.112L43.5336 454.115L42.7086 458.129C42.6191 458.555 42.8737 458.977 43.278 459.069C43.6795 459.162 44.075 458.884 44.1656 458.468L44.7983 455.395L44.8075 455.405L46.1503 456.759L45.6624 459.131C45.5756 459.559 45.8286 459.977 46.2329 460.071C46.6344 460.164 47.0287 459.894 47.121 459.468L47.4133 458.039L47.4314 458.06L48.6791 459.343C48.985 459.64 49.4646 459.641 49.7515 459.32C50.0212 459.029 50.0229 458.52 49.7181 458.218L48.6605 457.12L48.6577 457.117L49.4914 456.926C49.894 456.833 50.1502 456.412 50.0633 455.988C49.9782 455.561 49.581 455.293 49.1767 455.383L47.3291 455.803L46.0094 454.453L45.9782 454.445L48.4524 453.882C48.8566 453.788 49.1139 453.371 49.0254 452.943C48.9391 452.519 48.543 452.247 48.1404 452.337L44.6961 453.12L44.6874 453.108L43.1184 451.486L43.113 451.483L47.3784 450.508C47.7793 450.419 48.0338 449.998 47.9487 449.573C47.8624 449.145 47.4647 448.878 47.0648 448.966L41.7898 450.171L41.7844 450.169L40.1199 448.468L46.1547 447.234C46.6442 447.136 46.9141 446.432 46.6229 446.004L43.0889 440.681L45.4062 440.682H45.4107L48.4175 445.423C48.6468 445.784 49.1079 445.88 49.4521 445.637C49.7891 445.395 49.8842 444.905 49.652 444.541L47.2233 440.709L47.2271 440.712L49.4226 440.696H49.4368L51.4017 443.786C51.6323 444.149 52.0966 444.245 52.4381 444.002C52.7806 443.76 52.8686 443.27 52.6408 442.908L51.2269 440.684H51.2297L51.2564 440.696L53.091 440.699H53.0925L54.1468 442.359C54.3791 442.72 54.8417 442.814 55.1832 442.572C55.5218 442.331 55.6152 441.836 55.3874 441.477L54.909 440.727H54.9117L56.3987 440.712C56.8154 440.719 57.1466 440.354 57.1455 439.942C57.1493 439.502 56.8013 439.151 56.3861 439.144L54.6478 439.148H54.6227L55.347 437.907C55.5524 437.546 55.4547 437.051 55.1034 436.818C54.7511 436.59 54.2949 436.705 54.0759 437.08L52.8712 439.145L51.0182 439.132H51.003L52.5637 436.457C52.7697 436.088 52.6703 435.6 52.3179 435.368C51.9682 435.141 51.5094 435.257 51.2914 435.628L49.2538 439.124L49.2494 439.121L47.416 439.124L47.4035 439.126L49.546 435.451C49.753 435.084 49.6492 434.592 49.2996 434.363C48.95 434.135 48.4917 434.251 48.2748 434.618L45.6554 439.121L45.6483 439.118L43.4276 439.121L46.8342 433.394C46.9795 433.182 46.985 432.915 46.8861 432.667C46.7752 432.45 46.5895 432.268 46.3556 432.203L40.1199 430.834L41.6571 429.155L46.5321 430.282C46.9348 430.374 47.3346 430.105 47.4216 429.682C47.5068 429.256 47.2522 428.834 46.8496 428.739L42.8808 427.822L44.152 426.43L44.159 426.412L47.9415 427.286C48.3458 427.377 48.7446 427.109 48.8315 426.683C48.9167 426.256 48.6648 425.838 48.2607 425.742L45.374 425.077L46.6594 423.651L46.6639 423.647L48.8872 424.16C49.2915 424.249 49.6859 423.981 49.7765 423.555C49.8634 423.127 49.6105 422.71 49.2073 422.615L47.875 422.31L47.8816 422.299L49.1024 420.952C49.3767 420.659 49.3795 420.15 49.0763 419.848C48.7725 419.55 48.29 419.55 48.0049 419.869L46.9938 421.004L46.9894 421.01L46.8037 420.107C46.7167 419.68 46.3197 419.409 45.9182 419.501C45.6663 419.557 45.4718 419.742 45.3838 419.979C45.3308 420.118 45.3139 420.279 45.3462 420.437L45.7351 422.364L45.7308 422.37L44.4524 423.792L43.9269 421.207C43.84 420.781 43.444 420.505 43.0413 420.599C42.7895 420.658 42.594 420.843 42.5033 421.075C42.4513 421.217 42.4372 421.377 42.4684 421.537L43.2064 425.181L41.6669 426.866L41.6626 426.869L40.741 422.345C40.6541 421.917 40.2569 421.646 39.8543 421.738C39.6024 421.796 39.4096 421.981 39.3201 422.214C39.2671 422.356 39.2502 422.516 39.2808 422.676L40.422 428.272L38.7885 430.028L37.6599 423.621C37.5998 423.358 37.4239 423.143 37.2026 423.05C36.9541 422.944 36.6853 422.967 36.4962 423.124L31.4549 426.894L31.4675 424.414L35.9314 421.245C36.2686 421.003 36.3635 420.514 36.1342 420.15C35.9036 419.789 35.4419 419.693 35.0994 419.934L31.4843 422.501L31.4535 420.17L34.3861 418.085C34.7274 417.844 34.8154 417.352 34.5893 416.99C34.3598 416.629 33.8966 416.531 33.5513 416.775L31.4703 418.256V418.253L31.4829 416.284L33.035 415.18C33.3737 414.938 33.466 414.448 33.2366 414.086C33.0071 413.723 32.5455 413.628 32.203 413.87L31.4717 414.389V414.374L31.4857 412.816C31.4927 412.374 31.1445 412.02 30.7571 412.025C30.3403 412.02 29.9809 412.375 30.0131 412.798L29.9963 414.676L28.8272 413.911C28.4761 413.683 28.0174 413.799 27.7993 414.171L27.7433 414.291C27.6091 414.64 27.7293 415.052 28.044 415.257L30.0005 416.534L30.0019 416.537L29.9907 418.506L29.9921 418.509L27.4566 416.857C27.1056 416.629 26.6469 416.744 26.4301 417.116L26.3742 417.234C26.2399 417.585 26.3602 417.996 26.6749 418.203L29.9851 420.36V420.378V422.318L26.5029 420.051C26.1532 419.823 25.6931 419.939 25.4778 420.31L25.4204 420.427C25.2862 420.781 25.4092 421.19 25.7197 421.396L29.9893 424.175L29.9809 426.538L24.5799 422.904C24.3701 422.779 24.1128 422.774 23.8947 422.848C23.6597 422.953 23.5171 423.164 23.4513 423.41L22.1591 430.007L20.5537 428.402L21.6221 423.237C21.7102 422.812 21.4557 422.392 21.0515 422.299C20.6487 422.205 20.2418 422.478 20.1621 422.901L19.2936 427.109L17.9594 425.765L18.7874 421.747C18.8741 421.321 18.6209 420.902 18.2196 420.807C17.814 420.715 17.4126 420.986 17.3287 421.411L16.7008 424.469L15.3596 423.121L15.3457 423.106L15.8323 420.747C15.9204 420.319 15.6645 419.899 15.2631 419.804C14.859 419.714 14.4548 419.988 14.3737 420.408L14.0842 421.825H14.0828L12.8074 420.532C12.5025 420.23 12.0494 420.241 11.7655 420.562L11.6103 420.801C11.4984 421.094 11.5627 421.429 11.7683 421.652L12.8479 422.759L12.0046 422.948C11.7515 423.007 11.5571 423.192 11.469 423.428C11.4145 423.567 11.4005 423.725 11.4313 423.886C11.518 424.312 11.9137 424.585 12.3165 424.494L14.1625 424.074L15.4659 425.443L13.0409 425.996C12.792 426.051 12.5948 426.236 12.5067 426.47C12.4536 426.612 12.4354 426.77 12.4675 426.933C12.557 427.359 12.9528 427.631 13.3542 427.538L16.7931 426.758L16.8001 426.762L18.3888 428.39L14.1192 429.365C13.866 429.423 13.6731 429.608 13.5836 429.843C13.5304 429.984 13.5136 430.143 13.543 430.302C13.6325 430.728 14.0311 431 14.4324 430.908L19.702 429.708L21.369 431.404L15.3303 432.639C15.0813 432.7 14.8799 432.888 14.7904 433.122C14.7023 433.358 14.7233 433.64 14.8618 433.869L18.3986 439.192H16.084L13.0787 434.453C12.8493 434.095 12.385 433.996 12.0424 434.239C11.9137 434.332 11.8214 434.456 11.7683 434.598C11.6788 434.835 11.6984 435.106 11.8424 435.335L14.2744 439.17L12.0648 439.176H12.0536L10.0929 436.088C9.86354 435.727 9.39923 435.634 9.058 435.875C8.92934 435.964 8.83424 436.093 8.7811 436.235C8.6916 436.468 8.70978 436.745 8.85523 436.969L10.2383 439.148L8.40211 439.176L7.34904 437.519C7.11689 437.158 6.654 437.059 6.31137 437.306C6.1841 437.396 6.09179 437.522 6.03725 437.664C5.94635 437.898 5.96593 438.171 6.10717 438.399L6.58967 439.158L5.08768 439.161C4.7954 439.17 4.52828 439.361 4.4164 439.654L4.37164 439.942C4.36324 440.383 4.68351 440.724 5.10026 440.731L6.86797 440.736L6.14774 441.97C5.92258 442.341 6.04005 442.826 6.39247 443.057C6.7421 443.283 7.2008 443.168 7.41897 442.8L8.61889 440.741H8.63705L10.4873 440.755L8.93215 443.419C8.70979 443.783 8.82307 444.278 9.17689 444.507C9.52791 444.735 9.98521 444.619 10.2034 444.25L12.2424 440.747L14.0856 440.759L11.9501 444.429C11.7277 444.79 11.8438 445.288 12.1934 445.515C12.5459 445.742 13.006 445.627 13.2213 445.257L15.8393 440.753L18.0489 440.778L14.652 446.476C14.5359 446.701 14.5023 446.957 14.5988 447.206C14.7079 447.42 14.8967 447.604 15.1289 447.667L21.4039 449.02L19.86 450.727L14.9625 449.591C14.6045 449.509 14.2436 449.715 14.1122 450.066L14.0744 450.196C13.9863 450.622 14.2408 451.044 14.6436 451.135L18.6363 452.06L17.3623 453.457L17.3525 453.47L13.5542 452.591C13.1934 452.507 12.8367 452.714 12.7011 453.065L12.6633 453.195C12.5766 453.621 12.8325 454.04 13.2353 454.136L16.1428 454.805L16.14 454.808L14.8576 456.233L14.8534 456.234L12.6088 455.716C12.2452 455.633 11.89 455.842 11.7557 456.193L11.7179 456.321C11.6312 456.747 11.8858 457.166 12.2885 457.262L13.6297 457.572L12.4116 458.934C12.1361 459.226 12.1361 459.735 12.4396 460.038C12.7151 460.322 13.1976 460.322 13.4828 460.004Z" fill="#FC979B"/>
<path d="M11.5035 92.8083L10.53 87.43L15.8613 82.0725L15.8579 89.8506L11.5035 92.8083ZM4.69257 84.6011L7.29797 80.5649H14.2442L9.2086 85.6294L4.69257 84.6011ZM4.28701 73.6878L9.37083 72.6595L14.4344 78.2981H7.084L4.28701 73.6878ZM12.0443 66.4838L15.8613 69.2387L15.8579 76.5922L11.0725 71.2613L12.0443 66.4838ZM22.3599 66.0532L23.3334 71.4344L18.0032 76.789L18.0066 69.0124L22.3599 66.0532ZM29.1688 74.2619L26.5663 78.2981H19.6175L24.6549 73.2321L29.1688 74.2619ZM29.5758 85.1722L24.4936 86.205L19.4285 80.5649H26.7788L29.5758 85.1722ZM21.8186 92.3792L18.0032 89.6243V82.2708L22.7904 87.6032L21.8186 92.3792ZM19.8928 105.305L21.3066 103.594L18.0032 100.541V97.5548L22.049 100.453L23.2509 98.5727L18.0032 94.8161L18.0066 92.3748L21.9261 95.2052C22.2211 95.4168 22.5975 95.4597 22.9274 95.3191C23.2618 95.18 23.5049 94.8738 23.5782 94.5068L24.5778 89.5947L26.1692 91.3657L24.8083 97.9172L26.906 98.3996L27.9522 93.3528L29.8964 95.5159L29.4923 100.138L31.626 100.348L31.8598 97.7042L34.2481 100.36L35.8024 98.7946L33.3769 96.1003L36.4301 95.402L35.9784 93.1871L31.6485 94.1725L29.5244 91.8111L34.2957 90.7236L33.8472 88.5042L27.7944 89.8817L26.2462 88.158L31.537 87.0868C31.8866 87.0143 32.1816 86.7657 32.3214 86.4195C32.4613 86.0792 32.4329 85.6901 32.2374 85.3572L29.3299 80.5649H31.5746L34.7977 86.1561L36.6301 84.9769L34.0876 80.5649L37.1714 80.5678L39.4773 84.5671L41.3079 83.3849L39.6799 80.5649H43.1985L43.2002 78.2981L39.7363 78.2952L41.3876 76.2963L39.7739 74.8049L36.8863 78.2981H34.0609L36.8004 74.0163L35.0233 72.7453L31.4737 78.2981H29.1633L31.8402 74.145C32.2417 73.5236 31.8752 72.556 31.1786 72.3991L26.5385 71.3427L28.2122 69.659L34.4023 71.0971L34.8622 68.8792L30.0904 67.774L32.1351 65.7129L36.5055 66.145L36.7043 63.8827L34.2051 63.64L36.7141 61.1144L35.2385 59.4677L32.6874 62.0318L32.0291 58.8033L29.9342 59.2798L30.8667 63.8605L28.6318 66.1095L27.6043 61.0597L25.5092 61.5376L26.8099 67.9382L25.1804 69.5761L24.168 63.9789C24.0927 63.6016 23.8616 63.2983 23.5372 63.1518C23.2115 63.0009 22.8351 63.0319 22.5347 63.2376L18.0032 66.3122L18.0066 63.9404L23.2859 60.5271L22.1697 58.5932L18.0032 61.2801V58.0206L21.7851 55.5793L20.6675 53.6441L18.0032 55.3648V51.6408H15.8613L15.8579 55.3086L13.9661 53.5583L12.5579 55.2687L15.8579 58.321V61.3082L11.8148 58.4098L10.6109 60.2888L15.8613 64.0469L15.8579 66.4897L11.9383 63.6593C11.6434 63.4462 11.268 63.4018 10.9342 63.5424C10.6026 63.683 10.3607 63.9863 10.2853 64.3562L9.28496 69.2668L7.69095 67.4958L9.0528 60.9457L6.95674 60.4619L5.91206 65.5102L3.96535 63.3441L4.37232 58.7249L2.23541 58.5133L2.00605 61.1603L-0.383974 58.503L-1.9363 60.0654L0.485886 62.7627L-2.56563 63.4581L-2.11532 65.6759L2.21583 64.6905L4.34015 67.0505L-0.434319 68.1409L0.0173934 70.3558L6.0673 68.9798L7.61822 70.705L2.32632 71.7747C1.97529 71.8457 1.68301 72.0958 1.54036 72.4405C1.40051 72.7882 1.43127 73.1907 1.62566 73.5058L4.53314 78.2952H2.28995L-0.936375 72.7083L-2.76842 73.8861L-0.225944 78.2981H-3.30964L-5.61436 74.2959L-7.44219 75.4781L-5.81853 78.2952L-9.33576 78.2981L-9.33716 80.5649L-5.87028 80.5678L-7.52611 82.5682L-5.90944 84.0581L-3.02294 80.5649H-0.19938L-2.93763 84.8452L-1.16015 86.1192L2.39064 80.5649H4.69956L2.02143 84.7165C1.82285 85.0272 1.77951 85.4238 1.91236 85.7774C2.04522 86.128 2.33469 86.3855 2.68292 86.4624L7.32734 87.5218L5.65194 89.2055L-0.539207 87.7674L-0.997915 89.9823L3.77095 91.0905L1.72635 93.1501L-2.63975 92.7195L-2.84115 94.9803L-0.34063 95.2229L-2.85232 97.7486L-1.37551 99.3953L1.17675 96.8283L1.83264 100.06L3.92759 99.5832L2.9962 95.0025L5.22959 92.7536L6.25889 97.8033L8.35355 97.324L7.05463 90.9248L8.6808 89.2869L9.69807 94.8841C9.76632 95.2614 10.0013 95.5662 10.324 95.7127C10.6518 95.8636 11.0276 95.8311 11.3287 95.6269L15.8579 92.5494V94.9226L10.5759 98.336L11.6919 100.273L15.8613 97.5814L15.8579 100.844L12.0765 103.285L13.1943 105.219L15.8579 103.498V107.222L18.0032 107.225V103.554L19.8928 105.305Z" fill="#FC979B"/>
<path d="M15.5332 511.883C13.6564 511.883 12.1334 510.272 12.1334 508.285C12.1334 506.3 13.6564 504.688 15.5332 504.688C17.4101 504.688 18.9326 506.3 18.9326 508.285C18.9326 510.272 17.4101 511.883 15.5332 511.883Z" fill="#FC979B"/>
<path d="M9.41365 192.579L13.6387 185.48L19.6719 185.507L19.6325 187.525C19.6086 187.814 19.7484 188.09 19.9167 188.296L21.3467 189.682L17.1781 194.296L9.41365 192.579ZM9.73545 176.856L17.2676 175.319L21.3009 179.418L20.0144 180.858L19.8183 181.161L19.7609 181.525L19.7385 183.507L14.1462 183.498L9.73545 176.856ZM19.8227 165.299L26.5355 169.767L26.5086 176.152L24.5693 176.098C24.3148 176.121 24.0323 176.217 23.8629 176.446L22.5639 177.923L18.2035 173.514L19.8227 165.299ZM34.6888 165.639L36.1054 173.593L36.1261 173.647L32.3015 177.892L30.9041 176.517C30.7227 176.351 30.4764 176.245 30.2736 176.245L28.3661 176.208L28.4125 170.309L34.6888 165.639ZM45.6096 176.311L41.4026 183.376L35.3182 183.37L35.3503 181.354C35.3793 181.064 35.2733 180.802 35.0734 180.587L33.6759 179.213L37.8479 174.597L45.6096 176.311ZM45.2879 192.038L37.7556 193.577L33.7099 189.511L35.0073 188.035C35.1614 187.845 35.2466 187.623 35.2618 187.368L35.2984 185.352L40.8772 185.399L45.2879 192.038ZM35.2007 203.593L28.4879 199.126L28.5157 192.741L30.4217 192.78C30.7101 192.769 30.9548 192.662 31.1236 192.431L32.4244 190.953L36.809 195.42L35.2007 203.593ZM25.1451 190.654L24.0422 189.577L22.6464 188.203L21.5439 187.127L21.5751 185.544L21.6129 183.529L21.645 181.941L22.6618 180.775L23.958 179.3L24.9774 178.136L26.4753 178.168L28.3813 178.208L29.8809 178.239L30.9811 179.316L32.3759 180.688L33.4761 181.765L33.4454 183.351L33.4133 185.366L33.3783 186.951L32.3616 188.123L31.0652 189.595L30.0458 190.759L28.5479 190.725L26.642 190.687L25.1451 190.654ZM26.5759 198.57L20.3362 203.257L18.883 195.287L22.7191 191.005L24.1176 192.377C24.2672 192.523 24.5131 192.631 24.748 192.644L26.6556 192.686L26.6261 198.549L26.5759 198.57ZM5.57757 209.918L6.86252 208.479L6.87678 208.464L7.11327 209.619C7.22193 210.161 7.72734 210.506 8.23584 210.39C8.74671 210.273 9.07116 209.739 8.96628 209.201L8.46254 206.743L10.0949 204.932L10.0977 204.929L10.7657 208.227C10.8766 208.767 11.3798 209.113 11.8905 208.994C12.4008 208.878 12.7296 208.349 12.6176 207.807L11.6781 203.163L13.6452 201.063L14.8105 206.78C14.9225 207.317 15.4255 207.665 15.9375 207.551C16.4482 207.431 16.7683 206.899 16.6635 206.359L15.2246 199.298L17.2802 197.018L18.7469 205.169C18.7879 205.49 19.0131 205.756 19.3289 205.894C19.6112 206.014 19.9471 205.986 20.2225 205.799L26.59 200.995L26.6234 204.121L20.9146 208.177C20.7557 208.291 20.6394 208.452 20.5678 208.633C20.4547 208.929 20.4787 209.284 20.6618 209.566C20.9524 210.025 21.5413 210.148 21.9734 209.84L26.5857 206.563L26.5873 206.57L26.59 209.546L22.8796 212.188C22.7163 212.305 22.5956 212.463 22.53 212.644C22.4153 212.941 22.4405 213.293 22.6223 213.577C22.9135 214.037 23.5009 214.16 23.9356 213.851L26.5721 211.978L26.5578 214.468L26.5535 214.48L24.5956 215.875C24.4334 215.995 24.3148 216.155 24.2449 216.334C24.1328 216.63 24.158 216.98 24.3372 217.264C24.6306 217.726 25.215 217.847 25.6505 217.538L26.5731 216.887L26.5721 216.895L26.5496 218.874C26.5426 219.435 26.9845 219.882 27.5116 219.892C28.0388 219.9 28.4611 219.435 28.4584 218.91L28.4638 216.539V216.525L29.9366 217.486C30.3857 217.776 30.9648 217.63 31.24 217.158C31.5018 216.704 31.3755 216.07 30.9325 215.779L28.4725 214.174L28.4736 214.162L28.4851 211.664L31.6776 213.746C32.124 214.037 32.7041 213.89 32.9811 213.419C33.2482 212.963 33.1165 212.332 32.6735 212.039L28.4862 209.309L28.4934 209.288V206.829L32.886 209.69C33.3323 209.98 33.9152 209.833 34.1939 209.364C34.4565 208.909 34.3249 208.276 33.8819 207.985L28.4862 204.471L28.4791 201.504L35.3191 206.067C35.5879 206.225 35.908 206.233 36.1922 206.137C36.4888 206.002 36.7052 205.75 36.7499 205.42L38.4073 197.011L40.4362 199.085L40.4434 199.089L39.0853 205.644C38.9749 206.187 39.3011 206.72 39.8086 206.838C40.3204 206.956 40.828 206.601 40.9383 206.076L42.0445 200.717L42.056 200.729L43.7298 202.439L43.7353 202.442L42.6853 207.539C42.5734 208.079 42.8951 208.613 43.4069 208.732C43.9189 208.852 44.4208 208.498 44.5357 207.968L45.3381 204.067L45.3534 204.08L47.0567 205.796L46.4362 208.81C46.3268 209.352 46.6486 209.884 47.1605 210.004C47.6708 210.121 48.1701 209.778 48.2864 209.239L48.6584 207.425L48.6836 207.449L50.2678 209.079C50.6541 209.46 51.2648 209.46 51.6276 209.05C51.9712 208.681 51.9727 208.033 51.5866 207.655L50.2417 206.258L50.2383 206.255L51.297 206.012C51.809 205.894 52.1323 205.358 52.0231 204.823C51.9165 204.278 51.4133 203.936 50.8999 204.052L48.552 204.586L46.8753 202.874L46.8377 202.859L49.9783 202.143C50.4928 202.028 50.819 201.497 50.7086 200.957C50.5967 200.414 50.093 200.07 49.5838 200.183L45.2109 201.179L45.1971 201.164L43.2071 199.104L43.1999 199.101L48.6137 197.864C49.1266 197.749 49.4484 197.215 49.3407 196.675C49.2304 196.135 48.7268 195.788 48.2176 195.905L41.519 197.434L41.5146 197.431L39.3973 195.272L47.0611 193.704C47.6823 193.579 48.0231 192.689 47.6582 192.144L43.1693 185.383L46.1101 185.386H46.1161L49.9351 191.406C50.2246 191.863 50.8135 191.986 51.2468 191.68C51.6761 191.369 51.7964 190.748 51.5041 190.286L48.4176 185.423L48.4246 185.426L51.2118 185.402H51.227L53.7236 189.327C54.0176 189.789 54.606 189.91 55.0407 189.602C55.4734 189.293 55.5864 188.672 55.2969 188.21L53.5024 185.387H53.5056L53.5374 185.402L55.8673 185.406H55.8706L57.2101 187.515C57.5024 187.973 58.0911 188.095 58.5244 187.782C58.9537 187.479 59.0712 186.853 58.7849 186.396L58.1781 185.44L58.1819 185.443L60.0671 185.426C60.597 185.433 61.0182 184.97 61.0155 184.448C61.0225 183.887 60.5806 183.44 60.0535 183.433L57.8438 183.44L57.8114 183.437L58.7342 181.86C58.9947 181.403 58.8675 180.775 58.4239 180.481C57.9776 180.191 57.3964 180.339 57.1193 180.811L55.5909 183.434L53.237 183.416H53.2189L55.1975 180.021C55.4603 179.555 55.3347 178.933 54.8883 178.642C54.4426 178.352 53.8607 178.5 53.5855 178.967L50.9949 183.409L50.9911 183.404L48.6639 183.409L48.647 183.41L51.3659 178.742C51.6302 178.279 51.5003 177.653 51.055 177.362C50.612 177.073 50.0285 177.22 49.7532 177.686L46.4274 183.404L46.4193 183.402L43.5971 183.404L47.9242 176.132C48.109 175.868 48.1154 175.523 47.9915 175.211C47.8483 174.935 47.6135 174.702 47.3173 174.62L39.3988 172.882L41.3513 170.751L47.5407 172.183C48.0515 172.3 48.559 171.957 48.6693 171.418C48.7787 170.878 48.4569 170.343 47.9466 170.224L42.905 169.059L44.5203 167.289L44.5268 167.268L49.331 168.379C49.8411 168.492 50.3492 168.153 50.4595 167.612C50.5688 167.07 50.2481 166.536 49.7351 166.416L46.0712 165.574L47.703 163.763L47.7101 163.757L50.5306 164.407C51.0441 164.522 51.5462 164.179 51.6609 163.64C51.7701 163.097 51.4494 162.566 50.9364 162.446L49.2456 162.06L49.2539 162.048L50.8075 160.336C51.1517 159.962 51.1561 159.317 50.7699 158.932C50.3853 158.554 49.7712 158.552 49.409 158.96L48.1269 160.4L48.1199 160.409L47.8877 159.262C47.7757 158.722 47.2725 158.375 46.7618 158.491C46.4432 158.565 46.1952 158.799 46.0838 159.1C46.0139 159.279 45.9953 159.481 46.0347 159.681L46.5296 162.125L46.5231 162.133L44.8988 163.942L44.2319 160.658C44.1232 160.116 43.6195 159.77 43.1093 159.887C42.7886 159.959 42.54 160.197 42.4264 160.492C42.3592 160.671 42.3402 160.874 42.3815 161.078L43.3191 165.706L41.365 167.844L41.3595 167.85L40.186 162.103C40.0768 161.562 39.5736 161.217 39.0618 161.332C38.7428 161.406 38.4981 161.64 38.3849 161.94C38.3161 162.119 38.2937 162.321 38.3347 162.525L39.7819 169.631L37.7092 171.859L36.2757 163.725C36.1992 163.39 35.977 163.12 35.6939 162.998C35.3782 162.864 35.0411 162.895 34.8007 163.093L28.3983 167.881L28.4136 164.731L34.0819 160.708C34.5112 160.399 34.6298 159.78 34.3375 159.317C34.0452 158.858 33.4607 158.737 33.0242 159.043L28.4343 162.303L28.3956 159.345L32.1185 156.694C32.5533 156.39 32.6648 155.766 32.3759 155.306C32.0847 154.846 31.4973 154.724 31.0609 155.034L28.4163 156.913V156.91L28.4315 154.408L30.402 153.008C30.833 152.699 30.9488 152.078 30.661 151.614C30.3687 151.157 29.7826 151.036 29.3466 151.342L28.4163 152.004V151.983L28.4387 150.003C28.4458 149.444 28.0022 148.994 27.5116 149C26.9828 148.994 26.5246 149.445 26.5661 149.982L26.5436 152.368L25.0627 151.397C24.6152 151.107 24.0351 151.253 23.7554 151.724L23.6855 151.878C23.5144 152.323 23.6685 152.844 24.0672 153.106L26.5507 154.727L26.5524 154.729L26.5381 157.232L26.5398 157.235L23.3206 155.137C22.8753 154.846 22.2941 154.992 22.0171 155.466L21.9456 155.615C21.7762 156.061 21.9275 156.581 22.3274 156.848L26.53 159.586V159.606V162.068L22.1105 159.193C21.6674 158.904 21.0813 159.051 20.8059 159.521L20.7334 159.671C20.565 160.116 20.7219 160.64 21.1146 160.899L26.5355 164.426L26.5246 167.427L19.6686 162.812C19.4003 162.656 19.0759 162.648 18.7962 162.742C18.4995 162.874 18.3176 163.143 18.2368 163.457L16.5952 171.833L14.5559 169.795L15.915 163.235C16.0244 162.698 15.6998 162.164 15.1896 162.045C14.6761 161.93 14.1614 162.272 14.0593 162.809L12.9558 168.153L11.2623 166.443L12.3139 161.344C12.4248 160.804 12.1031 160.271 11.5896 160.153C11.0777 160.03 10.5674 160.379 10.4608 160.919L9.66272 164.8L7.96215 163.088L7.94356 163.071L8.56197 160.073C8.67231 159.533 8.35066 158.997 7.83867 158.879C7.32416 158.764 6.81231 159.111 6.71008 159.644L6.34129 161.446L6.33976 161.443L4.72058 159.801C4.33431 159.421 3.75799 159.432 3.39746 159.841L3.20013 160.146C3.05762 160.517 3.14125 160.943 3.40179 161.226L4.7719 162.628L3.70066 162.87C3.38054 162.943 3.13468 163.18 3.02098 163.479C2.95273 163.657 2.93301 163.858 2.97511 164.062C3.08279 164.601 3.58751 164.948 4.09936 164.833L6.44184 164.299L8.09767 166.039L5.01818 166.74C4.70086 166.81 4.45178 167.046 4.33864 167.342C4.26984 167.523 4.24901 167.722 4.28956 167.927C4.40256 168.47 4.90518 168.816 5.41381 168.698L9.78132 167.708L9.79111 167.714L11.808 169.781L6.38731 171.017C6.06705 171.091 5.82078 171.325 5.70596 171.623C5.63771 171.805 5.61814 172.006 5.65744 172.209C5.77043 172.747 6.27249 173.093 6.78434 172.976L13.4747 171.453L15.5894 173.608L7.92454 175.177C7.60652 175.254 7.35199 175.492 7.24053 175.789C7.12585 176.086 7.15201 176.446 7.3285 176.736L11.8189 183.495H8.88209L5.06685 177.477C4.77456 177.022 4.18355 176.897 3.75142 177.207C3.58919 177.323 3.47004 177.48 3.40179 177.662C3.28712 177.961 3.31215 178.309 3.49522 178.597L6.58449 183.468L3.77659 183.474H3.76513L1.27454 179.555C0.982253 179.094 0.391672 178.975 -0.040324 179.281C-0.203668 179.395 -0.322821 179.559 -0.389948 179.741C-0.504765 180.035 -0.480712 180.388 -0.297649 180.673L1.46026 183.44L-0.873413 183.474L-2.21079 181.372C-2.50308 180.911 -3.0931 180.787 -3.52678 181.099C-3.69012 181.215 -3.8076 181.373 -3.87473 181.554C-3.98954 181.852 -3.96605 182.199 -3.78522 182.487L-3.17283 183.452L-5.08037 183.456C-5.45251 183.467 -5.79221 183.711 -5.93486 184.081C-5.97527 184.195 -6.01736 184.304 -5.99219 184.445C-5.99932 185.007 -5.59236 185.437 -5.06512 185.448L-2.82207 185.452L-2.8204 185.455L-3.73655 187.021C-4.02338 187.491 -3.87207 188.111 -3.42469 188.402C-2.97829 188.689 -2.39652 188.544 -2.11962 188.077L-0.598188 185.46L-0.574695 185.461L1.77492 185.479L-0.199892 188.864C-0.483367 189.323 -0.338069 189.952 0.110989 190.242C0.55669 190.532 1.13847 190.385 1.41439 189.916L4.00273 185.468L6.34409 185.485L3.63227 190.142C3.34991 190.604 3.49689 191.234 3.94259 191.523C4.38886 191.81 4.97343 191.663 5.24599 191.194L8.57288 185.476L11.377 185.51L7.06306 192.745C6.9144 193.028 6.87399 193.355 6.99692 193.67C7.13565 193.942 7.37436 194.177 7.66987 194.256L15.6353 195.97L13.6747 198.141L7.45688 196.701C7.00237 196.593 6.54673 196.857 6.37626 197.302L6.32983 197.465C6.21949 198.005 6.5424 198.54 7.05159 198.659L12.1238 199.834L10.5046 201.606L10.492 201.622L5.66834 200.507C5.21103 200.4 4.75652 200.662 4.58618 201.109L4.53864 201.273C4.43095 201.815 4.75218 202.346 5.26403 202.466L8.95481 203.318L8.95201 203.321L7.32304 205.129L7.32024 205.133L4.46871 204.476C4.00875 204.371 3.55535 204.635 3.38599 205.08L3.33564 205.244C3.2281 205.781 3.55087 206.317 4.06175 206.437L5.76498 206.829L4.21964 208.559C3.87001 208.931 3.86722 209.578 4.25348 209.963C4.60423 210.324 5.21816 210.324 5.57757 209.918Z" fill="#FC979B"/>
<path d="M61.8603 558.071C59.9566 558.071 58.4154 556.438 58.4154 554.426C58.4154 552.413 59.9566 550.781 61.8603 550.781C63.762 550.781 65.3047 552.413 65.3047 554.426C65.3047 556.438 63.762 558.071 61.8603 558.071Z" fill="#FC979B"/>
<path d="M-15.0305 262.777L-12.8361 259.088L-9.70207 259.103L-9.72165 260.152C-9.73424 260.302 -9.66166 260.445 -9.57369 260.55L-8.83066 261.271L-10.9983 263.669L-15.0305 262.777ZM-14.8639 254.607L-10.9498 253.809L-8.85472 255.94L-9.52278 256.687L-9.62502 256.847L-9.6562 257.033L-9.66711 258.063L-12.5733 258.057L-14.8639 254.607ZM-9.62222 248.603L-6.13478 250.926L-6.14849 254.243L-7.1568 254.215C-7.28854 254.227 -7.43496 254.277 -7.52349 254.395L-8.19868 255.163L-10.4641 252.871L-9.62222 248.603ZM-1.89832 248.78L-1.16298 252.913L-1.1504 252.941L-3.13892 255.144L-3.86599 254.432L-4.19325 254.292L-5.18366 254.271L-5.15961 251.205L-1.89832 248.78ZM3.77539 254.326L1.58926 257.995L-1.57106 257.994L-1.55582 256.945C-1.5389 256.792 -1.59512 256.658 -1.69721 256.547L-2.42443 255.833L-0.256755 253.435L3.77539 254.326ZM3.60883 262.497L-0.30528 263.296L-2.40904 261.184L-1.73329 260.419L-1.60225 260.071L-1.58253 259.022L1.31557 259.047L3.60883 262.497ZM-1.6312 268.501L-5.12087 266.179L-5.10661 262.861L-4.11507 262.882C-3.96711 262.878 -3.83817 262.821 -3.75133 262.7L-3.07613 261.934L-0.798118 264.254L-1.6312 268.501ZM-6.85753 261.778L-7.42951 261.218L-8.15379 260.504L-8.72857 259.945L-8.71221 259.123L-8.69361 258.075L-8.67725 257.251L-8.1468 256.644L-7.47426 255.878L-6.94437 255.273L-6.16639 255.29L-5.17653 255.31L-4.39589 255.327L-3.82558 255.887L-3.09962 256.6L-2.52931 257.158L-2.54456 257.982L-2.56148 259.031L-2.57952 259.853L-3.10829 260.462L-3.78251 261.226L-4.31072 261.833L-5.08968 261.815L-6.0801 261.795L-6.85753 261.778ZM-6.11353 265.89L-9.35678 268.325L-10.1117 264.184L-8.11618 261.96L-7.39175 262.672L-7.0645 262.813L-6.07143 262.832L-6.08835 265.88L-6.11353 265.89ZM-17.0233 271.788L-16.3564 271.037L-16.3493 271.03L-16.2263 271.632C-16.1701 271.915 -15.9073 272.091 -15.6429 272.032C-15.3786 271.971 -15.2092 271.694 -15.2654 271.413L-15.5254 270.136L-14.6782 269.195L-14.6765 269.194L-14.3286 270.907C-14.2712 271.188 -14.0106 271.367 -13.7451 271.307C-13.4807 271.246 -13.3087 270.971 -13.3677 270.69L-13.8555 268.277L-12.8318 267.186L-12.2292 270.157C-12.169 270.437 -11.9074 270.616 -11.643 270.555C-11.3775 270.494 -11.2098 270.219 -11.2645 269.938L-12.0122 266.269L-10.9438 265.087L-10.1816 269.32C-10.1609 269.485 -10.0446 269.623 -9.87954 269.696C-9.73157 269.756 -9.55677 269.741 -9.41524 269.647L-6.10793 267.151L-6.09003 268.777L-9.05471 270.882L-9.23498 271.119C-9.29511 271.273 -9.28252 271.456 -9.1891 271.604C-9.03667 271.842 -8.72857 271.906 -8.50509 271.746L-6.10905 270.043L-6.10793 270.048L-6.10639 271.594L-8.03534 272.967L-8.21673 273.202C-8.2756 273.359 -8.26316 273.541 -8.16806 273.687C-8.01674 273.927 -7.71187 273.991 -7.48405 273.831L-6.11618 272.857L-6.12332 274.151L-6.12597 274.156L-7.14268 274.883L-7.3235 275.12C-7.38364 275.276 -7.36938 275.457 -7.27708 275.605C-7.12632 275.842 -6.82144 275.905 -6.59307 275.745L-6.11506 275.408L-6.11618 275.411L-6.12765 276.442C-6.13142 276.731 -5.90263 276.963 -5.62839 276.971C-5.35414 276.974 -5.13346 276.731 -5.13723 276.459L-5.13346 275.226V275.22L-4.36806 275.717C-4.13591 275.87 -3.83383 275.793 -3.69118 275.549C-3.55413 275.313 -3.62015 274.983 -3.85076 274.833L-5.12744 273.997V273.991L-5.12352 272.693L-3.46337 273.776C-3.23122 273.927 -2.92914 273.85 -2.78496 273.607C-2.64665 273.371 -2.71504 273.041 -2.94719 272.888L-5.12199 271.47L-5.11752 271.459V270.182L-2.83405 271.669C-2.60358 271.82 -2.29982 271.743 -2.15717 271.498C-2.02012 271.264 -2.08725 270.932 -2.31787 270.782L-5.12199 268.956L-5.12464 267.414L-1.56995 269.787C-1.43289 269.867 -1.26522 269.873 -1.11823 269.823C-0.963001 269.75 -0.849436 269.62 -0.828599 269.45L0.0328718 265.081L1.08874 266.158L1.09154 266.161L0.385151 269.565C0.327812 269.848 0.498851 270.125 0.761629 270.188C1.02706 270.249 1.28984 270.064 1.34718 269.789L1.9235 267.007L1.92895 267.013L2.79924 267.899L2.8019 267.902L2.25509 270.551C2.19775 270.832 2.36445 271.11 2.63156 271.171C2.89812 271.231 3.15711 271.048 3.21711 270.774L3.63554 268.747L3.64211 268.753L4.52764 269.647L4.20487 271.212C4.14754 271.493 4.31633 271.768 4.58232 271.831C4.84678 271.891 5.10676 271.715 5.1669 271.434L5.35975 270.492L5.3722 270.505L6.19605 271.35C6.39757 271.548 6.71504 271.549 6.90244 271.336C7.08102 271.145 7.0827 270.807 6.88104 270.61L6.18179 269.885V269.883L6.7314 269.756C6.99585 269.694 7.16521 269.419 7.10787 269.138C7.05319 268.858 6.79209 268.679 6.52498 268.74L5.30395 269.016L4.43367 268.126L4.41465 268.12H4.41297L6.04641 267.748C6.31185 267.686 6.48289 267.411 6.42387 267.131C6.36653 266.849 6.10542 266.67 5.83929 266.729L3.56841 267.247L3.5624 267.238L2.52668 266.167L2.52331 266.165L5.33625 265.523C5.60169 265.465 5.77105 265.187 5.71483 264.906C5.65735 264.624 5.39472 264.446 5.13026 264.504L1.64925 265.3L1.6466 265.298L0.547381 264.178L4.53044 263.363C4.85224 263.298 5.03139 262.833 4.83965 262.552L2.50808 259.038L4.03552 259.041H4.03817L6.02292 262.167C6.17368 262.406 6.48008 262.468 6.70524 262.31C6.92746 262.15 6.9904 261.827 6.83797 261.587L5.23515 259.059L5.2378 259.062L6.68721 259.05H6.69532L7.99004 261.089C8.14416 261.327 8.45057 261.391 8.67558 261.229C8.90074 261.07 8.95976 260.747 8.80844 260.507L7.87593 259.041H7.87705L7.89495 259.05H9.10507L9.10619 259.051L9.80432 260.146C9.95508 260.385 10.2599 260.448 10.4882 260.288C10.709 260.129 10.7718 259.803 10.621 259.563L10.3064 259.069H10.309L11.288 259.062C11.5622 259.065 11.7803 258.824 11.7803 258.553C11.7829 258.261 11.5536 258.028 11.2799 258.025L10.1316 258.028L10.1146 258.026L10.5942 257.209C10.7297 256.971 10.6658 256.644 10.4348 256.492C10.2015 256.341 9.89927 256.418 9.75677 256.663L8.96242 258.025L7.73873 258.017H7.72894L8.7581 256.252C8.89361 256.009 8.82803 255.688 8.597 255.536C8.36652 255.385 8.06333 255.462 7.919 255.706L6.57518 258.013L6.57238 258.011L5.36241 258.013L5.35415 258.014L6.76636 255.588C6.90355 255.348 6.83628 255.023 6.60581 254.872C6.3752 254.719 6.07145 254.798 5.92894 255.039L4.20039 258.011L4.19774 258.008L2.73043 258.011L4.9795 254.234C5.07446 254.093 5.07726 253.916 5.01446 253.755C4.9402 253.61 4.81727 253.491 4.66316 253.448L0.550181 252.543L1.56409 251.435L4.77951 252.18C5.04508 252.241 5.30773 252.063 5.36521 251.784C5.42143 251.501 5.25486 251.225 4.98928 251.162L2.3699 250.557L3.20998 249.637L3.21165 249.627L5.70938 250.202C5.97481 250.263 6.23926 250.085 6.2966 249.806C6.35282 249.523 6.18459 249.248 5.91915 249.184L4.01579 248.746L4.86468 247.805L4.8658 247.801L6.3331 248.14C6.60035 248.2 6.85866 248.021 6.9188 247.74C6.97614 247.461 6.81013 247.184 6.54399 247.122L5.66448 246.92L5.66993 246.913L6.47743 246.025C6.65602 245.832 6.65769 245.496 6.45771 245.297C6.25772 245.098 5.93873 245.096 5.74979 245.309L5.08439 246.058L5.08005 246.062L4.95978 245.468C4.90244 245.185 4.63966 245.006 4.3752 245.067C4.20752 245.105 4.08026 245.226 4.02124 245.382L3.99622 245.685L4.25507 246.955L4.25242 246.957L3.40731 247.898L3.05922 246.191C3.003 245.91 2.74302 245.731 2.47577 245.792C2.30977 245.829 2.1825 245.951 2.12236 246.105L2.09831 246.41L2.58513 248.814L1.56955 249.925L1.56675 249.927L0.95714 246.943C0.90148 246.662 0.639825 246.483 0.375369 246.543C0.207689 246.58 0.0793016 246.702 0.0219632 246.858L-0.00489032 247.163L0.747365 250.855L-0.331016 252.012L-1.07334 247.785C-1.11389 247.611 -1.23025 247.472 -1.37555 247.409C-1.54044 247.339 -1.71693 247.355 -1.84097 247.458L-5.16674 249.945L-5.15849 248.308L-2.21465 246.218C-1.99061 246.058 -1.9295 245.737 -2.08026 245.496C-2.23423 245.256 -2.53631 245.194 -2.76259 245.352L-5.14702 247.046L-5.16842 245.509L-3.23402 244.133C-3.00998 243.975 -2.94984 243.651 -3.09962 243.409C-3.25206 243.171 -3.55567 243.108 -3.78349 243.269L-5.15849 244.247V244.244L-5.14982 242.945L-4.125 242.217C-3.90096 242.057 -3.84097 241.733 -3.99061 241.493C-4.14304 241.255 -4.44777 241.192 -4.67447 241.351L-5.15695 241.695V241.683L-5.14604 240.656C-5.14157 240.366 -5.37218 240.132 -5.62839 240.134C-5.90263 240.131 -6.14024 240.366 -6.11786 240.646L-6.13045 241.883L-6.9006 241.379C-7.13289 241.23 -7.43497 241.306 -7.57915 241.551L-7.61691 241.628C-7.70474 241.86 -7.62502 242.133 -7.4186 242.269L-6.12597 243.109V243.112L-6.1331 244.411L-6.13143 244.413L-7.80417 243.324C-8.03646 243.171 -8.34007 243.248 -8.48272 243.494L-8.52034 243.572C-8.6083 243.805 -8.53027 244.074 -8.32162 244.211L-6.13744 245.635V245.647V246.925L-8.43349 245.431C-8.66578 245.28 -8.96786 245.358 -9.11204 245.601L-9.14966 245.679C-9.23763 245.91 -9.15526 246.182 -8.94982 246.317L-6.13478 248.15L-6.14024 249.709L-9.70207 247.313C-9.84192 247.231 -10.0113 247.227 -10.1566 247.276C-10.309 247.345 -10.404 247.483 -10.4478 247.645L-11.2994 251.998L-12.3592 250.939L-11.6545 247.533C-11.597 247.252 -11.7648 246.975 -12.0308 246.913C-12.2963 246.852 -12.5645 247.031 -12.6165 247.31L-13.1912 250.085L-14.0713 249.199L-13.5244 246.549C-13.4671 246.267 -13.6331 245.991 -13.9002 245.929C-14.1663 245.867 -14.4318 246.048 -14.4865 246.326L-14.9015 248.344L-15.7855 247.455L-15.7936 247.446L-15.4735 245.888C-15.4162 245.607 -15.5839 245.327 -15.85 245.266C-16.1154 245.206 -16.3842 245.389 -16.4356 245.666L-16.6273 246.601L-16.629 246.599L-17.4692 245.749C-17.6724 245.549 -17.9701 245.556 -18.1559 245.768L-18.2596 245.925C-18.3323 246.119 -18.2902 246.339 -18.1547 246.487L-17.4429 247.216L-17.9996 247.342C-18.1656 247.379 -18.2946 247.503 -18.3519 247.657L-18.3771 247.961C-18.3209 248.24 -18.0596 248.419 -17.7936 248.36L-16.5743 248.085L-15.7156 248.987L-17.3156 249.351C-17.479 249.388 -17.609 249.511 -17.669 249.664L-17.6931 249.968C-17.6357 250.252 -17.373 250.432 -17.1087 250.371L-14.8387 249.854L-14.8344 249.857L-13.7872 250.932L-16.6049 251.575C-16.7699 251.612 -16.8972 251.734 -16.9573 251.889L-16.984 252.194C-16.9256 252.473 -16.6623 252.652 -16.3979 252.593L-12.9213 251.8L-11.8222 252.92L-15.8051 253.735C-15.9685 253.774 -16.1028 253.898 -16.1619 254.055C-16.2203 254.207 -16.2066 254.395 -16.1143 254.546L-13.7818 258.057H-15.3086L-17.2905 254.931C-17.4414 254.693 -17.7478 254.629 -17.9728 254.789L-18.1547 255.027C-18.2149 255.184 -18.2023 255.363 -18.1056 255.512L-16.5017 258.042L-17.9602 258.047H-17.9673L-19.2594 256.009C-19.4134 255.773 -19.7194 255.709 -19.9433 255.867L-20.1252 256.106C-20.1837 256.261 -20.1728 256.443 -20.0777 256.591L-19.1643 258.028L-20.3771 258.047L-21.0703 256.955C-21.2228 256.715 -21.5292 256.65 -21.7559 256.813L-21.9361 257.05C-21.9963 257.205 -21.982 257.384 -21.8897 257.533L-21.5713 258.034L-22.5628 258.037C-22.7556 258.042 -22.932 258.17 -23.0058 258.362L-23.0353 258.553C-23.0408 258.843 -22.8282 259.068 -22.554 259.072L-21.3893 259.075H-21.3876L-21.8635 259.889C-22.0132 260.135 -21.9344 260.456 -21.7023 260.608C-21.4718 260.756 -21.1686 260.68 -21.0254 260.438L-20.2328 259.078H-20.2203L-18.9993 259.087L-20.0275 260.848C-20.1728 261.086 -20.0985 261.411 -19.8652 261.562C-19.6341 261.715 -19.3309 261.638 -19.1895 261.392L-17.8429 259.083L-16.6273 259.091L-18.0346 261.511C-18.1826 261.752 -18.1056 262.079 -17.8734 262.228C-17.6412 262.379 -17.338 262.302 -17.1955 262.058L-15.4681 259.087L-14.0122 259.105L-16.2526 262.864C-16.3296 263.012 -16.3504 263.179 -16.2876 263.345C-16.2166 263.487 -16.0919 263.609 -15.938 263.649L-11.7987 264.541L-12.8164 265.667L-16.0483 264.919C-16.2831 264.863 -16.5213 264.998 -16.6092 265.233L-16.6316 265.317C-16.6901 265.599 -16.5224 265.875 -16.2581 265.936L-13.6233 266.547L-14.464 267.467L-14.4711 267.476L-16.9769 266.898C-17.2145 266.841 -17.4511 266.978 -17.5391 267.208L-17.5641 267.296C-17.6216 267.575 -17.4528 267.852 -17.1867 267.914L-15.2692 268.358L-15.2709 268.361L-16.1171 269.299L-16.1198 269.3L-17.6008 268.959C-17.8412 268.904 -18.0761 269.043 -18.163 269.274L-18.188 269.358C-18.2455 269.638 -18.0777 269.917 -17.8106 269.98L-16.9284 270.182L-17.7325 271.082C-17.9128 271.274 -17.9138 271.612 -17.7128 271.81C-17.5309 271.999 -17.2119 271.999 -17.0233 271.788Z" fill="#FC979B"/>
<path d="M30.7353 29.9033C28.7872 29.9033 27.2069 28.2313 27.2069 26.1718C27.2069 24.1122 28.7872 22.4403 30.7353 22.4403C32.6834 22.4403 34.2637 24.1122 34.2637 26.1718C34.2637 28.2313 32.6834 29.9033 30.7353 29.9033Z" fill="#FC979B"/>
<path d="M58.4719 330.734C56.6599 330.734 55.1888 329.177 55.1888 327.26C55.1888 325.342 56.6599 323.789 58.4719 323.789C60.2845 323.789 61.7529 325.342 61.7529 327.26C61.7529 329.177 60.2845 330.734 58.4719 330.734Z" fill="#FC979B"/>
</svg>
